<?xml version="1.0" encoding="utf-8" ?>
<svg baseProfile="full" height="200mm" version="1.1" viewBox="0,0,200,200" width="200mm" xmlns="http://www.w3.org/2000/svg" xmlns:ev="http://www.w3.org/2001/xml-events" xmlns:xlink="http://www.w3.org/1999/xlink"><defs /><rect fill="#1a1a1a" height="200" width="200" x="0" y="0" /><text alignment-baseline="middle" fill="#e1ed5e" style="dominant-baseline: central; font-size:9.0px; font-family:Arial;" text-anchor="middle" x="100.0" y="100.0">2022</text><line stroke="#e1ed5e" stroke-width="0.3" x1="100.0" x2="100.0" y1="15.0" y2="10.0" /><path d="M 100.0 14.0 a86.0,86.0 0 0,1 42.46469731375804,11.215312516191453" fill="none" id="id61" stroke="none" /><text fill="#e1ed5e" style="font-size:6.75px; font-family:Arial;" text-anchor="middle"><textPath startOffset="22.20632615414155" xlink:href="#id61">January</textPath></text><line stroke="#e1ed5e" stroke-width="0.3" x1="143.23703022742887" x2="145.7803849466894" y1="26.81831364943548" y2="22.513508569990506" /><path d="M 143.74570117128098 25.957352633546492 a86.0,86.0 0 0,1 28.547481713284135,27.462654790039103" fill="none" id="id62" stroke="none" /><text fill="#e1ed5e" style="font-size:6.75px; font-family:Arial;" text-anchor="middle"><textPath startOffset="19.985693538727396" xlink:href="#id62">February</textPath></text><line stroke="#e1ed5e" stroke-width="0.3" x1="172.23445277983987" x2="176.4835382374775" y1="55.19839476539836" y2="52.563006222186495" /><path d="M 173.08426987136738 54.67131705675599 a86.0,86.0 0 0,1 12.851231095245387,41.99856678651699" fill="none" id="id63" stroke="none" /><text fill="#e1ed5e" style="font-size:6.75px; font-family:Arial;" text-anchor="middle"><textPath startOffset="22.20632615414155" xlink:href="#id63">March</textPath></text><line stroke="#e1ed5e" stroke-width="0.3" x1="184.98032266829074" x2="189.97916517819016" y1="98.17113171792111" y2="98.06355123074" /><path d="M 185.9800911702706 98.14961562048488 a86.0,86.0 0 0,1 -9.607161424134198,41.387399972396054" fill="none" id="id64" stroke="none" /><text fill="#e1ed5e" style="font-size:6.75px; font-family:Arial;" text-anchor="middle"><textPath startOffset="21.466115282336823" xlink:href="#id64">April</textPath></text><line stroke="#e1ed5e" stroke-width="0.3" x1="174.80103733775053" x2="179.2010983576182" y1="140.37084112569926" y2="142.7455964860345" /><path d="M 175.68104954172406 140.8457921977663 a86.0,86.0 0 0,1 -30.038265399797805,32.042727171017184" fill="none" id="id65" stroke="none" /><text fill="#e1ed5e" style="font-size:6.75px; font-family:Arial;" text-anchor="middle"><textPath startOffset="22.206326154141568" xlink:href="#id65">May</textPath></text><line stroke="#e1ed5e" stroke-width="0.3" x1="143.8653032363475" x2="146.44561519142675" y1="172.8068346515853" y2="177.08958963109032" /><path d="M 144.38136562736335 173.6633856474863 a86.0,86.0 0 0,1 -40.68145358897372,12.25698825130547" fill="none" id="id66" stroke="none" /><text fill="#e1ed5e" style="font-size:6.75px; font-family:Arial;" text-anchor="middle"><textPath startOffset="21.466115282336833" xlink:href="#id66">June</textPath></text><line stroke="#e1ed5e" stroke-width="0.3" x1="102.19456741930631" x2="102.32365962044197" y1="184.97166512339345" y2="189.96999836594603" /><path d="M 102.22038585953345 185.97133177190398 a86.0,86.0 0 0,1 -42.740103519485714,-10.115201625700543" fill="none" id="id67" stroke="none" /><text fill="#e1ed5e" style="font-size:6.75px; font-family:Arial;" text-anchor="middle"><textPath startOffset="22.20632615414155" xlink:href="#id67">July</textPath></text><line stroke="#e1ed5e" stroke-width="0.3" x1="58.666819895761336" x2="56.23545636021788" y1="174.27360380694188" y2="178.64263932499728" /><path d="M 58.180547188652646 175.14741091055294 a86.0,86.0 0 0,1 -31.652253787137756,-30.449443065178592" fill="none" id="id68" stroke="none" /><text fill="#e1ed5e" style="font-size:6.75px; font-family:Arial;" text-anchor="middle"><textPath startOffset="22.20632615414155" xlink:href="#id68">August</textPath></text><path d="M 82.24976979558568 111.22182372390057 l -16.02938008614301 10.133889851488501 a39.9640910530439,39.9640910530439 0 0,0 -0.3625986899587781,-0.5846245421498909 l 16.201443415769745 -9.856468977973345" fill="#ff0a01" stroke="none" /><path d="M 82.05923443525364 110.91462005526583 l -15.765441634600407 9.591218659211389 a39.45374285349172,39.45374285349172 0 0,0 -0.34798036675004185,-0.5832351104663703 l 15.92820287704868 -9.318421454858909" fill="#ff0000" stroke="none" /><line stroke="#e1ed5e" stroke-width="0.3" x1="26.63291911575756" x2="22.317208475507996" y1="142.92168965132927" y2="145.44649492493687" /><path d="M 25.769776987707644 143.4266507060508 a86.0,86.0 0 0,1 -11.730757126820373,-40.83630448921669" fill="none" id="id69" stroke="none" /><text fill="#e1ed5e" style="font-size:6.75px; font-family:Arial;" text-anchor="middle"><textPath startOffset="21.46611528233685" xlink:href="#id69">September</textPath></text><path d="M 81.69416730710424 110.29060199501025 l -27.723445869506815 15.584701999599448 a52.80365367840295,52.80365367840295 0 0,0 -0.43858108898407994,-0.7961520709949351 l 27.987603367942413 -15.105179410206691" fill="#fff917" stroke="none" /><path d="M 81.51974371655577 109.97397251340807 l -50.47742726537518 27.243154227435593 a78.35991732552517,78.35991732552517 0 0,0 -0.6304148327548939,-1.192507285539541 l 50.93889460635496 -26.370231926809925" fill="#43ffe1" stroke="none" /><path d="M 81.35079622478065 109.6543875284942 l -55.94761132565806 28.96316258548259 a84.0,84.0 0 0,0 -0.6536853208549331,-1.28978315318926 l 56.437875316299255 -27.995825220590643" fill="#4dd2ff" stroke="none" /><path d="M 81.18737489456691 109.33194174019688 l -37.8128716087996 18.756952467040573 a63.20943644677553,63.20943644677553 0 0,0 -0.4751144616353527,-0.9788765152238976 l 38.13013932704967 -18.10328699585139" fill="#62ff29" stroke="none" /><path d="M 81.02952815118164 109.00673069616217 l -54.214192060841114 25.73961426438761 a81.01421800947867,81.01421800947867 0 0,0 -0.5872581132340335,-1.2649017309717285 l 54.64922479091497 -24.802592466137053" fill="#48f9ff" stroke="none" /><path d="M 80.87730276802145 108.67885076344099 l -50.23592688154618 22.799613834756247 a76.16766027902635,76.16766027902635 0 0,0 -0.5315737937643087,-1.1985585735554034 l 50.62094176004177 -21.93150692470815" fill="#3fffc2" stroke="none" /><path d="M 80.73074385275274 108.34839909993369 l -28.26520863736353 12.245892656386395 a51.803959262819255,51.803959262819255 0 0,0 -0.34745413488199106,-0.8212789385688136 l 28.47181375343783 -11.757539192151421" fill="#ffe815" stroke="none" /><path d="M 80.58989483394504 108.01547362559985 l -51.399901399070735 21.22577649621364 a76.61010206519504,76.61010206519504 0 0,0 -0.49284878621345457,-1.2232102691470046 l 51.757652799541574 -20.33786685922383" fill="#40ffc8" stroke="none" /><path d="M 80.32549172779594 107.34259656027581 l -18.035029682189904 6.730737311285534 a40.250068061983626,40.250068061983626 0 0,0 -0.2366622332639735,-0.6511928235577459 l 18.1482161764591 -6.419296690721671" fill="#ff1001" stroke="none" /><path d="M 80.20201598880116 107.00284435728193 l -37.58474285301633 13.294288158797237 a60.86666518504524,60.86666518504524 0 0,0 -0.34087990074618557,-0.9907565539129913 l 37.80801358470574 -12.645358901794948" fill="#84ff25" stroke="none" /><path d="M 79.97269907076064 106.31721596034903 l -24.069080717623592 7.592115452677512 a46.238083596784136,46.238083596784136 0 0,0 -0.23289292072205764,-0.7611075400138986 l 24.19620041085178 -7.176680940111566" fill="#ff840c" stroke="none" /><path d="M 79.76711848015287 105.62410040840567 l -21.786801174752565 6.056040869145806 a43.61283565670091,43.61283565670091 0 0,0 -0.19482876234024493,-0.7250303027466398 l 21.887818013434583 -5.680119633223628" fill="#ff5207" stroke="none" /><line stroke="#e1ed5e" stroke-width="0.3" x1="15.007084014347285" x2="10.007500721073583" y1="101.09737516637583" y2="101.16192664675087" /><path d="M 14.007167355692545 101.11028546245083 a86.0,86.0 0 0,1 10.666146001902534,-42.60595125391555" fill="none" id="id70" stroke="none" /><text fill="#e1ed5e" style="font-size:6.75px; font-family:Arial;" text-anchor="middle"><textPath startOffset="22.20632615414155" xlink:href="#id70">October</textPath></text><line stroke="#e1ed5e" stroke-width="0.3" x1="26.266209847984243" x2="21.928928074336255" y1="57.711370442889674" y2="55.22380399835377" /><path d="M 25.398753493254645 57.213857153982495 a86.0,86.0 0 0,1 29.58750427330803,-30.492523968695096" fill="none" id="id71" stroke="none" /><text fill="#e1ed5e" style="font-size:6.75px; font-family:Arial;" text-anchor="middle"><textPath startOffset="21.46611528233685" xlink:href="#id71">November</textPath></text><line stroke="#e1ed5e" stroke-width="0.3" x1="56.762969772571076" x2="54.21961505331055" y1="26.818313649435495" y2="22.513508569990535" /><path d="M 56.25429882871897 25.957352633546506 a86.0,86.0 0 0,1 42.265352541879196,-11.944610805530505" fill="none" id="id72" stroke="none" /><text fill="#e1ed5e" style="font-size:6.75px; font-family:Arial;" text-anchor="middle"><textPath startOffset="22.20632615414155" xlink:href="#id72">December</textPath></text></svg>