<?xml version="1.0" encoding="utf-8" ?>
<svg baseProfile="full" height="200mm" version="1.1" viewBox="0,0,200,200" width="200mm" xmlns="http://www.w3.org/2000/svg" xmlns:ev="http://www.w3.org/2001/xml-events" xmlns:xlink="http://www.w3.org/1999/xlink"><defs /><rect fill="#1a1a1a" height="200" width="200" x="0" y="0" /><text alignment-baseline="middle" fill="#e1ed5e" style="dominant-baseline: central; font-size:9.0px; font-family:Arial;" text-anchor="middle" x="100.0" y="100.0">2017</text><line stroke="#e1ed5e" stroke-width="0.3" x1="100.0" x2="100.0" y1="15.0" y2="10.0" /><path d="M 100.0 14.0 a86.0,86.0 0 0,1 42.46469731375804,11.215312516191453" fill="none" id="id1" stroke="none" /><text fill="#e1ed5e" style="font-size:6.75px; font-family:Arial;" text-anchor="middle"><textPath startOffset="22.20632615414155" xlink:href="#id1">January</textPath></text><line stroke="#e1ed5e" stroke-width="0.3" x1="143.23703022742887" x2="145.7803849466894" y1="26.81831364943548" y2="22.513508569990506" /><path d="M 143.74570117128098 25.957352633546492 a86.0,86.0 0 0,1 28.547481713284135,27.462654790039103" fill="none" id="id2" stroke="none" /><text fill="#e1ed5e" style="font-size:6.75px; font-family:Arial;" text-anchor="middle"><textPath startOffset="19.985693538727396" xlink:href="#id2">February</textPath></text><line stroke="#e1ed5e" stroke-width="0.3" x1="172.23445277983987" x2="176.4835382374775" y1="55.19839476539836" y2="52.563006222186495" /><path d="M 173.08426987136738 54.67131705675599 a86.0,86.0 0 0,1 12.851231095245387,41.99856678651699" fill="none" id="id3" stroke="none" /><text fill="#e1ed5e" style="font-size:6.75px; font-family:Arial;" text-anchor="middle"><textPath startOffset="22.20632615414155" xlink:href="#id3">March</textPath></text><line stroke="#e1ed5e" stroke-width="0.3" x1="184.98032266829074" x2="189.97916517819016" y1="98.17113171792111" y2="98.06355123074" /><path d="M 185.9800911702706 98.14961562048488 a86.0,86.0 0 0,1 -9.607161424134198,41.387399972396054" fill="none" id="id4" stroke="none" /><text fill="#e1ed5e" style="font-size:6.75px; font-family:Arial;" text-anchor="middle"><textPath startOffset="21.466115282336823" xlink:href="#id4">April</textPath></text><line stroke="#e1ed5e" stroke-width="0.3" x1="174.80103733775053" x2="179.2010983576182" y1="140.37084112569926" y2="142.7455964860345" /><path d="M 175.68104954172406 140.8457921977663 a86.0,86.0 0 0,1 -30.038265399797805,32.042727171017184" fill="none" id="id5" stroke="none" /><text fill="#e1ed5e" style="font-size:6.75px; font-family:Arial;" text-anchor="middle"><textPath startOffset="22.206326154141568" xlink:href="#id5">May</textPath></text><line stroke="#e1ed5e" stroke-width="0.3" x1="143.8653032363475" x2="146.44561519142675" y1="172.8068346515853" y2="177.08958963109032" /><path d="M 144.38136562736335 173.6633856474863 a86.0,86.0 0 0,1 -40.68145358897372,12.25698825130547" fill="none" id="id6" stroke="none" /><text fill="#e1ed5e" style="font-size:6.75px; font-family:Arial;" text-anchor="middle"><textPath startOffset="21.466115282336833" xlink:href="#id6">June</textPath></text><line stroke="#e1ed5e" stroke-width="0.3" x1="102.19456741930631" x2="102.32365962044197" y1="184.97166512339345" y2="189.96999836594603" /><path d="M 102.22038585953345 185.97133177190398 a86.0,86.0 0 0,1 -42.740103519485714,-10.115201625700543" fill="none" id="id7" stroke="none" /><text fill="#e1ed5e" style="font-size:6.75px; font-family:Arial;" text-anchor="middle"><textPath startOffset="22.20632615414155" xlink:href="#id7">July</textPath></text><path d="M 93.42475214034765 119.94407469862007 l -14.008578046685592 42.49088900495358 a65.74053986399099,65.74053986399099 0 0,0 -1.0716655508805233,-0.3635671399766089 l 14.737913330503343 -42.24345887807885" fill="#32ff4d" stroke="none" /><path d="M 91.40352486487194 119.15986991738527 l -25.789425405384158 57.479609752155824 a84.0,84.0 0 0,0 -1.3141280169303222,-0.6032517186637025 l 26.7750214180819 -57.02717096315804" fill="#4dd2ff" stroke="none" /><line stroke="#e1ed5e" stroke-width="0.3" x1="58.666819895761336" x2="56.23545636021788" y1="174.27360380694188" y2="178.64263932499728" /><path d="M 58.180547188652646 175.14741091055294 a86.0,86.0 0 0,1 -31.652253787137756,-30.449443065178592" fill="none" id="id8" stroke="none" /><text fill="#e1ed5e" style="font-size:6.75px; font-family:Arial;" text-anchor="middle"><textPath startOffset="22.20632615414155" xlink:href="#id8">August</textPath></text><path d="M 85.44109423537348 115.13401014063109 l -15.458169813378221 16.0687968239806 a43.29711293754433,43.29711293754433 0 0,0 -0.5326576756859616,-0.5213176452384743 l 15.732477441439977 -15.800329075819553" fill="#ffc412" stroke="none" /><line stroke="#e1ed5e" stroke-width="0.3" x1="26.63291911575756" x2="22.317208475507996" y1="142.92168965132927" y2="145.44649492493687" /><path d="M 25.769776987707644 143.4266507060508 a86.0,86.0 0 0,1 -11.730757126820373,-40.83630448921669" fill="none" id="id9" stroke="none" /><text fill="#e1ed5e" style="font-size:6.75px; font-family:Arial;" text-anchor="middle"><textPath startOffset="21.46611528233685" xlink:href="#id9">September</textPath></text><path d="M 81.18737489456691 109.33194174019688 l -19.7042410309941 9.774224931688543 a42.99528557720389,42.99528557720389 0 0,0 -0.3231745623467513,-0.6658353195777719 l 19.86956884995557 -9.433600656145487" fill="#ffc011" stroke="none" /><path d="M 80.73074385275274 108.34839909993369 l -25.004450496384145 10.833170228429953 a48.25032333430681,48.25032333430681 0 0,0 -0.32361955708528894,-0.7649410372778714 l 25.18722103466174 -10.401154665485922" fill="#f2ff19" stroke="none" /><path d="M 80.32549172779594 107.34259656027581 l -20.612718583653393 7.6927399900557445 a43.0014184988944,43.0014184988944 0 0,0 -0.25283961557021906,-0.6957060317552991 l 20.74208246022884 -7.336786161294328" fill="#ffc011" stroke="none" /><path d="M 80.0844068197444 106.66101706037122 l -41.92128918686747 14.021094924921343 a65.20390921607077,65.20390921607077 0 0,0 -0.3468467582603858,-1.0674845578205987 l 42.156428196144105 -13.297411467122942" fill="#32ff46" stroke="none" /><path d="M 79.86692584326677 105.97154293290107 l -9.646555557303296 2.8612034216238644 a31.061934164963077,31.061934164963077 0 0,0 -0.1476290353439238,-0.5139160391421339 l 9.694377229533325 -2.6947299069771344" fill="#ff0000" stroke="none" /><path d="M 79.67330655649465 105.27499134158121 l -21.64412505368873 5.616878739851744 a43.36107054945972,43.36107054945972 0 0,0 -0.18126720925220538,-0.7240723950295791 l 21.737603577235994 -5.243478505424773" fill="#ffc512" stroke="none" /><path d="M 79.35854240842038 103.8639653848113 l -25.436469309628574 4.761564753271777 a46.87830113897117,46.87830113897117 0 0,0 -0.14164738020774204,-0.7944337320400796 l 25.514663132175503 -4.3230122704984835" fill="#fff817" stroke="none" /><path d="M 79.04373962182676 101.35467743843564 l -27.56514569665175 1.7818962108973633 a48.6226792940882,48.6226792940882 0 0,0 -0.04680198943613238,-0.8356809611803672 l 27.591734036975417 -1.3071435333815584" fill="#edff1a" stroke="none" /><line stroke="#e1ed5e" stroke-width="0.3" x1="15.007084014347285" x2="10.007500721073583" y1="101.09737516637583" y2="101.16192664675087" /><path d="M 14.007167355692545 101.11028546245083 a86.0,86.0 0 0,1 10.666146001902534,-42.60595125391555" fill="none" id="id10" stroke="none" /><text fill="#e1ed5e" style="font-size:6.75px; font-family:Arial;" text-anchor="middle"><textPath startOffset="22.20632615414155" xlink:href="#id10">October</textPath></text><line stroke="#e1ed5e" stroke-width="0.3" x1="26.266209847984243" x2="21.928928074336255" y1="57.711370442889674" y2="55.22380399835377" /><path d="M 25.398753493254645 57.213857153982495 a86.0,86.0 0 0,1 29.58750427330803,-30.492523968695096" fill="none" id="id11" stroke="none" /><text fill="#e1ed5e" style="font-size:6.75px; font-family:Arial;" text-anchor="middle"><textPath startOffset="21.46611528233685" xlink:href="#id11">November</textPath></text><line stroke="#e1ed5e" stroke-width="0.3" x1="56.762969772571076" x2="54.21961505331055" y1="26.818313649435495" y2="22.513508569990535" /><path d="M 56.25429882871897 25.957352633546506 a86.0,86.0 0 0,1 42.265352541879196,-11.944610805530505" fill="none" id="id12" stroke="none" /><text fill="#e1ed5e" style="font-size:6.75px; font-family:Arial;" text-anchor="middle"><textPath startOffset="22.20632615414155" xlink:href="#id12">December</textPath></text></svg>