<?xml version="1.0" encoding="utf-8" ?>
<svg baseProfile="full" height="200mm" version="1.1" viewBox="0,0,200,200" width="200mm" xmlns="http://www.w3.org/2000/svg" xmlns:ev="http://www.w3.org/2001/xml-events" xmlns:xlink="http://www.w3.org/1999/xlink"><defs /><rect fill="#1a1a1a" height="200" width="200" x="0" y="0" /><text alignment-baseline="middle" fill="#e1ed5e" style="dominant-baseline: central; font-size:9.0px; font-family:Arial;" text-anchor="middle" x="100.0" y="100.0">2021</text><line stroke="#e1ed5e" stroke-width="0.3" x1="100.0" x2="100.0" y1="15.0" y2="10.0" /><path d="M 100.0 14.0 a86.0,86.0 0 0,1 42.46469731375804,11.215312516191453" fill="none" id="id49" stroke="none" /><text fill="#e1ed5e" style="font-size:6.75px; font-family:Arial;" text-anchor="middle"><textPath startOffset="22.20632615414155" xlink:href="#id49">January</textPath></text><line stroke="#e1ed5e" stroke-width="0.3" x1="143.23703022742887" x2="145.7803849466894" y1="26.81831364943548" y2="22.513508569990506" /><path d="M 143.74570117128098 25.957352633546492 a86.0,86.0 0 0,1 28.547481713284135,27.462654790039103" fill="none" id="id50" stroke="none" /><text fill="#e1ed5e" style="font-size:6.75px; font-family:Arial;" text-anchor="middle"><textPath startOffset="19.985693538727396" xlink:href="#id50">February</textPath></text><line stroke="#e1ed5e" stroke-width="0.3" x1="172.23445277983987" x2="176.4835382374775" y1="55.19839476539836" y2="52.563006222186495" /><path d="M 173.08426987136738 54.67131705675599 a86.0,86.0 0 0,1 12.851231095245387,41.99856678651699" fill="none" id="id51" stroke="none" /><text fill="#e1ed5e" style="font-size:6.75px; font-family:Arial;" text-anchor="middle"><textPath startOffset="22.20632615414155" xlink:href="#id51">March</textPath></text><line stroke="#e1ed5e" stroke-width="0.3" x1="184.98032266829074" x2="189.97916517819016" y1="98.17113171792111" y2="98.06355123074" /><path d="M 185.9800911702706 98.14961562048488 a86.0,86.0 0 0,1 -9.607161424134198,41.387399972396054" fill="none" id="id52" stroke="none" /><text fill="#e1ed5e" style="font-size:6.75px; font-family:Arial;" text-anchor="middle"><textPath startOffset="21.466115282336823" xlink:href="#id52">April</textPath></text><line stroke="#e1ed5e" stroke-width="0.3" x1="174.80103733775053" x2="179.2010983576182" y1="140.37084112569926" y2="142.7455964860345" /><path d="M 175.68104954172406 140.8457921977663 a86.0,86.0 0 0,1 -30.038265399797805,32.042727171017184" fill="none" id="id53" stroke="none" /><text fill="#e1ed5e" style="font-size:6.75px; font-family:Arial;" text-anchor="middle"><textPath startOffset="22.206326154141568" xlink:href="#id53">May</textPath></text><line stroke="#e1ed5e" stroke-width="0.3" x1="143.8653032363475" x2="146.44561519142675" y1="172.8068346515853" y2="177.08958963109032" /><path d="M 144.38136562736335 173.6633856474863 a86.0,86.0 0 0,1 -40.68145358897372,12.25698825130547" fill="none" id="id54" stroke="none" /><text fill="#e1ed5e" style="font-size:6.75px; font-family:Arial;" text-anchor="middle"><textPath startOffset="21.466115282336833" xlink:href="#id54">June</textPath></text><line stroke="#e1ed5e" stroke-width="0.3" x1="102.19456741930631" x2="102.32365962044197" y1="184.97166512339345" y2="189.96999836594603" /><path d="M 102.22038585953345 185.97133177190398 a86.0,86.0 0 0,1 -42.740103519485714,-10.115201625700543" fill="none" id="id55" stroke="none" /><text fill="#e1ed5e" style="font-size:6.75px; font-family:Arial;" text-anchor="middle"><textPath startOffset="22.20632615414155" xlink:href="#id55">July</textPath></text><line stroke="#e1ed5e" stroke-width="0.3" x1="58.666819895761336" x2="56.23545636021788" y1="174.27360380694188" y2="178.64263932499728" /><path d="M 58.180547188652646 175.14741091055294 a86.0,86.0 0 0,1 -31.652253787137756,-30.449443065178592" fill="none" id="id56" stroke="none" /><text fill="#e1ed5e" style="font-size:6.75px; font-family:Arial;" text-anchor="middle"><textPath startOffset="22.20632615414155" xlink:href="#id56">August</textPath></text><line stroke="#e1ed5e" stroke-width="0.3" x1="26.63291911575756" x2="22.317208475507996" y1="142.92168965132927" y2="145.44649492493687" /><path d="M 25.769776987707644 143.4266507060508 a86.0,86.0 0 0,1 -11.730757126820373,-40.83630448921669" fill="none" id="id57" stroke="none" /><text fill="#e1ed5e" style="font-size:6.75px; font-family:Arial;" text-anchor="middle"><textPath startOffset="21.46611528233685" xlink:href="#id57">September</textPath></text><line stroke="#e1ed5e" stroke-width="0.3" x1="15.007084014347285" x2="10.007500721073583" y1="101.09737516637583" y2="101.16192664675087" /><path d="M 14.007167355692545 101.11028546245083 a86.0,86.0 0 0,1 10.666146001902534,-42.60595125391555" fill="none" id="id58" stroke="none" /><text fill="#e1ed5e" style="font-size:6.75px; font-family:Arial;" text-anchor="middle"><textPath startOffset="22.20632615414155" xlink:href="#id58">October</textPath></text><line stroke="#e1ed5e" stroke-width="0.3" x1="26.266209847984243" x2="21.928928074336255" y1="57.711370442889674" y2="55.22380399835377" /><path d="M 25.398753493254645 57.213857153982495 a86.0,86.0 0 0,1 29.58750427330803,-30.492523968695096" fill="none" id="id59" stroke="none" /><text fill="#e1ed5e" style="font-size:6.75px; font-family:Arial;" text-anchor="middle"><textPath startOffset="21.46611528233685" xlink:href="#id59">November</textPath></text><path d="M 87.22198572758235 83.33499621200491 l -14.41530073733494 -18.800342234030268 a44.690794909932244,44.690794909932244 0 0,0 0.6145066153256145,-0.46283364260507 l 14.089547968250935 19.045692466141194" fill="#ffe415" stroke="none" /><path d="M 87.80319425747018 82.90503203632743 l -9.136484539639127 -12.805640575310544 a36.730854404230705,36.730854404230705 0 0,0 0.5178505812180513,-0.36278742579372586 l 8.914702818837416 12.961012843868213" fill="#ff6c0a" stroke="none" /><path d="M 88.39885842347998 82.49532879139004 l -26.46450908217045 -39.931633203947754 a68.90517269872748,68.90517269872748 0 0,0 0.994311401035368,-0.6467277938043916 l 25.773230655350797 40.381259921911685" fill="#37ff7c" stroke="none" /><path d="M 89.00827224532344 82.1063720568725 l -12.101739065196748 -19.700634980275147 a44.12070732110395,44.12070732110395 0 0,0 0.6505449834248793,-0.3919460735159935 l 11.76083201555422 19.90602766324976" fill="#ffdb14" stroke="none" /><line stroke="#e1ed5e" stroke-width="0.3" x1="56.762969772571076" x2="54.21961505331055" y1="26.818313649435495" y2="22.513508569990535" /><path d="M 56.25429882871897 25.957352633546506 a86.0,86.0 0 0,1 42.265352541879196,-11.944610805530505" fill="none" id="id60" stroke="none" /><text fill="#e1ed5e" style="font-size:6.75px; font-family:Arial;" text-anchor="middle"><textPath startOffset="22.20632615414155" xlink:href="#id60">December</textPath></text><path d="M 89.3179101791058 81.91981866633112 l -10.106117281000458 -17.10530767700634 a40.86769129069576,40.86769129069576 0 0,0 0.6087403510632482,-0.35262170280671656 l 9.81018019747189 17.276733537203107" fill="#ffac0f" stroke="none" /><path d="M 89.63071344664047 81.73862282372117 l -13.675714046637017 -24.084335125222392 a48.696215501569995,48.696215501569995 0 0,0 0.7324743538239237,-0.40762118486985993 l 13.259115603741048 24.316171707652433" fill="#e3ff1b" stroke="none" /><path d="M 90.26544431104013 81.39251694778311 l -7.639961157969007 -14.603691458432996 a37.4814080317303,37.4814080317303 0 0,0 0.5742499973626429,-0.2941531526400502 l 7.3874506730176 14.733037136385551" fill="#ff780b" stroke="none" /><path d="M 90.58718382345135 81.22770947309562 l -22.886630189900764 -45.64356331286292 a72.0600892414477,72.0600892414477 0 0,0 1.1135985457448885,-0.5464379700916296 l 22.09756037714545 46.03075644308938" fill="#3cffa4" stroke="none" /><path d="M 91.23893434514133 80.91482961587045 l -9.707007850833056 -21.14581787781621 a44.267393819203434,44.267393819203434 0 0,0 0.6952465738307944,-0.3119368717266845 l 9.341579158535488 21.30977508005942" fill="#ffde14" stroke="none" /><path d="M 91.56875222667455 80.76684994638697 l -3.6313862083689954 -8.283826750905021 a30.04481903817551,30.04481903817551 0 0,0 0.47544673145889005,-0.2035614778582991 l 3.488255719119797 8.345107756726106" fill="#ff0000" stroke="none" /><path d="M 92.23578459929587 80.48803036053334 l -8.676092623989613 -21.80357539451227 a44.46636919517435,44.46636919517435 0 0,0 0.7136150004815975,-0.2768715335126416 l 8.299494458508338 21.94968963191546" fill="#ffe015" stroke="none" /><path d="M 92.57280143429618 80.3572730644239 l -8.38664221890579 -22.180169488538485 a44.712774747975544,44.712774747975544 0 0,0 0.7222554027744406,-0.26601276020590725 l 8.003604490358779 22.321245516550714" fill="#ffe415" stroke="none" /><path d="M 92.91201910852362 80.23233633223022 l -19.243948164212437 -53.66943009222908 a78.01523715088415,78.01523715088415 0 0,0 1.2680002093746336,-0.4423803752140479 l 18.31726595077452 53.99273132061534" fill="#44ffeb" stroke="none" /><path d="M 94.28887869178378 79.79150937346287 l -6.207828096152753 -21.966060449771668 a43.82640885803999,43.82640885803999 0 0,0 0.7277314893591758,-0.19891650625813598 l 5.828798717569856 22.069663496856098" fill="#ffd714" stroke="none" /><path d="M 94.63758080256005 79.69619591428918 l -3.108743852256846 -11.770681068539826 a33.17428524210874,33.17428524210874 0 0,0 0.5533646306923378,-0.1410649655409433 l 2.9056703328795086 11.822449030249633" fill="#ff3404" stroke="none" /><path d="M 95.692805502759 79.44645832069477 l -5.180164804862285 -24.71927684960764 a46.256222112047595,46.256222112047595 0 0,0 0.7807028041742222,-0.1566016380466874 l 4.753895591220926 24.804782443731536" fill="#fffa17" stroke="none" /><path d="M 96.40284397218896 79.31037775812273 l -4.443962978135922 -25.560168801037655 a46.94361262601223,46.94361262601223 0 0,0 0.7973055039061149,-0.13156223972168238 l 4.003328268090921 25.632877303698965" fill="#fbff18" stroke="none" /><path d="M 96.75951476605007 79.25152402106235 l -3.7771922743506154 -24.184953028366056 a45.478135845314824,45.478135845314824 0 0,0 0.7744948614554454,-0.114140409958326 l 3.3603284324665212 24.24638792248535" fill="#ffef16" stroke="none" /><path d="M 97.47563105711357 79.15227682838746 l -3.339932154269685 -27.58312375867105 a48.78459758717567,48.78459758717567 0 0,0 0.8345262766282369,-0.09376875080604224 l 2.8646391741317303 27.63652846294769" fill="#e1ff1b" stroke="none" /><path d="M 97.83486435360386 79.11191278185805 l -6.495406939188433 -62.66426165442583 a84.0,84.0 0 0,0 1.4394994916390547,-0.13669782193927782 l 5.415782320459142 62.766785020880285" fill="#4dd2ff" stroke="none" /><path d="M 98.55514903715128 79.0497635885617 l -1.8888682372026968 -27.388455374962216 a48.45351181622872,48.45351181622872 0 0,0 0.8325650442996709,-0.05022259710866622 l 1.417141144063403 27.41691124145119" fill="#e6ff1a" stroke="none" /><path d="M 98.91598698831166 79.02799685794201 l -1.3863160729107828 -26.82054986746726 a47.85635432159974,47.85635432159974 0 0,0 0.8230362424605016,-0.03544167190307926 l 0.9244389980609571 26.84043926589453" fill="#eeff19" stroke="none" /><path d="M 99.27714615592234 79.0124445844662 l -0.7940202843429404 -23.053823197092886 a44.06749297636755,44.06749297636755 0 0,0 0.7583246769236179,-0.01958528912921642 l 0.39706897222444343 23.064075278364463" fill="#ffdb14" stroke="none" /></svg>