<?xml version="1.0" encoding="utf-8" ?>
<svg baseProfile="full" height="200mm" version="1.1" viewBox="0,0,200,200" width="200mm" xmlns="http://www.w3.org/2000/svg" xmlns:ev="http://www.w3.org/2001/xml-events" xmlns:xlink="http://www.w3.org/1999/xlink"><defs /><rect fill="#1a1a1a" height="200" width="200" x="0" y="0" /><text alignment-baseline="middle" fill="#e1ed5e" style="dominant-baseline: central; font-size:9.0px; font-family:Arial;" text-anchor="middle" x="100.0" y="100.0">2018</text><line stroke="#e1ed5e" stroke-width="0.3" x1="100.0" x2="100.0" y1="15.0" y2="10.0" /><path d="M 100.0 14.0 a86.0,86.0 0 0,1 42.46469731375804,11.215312516191453" fill="none" id="id13" stroke="none" /><text fill="#e1ed5e" style="font-size:6.75px; font-family:Arial;" text-anchor="middle"><textPath startOffset="22.20632615414155" xlink:href="#id13">January</textPath></text><path d="M 103.2404852339499 79.25152402106235 l 2.3085694258780904 -14.781519994817517 a35.96070941336971,35.96070941336971 0 0,0 0.6107683225845619,0.10078200649138215 l -2.5626669546015273 14.73959172538651" fill="#ff6709" stroke="none" /><path d="M 103.59715602781102 79.31037775812273 l 2.4615736201228002 -14.158137130321476 a35.37053206002729,35.37053206002729 0 0,0 0.5989492271300936,0.10945414287091161 l -2.7049179683557947 14.113667506099826" fill="#ff5d08" stroke="none" /><line stroke="#e1ed5e" stroke-width="0.3" x1="143.23703022742887" x2="145.7803849466894" y1="26.81831364943548" y2="22.513508569990506" /><path d="M 143.74570117128098 25.957352633546492 a86.0,86.0 0 0,1 28.547481713284135,27.462654790039103" fill="none" id="id14" stroke="none" /><text fill="#e1ed5e" style="font-size:6.75px; font-family:Arial;" text-anchor="middle"><textPath startOffset="19.985693538727396" xlink:href="#id14">February</textPath></text><line stroke="#e1ed5e" stroke-width="0.3" x1="172.23445277983987" x2="176.4835382374775" y1="55.19839476539836" y2="52.563006222186495" /><path d="M 173.08426987136738 54.67131705675599 a86.0,86.0 0 0,1 12.851231095245387,41.99856678651699" fill="none" id="id15" stroke="none" /><text fill="#e1ed5e" style="font-size:6.75px; font-family:Arial;" text-anchor="middle"><textPath startOffset="22.20632615414155" xlink:href="#id15">March</textPath></text><path d="M 118.56541770881063 90.18545643968196 l 7.656651805420814 -4.047662371465411 a29.660709413369716,29.660709413369716 0 0,0 0.23473000525147553,0.45342365708576404 l -7.7251912438324055 3.915265992119302" fill="#ff0100" stroke="none" /><path d="M 119.47837535516314 92.15188598940014 l 13.313323401005087 -5.364127038622818 a35.353342428376536,35.353342428376536 0 0,0 0.22256856677487266,0.5664127257279701 l -13.40368551766166 5.134165307999063" fill="#ff5d08" stroke="none" /><path d="M 119.85752413597 93.16781622104841 l 14.664226213916178 -5.045376643310357 a36.50791268758527,36.50791268758527 0 0,0 0.19933790797630752,0.5959949726413305 l -14.748901415664257 4.792208567746713" fill="#ff6f0a" stroke="none" /><path d="M 120.91429891909075 98.10471618934814 l 14.309032616540266 -1.2967050900981036 a35.367667121418826,35.367667121418826 0 0,0 0.04972612513619882,0.6067846783178846 l -14.32923322549596 1.0502064945724503" fill="#ff5d08" stroke="none" /><path d="M 120.96714384426684 98.82574320788733 l 8.581368558362968 -0.4805962314240117 a29.59481582537517,29.59481582537517 0 0,0 0.024107643512685052,0.5088742521943264 l -8.58836981010915 0.33281087260668557" fill="#ff0000" stroke="none" /><line stroke="#e1ed5e" stroke-width="0.3" x1="184.98032266829074" x2="189.97916517819016" y1="98.17113171792111" y2="98.06355123074" /><path d="M 185.9800911702706 98.14961562048488 a86.0,86.0 0 0,1 -9.607161424134198,41.387399972396054" fill="none" id="id16" stroke="none" /><text fill="#e1ed5e" style="font-size:6.75px; font-family:Arial;" text-anchor="middle"><textPath startOffset="21.466115282336823" xlink:href="#id16">April</textPath></text><path d="M 120.99980553446 99.90962569577887 l 18.46722325717996 -0.07947513847331573 a39.46739427012278,39.46739427012278 0 0,0 -0.0029237872496325357,0.6793851880308376 l -18.465855172640822 -0.23841952776120653" fill="#ff9c0e" stroke="none" /><path d="M 120.99824983174949 100.27111621757518 l 22.920463424805963 0.29593463258104463 a43.92237380627558,43.92237380627558 0 0,0 -0.01626787953289914,0.7559044384886425 l -22.911973482588056 -0.690428886859802" fill="#ffdd14" stroke="none" /><path d="M 120.95626037817324 101.35467743843564 l 14.417792781327098 0.9320106851338249 a35.44788540245566,35.44788540245566 0 0,0 -0.044602624781193714,0.6085673781890125 l -14.399613597881565 -1.1800511998196077" fill="#ff5f08" stroke="none" /><path d="M 120.92983693683757 101.71520430193887 l 28.662169600542374 2.3488705024368874 a49.758253751705325,49.758253751705325 0 0,0 -0.07730395796176748,0.8530427344731825 l -28.61749104630353 -2.841894625458641" fill="#d0ff1d" stroke="none" /><path d="M 120.81339534386255 102.79330883721812 l 28.516907153944278 3.8271760780602335 a49.77257844474761,49.77257844474761 0 0,0 -0.12126958140362684,0.8481591698887242 l -28.44680352152405 -4.317480719929367" fill="#d0ff1d" stroke="none" /><path d="M 120.49622156327973 104.57218783832717 l 61.488664689839204 13.716563514981502 a84.0,84.0 0 0,0 -0.3269577362777887,1.4085253706057403 l -61.24344638763086 -14.772957542935806" fill="#4dd2ff" stroke="none" /><path d="M 120.23288151984713 105.62410040840565 l 13.842824123060481 3.8478667869241985 a35.367667121418826,35.367667121418826 0 0,0 -0.168093028327572,0.5851538833418739 l -13.774538457846809 -4.085578145770654" fill="#ff5d08" stroke="none" /><path d="M 120.13307415673323 105.97154293290107 l 16.768406238316008 4.973570205369859 a38.49045020463847,38.49045020463847 0 0,0 -0.19386948313507602,0.6335766880986511 l -16.680309982674796 -5.261473866020567" fill="#ff8e0d" stroke="none" /><line stroke="#e1ed5e" stroke-width="0.3" x1="174.80103733775053" x2="179.2010983576182" y1="140.37084112569926" y2="142.7455964860345" /><path d="M 175.68104954172406 140.8457921977663 a86.0,86.0 0 0,1 -30.038265399797805,32.042727171017184" fill="none" id="id17" stroke="none" /><text fill="#e1ed5e" style="font-size:6.75px; font-family:Arial;" text-anchor="middle"><textPath startOffset="22.206326154141568" xlink:href="#id17">May</textPath></text><path d="M 117.35343817320211 111.8261652097733 l 7.140241409328449 4.865991033107264 a29.640654843110504,29.640654843110504 0 0,0 -0.2909570333561444,0.41914530715049053 l -7.055423468810169 -4.9881776024447735" fill="#ff0100" stroke="none" /><path d="M 117.14729908036423 112.12312394758627 l 23.791000224734557 16.820214262885727 a50.13642564802183,50.13642564802183 0 0,0 -0.5042774397581106,0.7003972584727427 l -23.49794299260084 -17.227245126809603" fill="#cbff1d" stroke="none" /><path d="M 116.71984013943494 112.70617746262583 l 27.554661512192904 20.940057810166437 a55.608458390177354,55.608458390177354 0 0,0 -0.5857243762342826,0.7571277127232968 l -27.190130318740554 -21.411263517002986" fill="#86ff25" stroke="none" /><path d="M 115.32070863581623 114.36230785411682 l 10.762118521939673 10.088884466691338 a35.75156889495225,35.75156889495225 0 0,0 -0.4247515341530562,0.4453502854252242 l -10.586860436407651 -10.27264186869907" fill="#ff6309" stroke="none" /><path d="M 112.34349029814194 116.9893568818739 l 8.778528639046918 12.082608107122592 a35.934924965893586,35.934924965893586 0 0,0 -0.5035555425363493,0.3592735093707991 l -8.569245768661686 -12.231925878337611" fill="#ff6609" stroke="none" /><path d="M 111.7513745106137 117.40417183066458 l 5.707352422617298 8.452776496202716 a31.19918144611187,31.19918144611187 0 0,0 -0.44767155944362763,0.29669229881521725 l -5.561006164433706 -8.549766816109251" fill="#ff1b02" stroke="none" /><line stroke="#e1ed5e" stroke-width="0.3" x1="143.8653032363475" x2="146.44561519142675" y1="172.8068346515853" y2="177.08958963109032" /><path d="M 144.38136562736335 173.6633856474863 a86.0,86.0 0 0,1 -40.68145358897372,12.25698825130547" fill="none" id="id18" stroke="none" /><text fill="#e1ed5e" style="font-size:6.75px; font-family:Arial;" text-anchor="middle"><textPath startOffset="21.466115282336833" xlink:href="#id18">June</textPath></text><path d="M 107.93186726928326 119.44442032107085 l 3.273383150011169 8.024470869200451 a29.66643929058663,29.66643929058663 0 0,0 -0.47449198602816844,0.1888101536391755 l -3.1347700879411344 -8.079627867245696" fill="#ff0100" stroke="none" /><line stroke="#e1ed5e" stroke-width="0.3" x1="102.19456741930631" x2="102.32365962044197" y1="184.97166512339345" y2="189.96999836594603" /><path d="M 102.22038585953345 185.97133177190398 a86.0,86.0 0 0,1 -42.740103519485714,-10.115201625700543" fill="none" id="id19" stroke="none" /><text fill="#e1ed5e" style="font-size:6.75px; font-family:Arial;" text-anchor="middle"><textPath startOffset="22.20632615414155" xlink:href="#id19">July</textPath></text><path d="M 100.18074693466247 120.99922214144158 l 0.07459201601008862 8.666118278016476 a29.66643929058663,29.66643929058663 0 0,0 -0.5106779013450822,0.0 l 0.07459201601008265 -8.666118278016476" fill="#ff0100" stroke="none" /><line stroke="#e1ed5e" stroke-width="0.3" x1="58.666819895761336" x2="56.23545636021788" y1="174.27360380694188" y2="178.64263932499728" /><path d="M 58.180547188652646 175.14741091055294 a86.0,86.0 0 0,1 -31.652253787137756,-30.449443065178592" fill="none" id="id20" stroke="none" /><text fill="#e1ed5e" style="font-size:6.75px; font-family:Arial;" text-anchor="middle"><textPath startOffset="22.20632615414155" xlink:href="#id20">August</textPath></text><line stroke="#e1ed5e" stroke-width="0.3" x1="26.63291911575756" x2="22.317208475507996" y1="142.92168965132927" y2="145.44649492493687" /><path d="M 25.769776987707644 143.4266507060508 a86.0,86.0 0 0,1 -11.730757126820373,-40.83630448921669" fill="none" id="id21" stroke="none" /><text fill="#e1ed5e" style="font-size:6.75px; font-family:Arial;" text-anchor="middle"><textPath startOffset="21.46611528233685" xlink:href="#id21">September</textPath></text><path d="M 80.0844068197444 106.66101706037122 l -13.614875501536263 4.553663913986385 a35.35620736698499,35.35620736698499 0 0,0 -0.188074397027076,-0.5788334754943967 l 13.691242149579589 -4.318631538514184" fill="#ff5d08" stroke="none" /><path d="M 79.97269907076064 106.31721596034903 l -19.24314876461566 6.069870669677791 a41.177762619372444,41.177762619372444 0 0,0 -0.20740499301083062,-0.6778115175319805 l 19.34478053013262 -5.737732179593763" fill="#ffb610" stroke="none" /><path d="M 79.67330655649465 105.27499134158121 l -19.625103615237023 5.09292138122377 a41.27517053206003,41.27517053206003 0 0,0 -0.17254728444079923,-0.6892406299865997 l 19.709862213972883 -4.754352911839779" fill="#ffb711" stroke="none" /><path d="M 79.4281124754447 104.21870165774334 l -19.856221587480036 4.071939185338899 a41.26944065484311,41.26944065484311 0 0,0 -0.13671989297210432,-0.6971317887566317 l 19.92337141342781 -3.729543669514313" fill="#ffb711" stroke="none" /><path d="M 79.35854240842038 103.8639653848113 l -29.66399921824008 5.552934701719262 a51.17926330150068,51.17926330150068 0 0,0 -0.15464315880664842,-0.8673209600138978 l 29.755188819385914 -5.041494990972151" fill="#beff1f" stroke="none" /><path d="M 79.10278846688536 102.07522291339032 l -20.047638676788836 1.9908550514271062 a41.146248294679395,41.146248294679395 0 0,0 -0.06392442677607693,-0.7054007227374478 l 20.078937699841987 -1.6454729401410921" fill="#ffb510" stroke="none" /><path d="M 79.07016306316243 101.71520430193888 l -14.38533676504607 1.1788812105277053 a35.43356070941337,35.43356070941337 0 0,0 -0.044584600605661724,-0.6083214526341152 l 14.403497924316067 -0.9310866213968295" fill="#ff5e08" stroke="none" /><line stroke="#e1ed5e" stroke-width="0.3" x1="15.007084014347285" x2="10.007500721073583" y1="101.09737516637583" y2="101.16192664675087" /><path d="M 14.007167355692545 101.11028546245083 a86.0,86.0 0 0,1 10.666146001902534,-42.60595125391555" fill="none" id="id22" stroke="none" /><text fill="#e1ed5e" style="font-size:6.75px; font-family:Arial;" text-anchor="middle"><textPath startOffset="22.20632615414155" xlink:href="#id22">October</textPath></text><path d="M 79.03285615573316 98.82574320788736 l -40.07499116755506 -2.2443844007500893 a61.13778990450205,61.13778990450205 0 0,0 0.06789033942234964,-1.0502335018882305 l 40.030420237128304 2.9338769668913316" fill="#45ff2d" stroke="none" /><path d="M 79.08570108090925 98.10471618934814 l -14.283353395493634 -1.2943780021996156 a35.3418826739427,35.3418826739427 0 0,0 0.06011969680546071,-0.605397142323349 l 14.258956573005944 1.5400506752273948" fill="#ff5d08" stroke="none" /><path d="M 79.12142395522702 97.74499172005258 l -20.049699424168768 -2.1654847588744772 a41.16630286493861,41.16630286493861 0 0,0 0.08215548672461541,-0.7038580387462566 l 20.009453584440564 2.5102865359455957" fill="#ffb510" stroke="none" /><path d="M 79.32604984820605 96.31383870115002 l -19.805249381432063 -3.5312721201261366 a41.117598908594815,41.117598908594815 0 0,0 0.13023368218904038,-0.6957135378249872 l 19.74152997533316 3.8716637354136965" fill="#ffb510" stroke="none" /><path d="M 79.3925641242962 95.95851677861259 l -14.068159498229443 -2.7590152851054026 a35.336152796725784,35.336152796725784 0 0,0 0.12219696646445524,-0.5958758058500128 l 14.018583235849993 3.000766747118818" fill="#ff5d08" stroke="none" /><path d="M 79.81627453868168 94.20196356495316 l -13.809192795158438 -3.966869402695761 a35.367667121418826,35.367667121418826 0 0,0 0.17312321966657268,-0.5836854325530659 l 13.738863678380158 4.203984221995366" fill="#ff5d08" stroke="none" /><path d="M 79.91906864156998 93.8553929516997 l -38.381152569113866 -11.744330797638103 a61.13778990450205,61.13778990450205 0 0,0 0.3165904469831555,-1.0036782330778056 l 38.173306638362504 12.403259197142324" fill="#45ff2d" stroke="none" /><path d="M 80.38941819471856 92.48833698450439 l -18.775861270049813 -7.191930565177114 a41.106139154160985,41.106139154160985 0 0,0 0.2587855588400404,-0.6585810201576517 l 18.64928216132808 7.514060590230529" fill="#ffb510" stroke="none" /><path d="M 81.43458229118936 90.18545643968196 l -12.790635665688095 -6.761725099536989 a35.46793997271487,35.46793997271487 0 0,0 0.28997895384383615,-0.5372869613020448 l 12.672348612625788 6.9808930441715065" fill="#ff5f08" stroke="none" /><line stroke="#e1ed5e" stroke-width="0.3" x1="26.266209847984243" x2="21.928928074336255" y1="57.711370442889674" y2="55.22380399835377" /><path d="M 25.398753493254645 57.213857153982495 a86.0,86.0 0 0,1 29.58750427330803,-30.492523968695096" fill="none" id="id23" stroke="none" /><text fill="#e1ed5e" style="font-size:6.75px; font-family:Arial;" text-anchor="middle"><textPath startOffset="21.46611528233685" xlink:href="#id23">November</textPath></text><path d="M 84.5562425177563 85.77008943001954 l -10.568333905993782 -9.737685050344068 a35.37053206002729,35.37053206002729 0 0,0 0.4164167316443005,-0.44420433550117233 l 10.399149852379024 9.918158802723289" fill="#ff5d08" stroke="none" /><path d="M 85.57189188830299 84.74124197986013 l -42.294237243660824 -44.72918602711397 a82.55893587994544,82.55893587994544 0 0,0 1.0409978734902634,-0.9674940713624579 l 41.518031486375705 45.450584684551075" fill="#4be1ff" stroke="none" /><path d="M 86.65592168130627 83.78471172551755 l -19.16959682071555 -23.29426814874491 a51.16780354706685,51.16780354706685 0 0,0 0.6849093180952281,-0.5538157029826085 l 18.76578410405582 23.620789948991654" fill="#beff1f" stroke="none" /><path d="M 86.93701828274178 83.55741782278169 l -31.244228576667293 -39.32760582960319 a71.22810368349249,71.22810368349249 0 0,0 0.9665567003583028,-0.754412835897997 l 30.562639321149565 39.859597054724404" fill="#3bff9b" stroke="none" /><path d="M 87.22198572758235 83.33499621200491 l -8.721474134366376 -11.374490307140446 a35.33328785811733,35.33328785811733 0 0,0 0.48583917949492184,-0.365923997493083 l 8.524388801113066 11.522930894139384" fill="#ff5d08" stroke="none" /><line stroke="#e1ed5e" stroke-width="0.3" x1="56.76296977257108" x2="54.21961505331056" y1="26.818313649435495" y2="22.513508569990535" /><path d="M 56.25429882871898 25.957352633546506 a86.0,86.0 0 0,1 42.26535254187918,-11.944610805530505" fill="none" id="id24" stroke="none" /><text fill="#e1ed5e" style="font-size:6.75px; font-family:Arial;" text-anchor="middle"><textPath startOffset="22.20632615414155" xlink:href="#id24">December</textPath></text><path d="M 92.57280143429618 80.3572730644239 l -10.659499169332078 -28.191198821590813 a51.139154160982265,51.139154160982265 0 0,0 0.8260621398307852,-0.30424565752484933 l 10.172654703728725 28.370507746921987" fill="#beff1e" stroke="none" /><path d="M 94.28887869178378 79.79150937346287 l -16.44226370631474 -58.18005152685031 a81.4587994542974,81.4587994542974 0 0,0 1.3526121576673804,-0.36971999791076765 l 15.438353659423637 58.454458065587374" fill="#49edff" stroke="none" /><path d="M 98.19473922651362 79.07773832637324 l -1.2336359091941718 -14.297354532496103 a35.350477489768075,35.350477489768075 0 0,0 0.6066980427637324,-0.047091444728044336 l 0.9873476770681052 14.31647123941261" fill="#ff5d08" stroke="none" /><path d="M 99.63851952072746 79.00311137660856 l -0.3501379812871815 -20.338050371907123 a41.34106412005457,41.34106412005457 0 0,0 0.7116184605597122,-0.006125124756003339 l 4.98212381317518e-15 20.34106412005457" fill="#ffb811" stroke="none" /></svg>