<?xml version="1.0" encoding="utf-8" ?>
<svg baseProfile="full" height="200mm" version="1.1" viewBox="0,0,200,200" width="200mm" xmlns="http://www.w3.org/2000/svg" xmlns:ev="http://www.w3.org/2001/xml-events" xmlns:xlink="http://www.w3.org/1999/xlink"><defs /><rect fill="#1a1a1a" height="200" width="200" x="0" y="0" /><text alignment-baseline="middle" fill="#e1ed5e" style="dominant-baseline: central; font-size:9.0px; font-family:Arial;" text-anchor="middle" x="100.0" y="100.0">2022</text><line stroke="#e1ed5e" stroke-width="0.3" x1="100.0" x2="100.0" y1="15.0" y2="10.0" /><path d="M 100.0 14.0 a86.0,86.0 0 0,1 42.46469731375804,11.215312516191453" fill="none" id="id13" stroke="none" /><text fill="#e1ed5e" style="font-size:6.75px; font-family:Arial;" text-anchor="middle"><textPath startOffset="22.20632615414155" xlink:href="#id13">January</textPath></text><path d="M 100.0 79.0 l 0.0 -16.895522388059703 a37.8955223880597,37.8955223880597 0 0,0 0.6523091235770786,0.0056146305679679945 l -0.29082864430455024 16.893019134100292" fill="#ffc512" stroke="none" /><path d="M 101.08401301168833 79.027996857942 l 0.9938712047462293 -19.228062582270656 a40.25373134328358,40.25373134328358 0 0,0 0.6916701878319593,0.04172343459937448 l -1.3247034414178005 19.20810587829098" fill="#ffe415" stroke="none" /><path d="M 101.44485096284872 79.0497635885617 l 1.2363898786566137 -17.927565486404912 a38.97014925373134,38.97014925373134 0 0,0 0.668820195859934,0.05191331942140663 l -1.544800263878889 17.90362690479504" fill="#ffd313" stroke="none" /><path d="M 101.80526077348638 79.07773832637324 l 1.6371803461042043 -18.974275689799395 a40.04477611940298,40.04477611940298 0 0,0 0.6862432722223701,0.06516706756629484 l -1.9635487454168186 18.943283077717922" fill="#ffe115" stroke="none" /><path d="M 102.52436894288641 79.15227682838746 l 2.249864004534153 -18.58069996958218 a39.71641791044776,39.71641791044776 0 0,0 0.6779881360629861,0.08802231845076917 l -2.5693668691049854 18.539219327967274" fill="#ffdd14" stroke="none" /><path d="M 102.88285421437855 79.19881850522331 l 1.4404026387406734 -10.393198714163471 a31.492537313432834,31.492537313432834 0 0,0 0.5363194394424564,0.07903954400878145 l -1.6190910586117857 10.36686468599372" fill="#ff6e0a" stroke="none" /><path d="M 103.59715602781102 79.31037775812273 l 3.2673528099093794 -18.79270591692904 a40.07462686567165,40.07462686567165 0 0,0 0.6786063254006477,0.12401096842449685 l -3.590354256412928 18.733679467153806" fill="#ffe215" stroke="none" /><path d="M 103.95276090670814 79.375362276772 l 3.5706887792651254 -18.631069329227294 a39.97014925373134,39.97014925373134 0 0,0 0.6746077863873762,0.13531997556875344 l -3.8908629751196266 18.566845397581332" fill="#ffe015" stroke="none" /><path d="M 104.307194497241 79.44645832069477 l 3.924536848232385 -18.727534067426646 a40.134328358208954,40.134328358208954 0 0,0 0.6749395271863279,0.14751563867818343 l -4.246319099572241 18.657204930652593" fill="#ffe215" stroke="none" /><path d="M 105.01212808612495 79.60689891045804 l 4.602465875816232 -18.726287567653316 a40.28358208955224,40.28358208955224 0 0,0 0.6719514637093941,0.1712953897229749 l -4.924126228210651 18.644289181761472" fill="#ffe415" stroke="none" /><path d="M 105.36241919743992 79.69619591428918 l 9.932099807056467 -37.60605077993065 a59.8955223880597,59.8955223880597 0 0,0 0.9945569087030905,0.2718499727534355 l -10.577954604983269 37.429514266350914" fill="#39ff2e" stroke="none" /><path d="M 106.74666289553966 80.11325718540242 l 2.498231249876446 -7.363889841084108 a28.776119402985074,28.776119402985074 0 0,0 0.4677051145458482,0.16317313083438806 l -2.6246183684855673 7.319795857077512" fill="#ff4806" stroke="none" /><path d="M 108.43124777332544 80.76684994638697 l 5.992358047850344 -13.669616242795334 a35.92537313432836,35.92537313432836 0 0,0 0.5642300219264108,0.2531535639280095 l -6.226770188243536 13.564442348350791" fill="#ffab0f" stroke="none" /><path d="M 109.41281617654863 81.2277094730956 l 8.389247679738432 -16.730954030375347 a39.71641791044776,39.71641791044776 0 0,0 0.6084924253918418,0.3116934542597271 l -8.676000592719028 16.58406805080312" fill="#ffdd14" stroke="none" /><line stroke="#e1ed5e" stroke-width="0.3" x1="143.23703022742887" x2="145.7803849466894" y1="26.81831364943548" y2="22.513508569990506" /><path d="M 143.74570117128098 25.957352633546492 a86.0,86.0 0 0,1 28.547481713284135,27.462654790039103" fill="none" id="id14" stroke="none" /><text fill="#e1ed5e" style="font-size:6.75px; font-family:Arial;" text-anchor="middle"><textPath startOffset="19.985693538727396" xlink:href="#id14">February</textPath></text><path d="M 112.19680574252982 82.90503203632743 l 8.746678744998286 -12.259291169399878 a36.059701492537314,36.059701492537314 0 0,0 0.5021823139227054,0.36485680787698194 l -8.95640637527478 12.106915126706221" fill="#ffad10" stroke="none" /><path d="M 113.34407831869373 83.78471172551755 l 11.968889010797074 -14.544203128924558 a39.83582089552239,39.83582089552239 0 0,0 0.5257236914400254,0.4402784725770406 l -12.217470239196217 14.336023498953697" fill="#ffdf14" stroke="none" /><path d="M 113.89432698308785 84.25364557470407 l 9.924519273634175 -11.247396018068528 a36.0,36.0 0 0,0 0.4611240212640171,0.41400169925263297 l -10.116654282494181 11.074895310046598" fill="#ffac0f" stroke="none" /><path d="M 114.16331599549186 84.49514656593476 l 10.106587959825031 -11.063875513718191 a35.98507462686567,35.98507462686567 0 0,0 0.45374114582133923,0.4217029445444504 l -10.295536989441217 10.8882679830991" fill="#ffac0f" stroke="none" /><path d="M 114.42810811169701 84.74124197986012 l 10.370394977511857 -10.967435668633588 a36.09402985074627,36.09402985074627 0 0,0 0.4477666467463319,0.430751159404922 l -10.557644867870607 10.787301422466363" fill="#ffad10" stroke="none" /><path d="M 114.94478906791727 85.2469230424477 l 13.09660619811087 -12.928602621650311 a39.40298507462687,39.40298507462687 0 0,0 0.4723399742884095,0.4867878633601267 l -13.317210436102389 12.70125056274007" fill="#ffd914" stroke="none" /><path d="M 115.68641384162765 86.03803664274999 l 11.32721852387612 -10.08198633330918 a36.16417910447761,36.16417910447761 0 0,0 0.4098747082806495,0.4685576455723223 l -11.499085095734618 9.88551313153391" fill="#ffae10" stroke="none" /><path d="M 116.38621287248628 86.86637796730983 l 8.979225390680119 -7.196888832412313 a32.507462686567166,32.507462686567166 0 0,0 0.3461981609568915,0.43963650744156535 l -9.101777632230975 7.041259931017709" fill="#ff7d0b" stroke="none" /><path d="M 116.60985879189232 87.15038557335679 l 14.201606344453777 -10.986557324272768 a38.95522388059702,38.95522388059702 0 0,0 0.40573546269727345,0.533900309133264 l -14.388617747375164 10.74047223925847" fill="#ffd313" stroke="none" /><path d="M 116.82858285166822 87.43820079747576 l 14.400578360631501 -10.74940031260781 a38.97014925373134,38.97014925373134 0 0,0 0.3966370424498376,0.5410124801519047 l -14.583478015594965 10.499925388784412" fill="#ffd313" stroke="none" /><path d="M 117.2510076193507 88.02491185347247 l 14.835621335760019 -10.29840558443377 a39.059701492537314,39.059701492537314 0 0,0 0.3786476001030027,0.5556186304913621 l -15.010693401531755 10.041508930672" fill="#ffd513" stroke="none" /><path d="M 117.45458315368197 88.32363383020206 l 15.568942329687895 -10.414953477680465 a39.73134328358209,39.73134328358209 0 0,0 0.37537296139104753,0.5717187730571656 l -15.745911926436868 10.145416640645625" fill="#ffdd14" stroke="none" /><line stroke="#e1ed5e" stroke-width="0.3" x1="172.23445277983987" x2="176.4835382374775" y1="55.19839476539836" y2="52.563006222186495" /><path d="M 173.08426987136738 54.67131705675599 a86.0,86.0 0 0,1 12.851231095245387,41.99856678651699" fill="none" id="id15" stroke="none" /><text fill="#e1ed5e" style="font-size:6.75px; font-family:Arial;" text-anchor="middle"><textPath startOffset="22.20632615414155" xlink:href="#id15">March</textPath></text><path d="M 117.84615892207809 88.93136811851018 l 15.74064194903973 -9.762737857092297 a39.52238805970149,39.52238805970149 0 0,0 0.35360153954376616,0.581227957745308 l -15.906359286869721 9.490342126139907" fill="#ffdb14" stroke="none" /><path d="M 118.03404312379186 89.2402003453031 l 16.40623681482131 -9.788588172005706 a40.1044776119403,40.1044776119403 0 0,0 0.3486040189752882,0.5958772700817934 l -16.572300508266924 9.504731489570018" fill="#ffe215" stroke="none" /><path d="M 118.21658344932153 89.55222093294921 l 16.649983166899425 -9.549284918427379 a40.19402985074627,40.19402985074627 0 0,0 0.33905072636778816,0.6031334099115849 l -16.811891534559646 9.261267998581" fill="#ffe315" stroke="none" /><path d="M 118.56541770881063 90.18545643968196 l 15.847239991671334 -8.377588355324784 a38.92537313432835,38.92537313432835 0 0,0 0.3080490393165718,0.595052693919702 l -15.989098464148022 8.103562939144737" fill="#ffd313" stroke="none" /><path d="M 118.73160827565052 90.50648371742162 l 28.09075583626339 -14.236900750703912 a52.492537313432834,52.492537313432834 0 0,0 0.40154288162250434,0.8094859468722057 l -28.331658730839305 13.751255215332757" fill="#88ff25" stroke="none" /><path d="M 119.04729006885535 91.15688171328212 l 16.27209855207117 -7.554675323834323 a38.940298507462686,38.940298507462686 0 0,0 0.27702811303669345,0.610394725608428 l -16.39972898207121 7.273458589383833" fill="#ffd313" stroke="none" /><path d="M 119.196687751892 91.48605970444005 l 17.040982943932566 -7.557861712263234 a39.64179104477612,39.64179104477612 0 0,0 0.2712806500766453,0.6261531428414947 l -17.16855430385189 7.263409424835137" fill="#ffdc14" stroke="none" /><path d="M 119.34039704204932 91.81776055985345 l 16.618720699244943 -7.0307942310854115 a39.04477611940298,39.04477611940298 0 0,0 0.256539635469586,0.6212310758309588 l -16.737282021600723 6.743688584801149" fill="#ffd413" stroke="none" /><path d="M 119.61058180528143 92.48833698450437 l 12.404703487349305 -4.751513918828085 a34.28358208955224,34.28358208955224 0 0,0 0.20634702218320314,0.5529074301660423 l -12.484655098034134 4.537283351632709" fill="#ff950d" stroke="none" /><path d="M 119.7369772167798 92.82701384747503 l 29.61247967634838 -10.762028264378257 a52.507462686567166,52.507462686567166 0 0,0 0.3014101362552168,0.8521270435189553 l -29.793342893413406 10.250703594432688" fill="#87ff25" stroke="none" /><path d="M 119.97218684219823 93.5106431181261 l 17.04804292642506 -5.539244929019579 a38.92537313432835,38.92537313432835 0 0,0 0.20156766050640956,0.6390245671356779 l -17.140866070699676 5.244970195457482" fill="#ffd313" stroke="none" /><path d="M 120.08093135843002 93.85539295169968 l 17.140866070699676 -5.244970195457482 a38.92537313432835,38.92537313432835 0 0,0 0.19053803861597754,0.6423995446802061 l -17.228610006427356 4.949141264030746" fill="#ffd313" stroke="none" /><path d="M 120.37134235888165 94.90015583598534 l 18.431214515178635 -4.614144719822777 a40.0,40.0 0 0,0 0.1614613328365344,0.6693614635058931 l -18.50790864827599 4.296198024657477" fill="#ffe115" stroke="none" /><path d="M 120.6074358757038 95.95851677861258 l 17.985736499903524 -3.527321532241481 a39.32835820895522,39.32835820895522 0 0,0 0.12456653695630474,0.6654394213831891 l -18.04378876076969 3.2172040333957286" fill="#ffd814" stroke="none" /><path d="M 120.67395015179393 96.31383870115 l 19.366216275809816 -3.452992602618543 a40.67164179104478,40.67164179104478 0 0,0 0.11695641603226174,0.6902833879455166 l -19.422784553362302 3.1191234263571888" fill="#ffe915" stroke="none" /><path d="M 120.73433829027371 96.67025291283417 l 19.20173617073678 -3.0836250565579792 a40.44776119402985,40.44776119402985 0 0,0 0.10447869849289076,0.6883840834523507 l -19.25197076266897 2.7526418607135468" fill="#ffe615" stroke="none" /><path d="M 120.83666639777658 97.38593545837742 l 22.984012970397476 -2.883459963467121 a44.16417910447761,44.16417910447761 0 0,0 0.08813834076928245,0.7551154785335897 l -23.030241664170347 2.4874007466086785" fill="#e9ff1a" stroke="none" /><path d="M 120.87857604477298 97.74499172005257 l 44.79916210317673 -4.838571426553866 a66.05970149253731,66.05970149253731 0 0,0 0.11237344828035244,1.13158528862983 l -44.87581267713931 4.066710607219601" fill="#36ff6f" stroke="none" /><path d="M 120.94382443527127 98.46500227214037 l 21.25641882982755 -1.557908141708284 a42.31343283582089,42.31343283582089 0 0,0 0.04698686887170009,0.7268660645647796 l -21.280086289703664 1.1917830128904692" fill="#fffe18" stroke="none" /><path d="M 120.96714384426684 98.82574320788733 l 21.488714586661548 -1.2034671600756701 a42.52238805970149,42.52238805970149 0 0,0 0.03463831566650216,0.7311600975345228 l -21.506246510561546 0.8333959559181475" fill="#fdff18" stroke="none" /><path d="M 120.98425023603335 99.18683210126433 l 19.09014946845962 -0.7397689483878147 a40.1044776119403,40.1044776119403 0 0,0 0.02079380028264514,0.6900449991961816 l -19.100054963197913 0.4110538017666341" fill="#ffe215" stroke="none" /><line stroke="#e1ed5e" stroke-width="0.3" x1="184.98032266829074" x2="189.97916517819016" y1="98.17113171792111" y2="98.06355123074" /><path d="M 185.9800911702706 98.14961562048488 a86.0,86.0 0 0,1 -9.607161424134198,41.387399972396054" fill="none" id="id16" stroke="none" /><text fill="#e1ed5e" style="font-size:6.75px; font-family:Arial;" text-anchor="middle"><textPath startOffset="21.466115282336823" xlink:href="#id16">April</textPath></text><path d="M 120.99980553446 99.90962569577887 l 18.283412778758702 -0.07868409571491423 a39.28358208955224,39.28358208955224 0 0,0 -0.0029101702445117764,0.6762210755990774 l -18.282058311224688 -0.23604645808784785" fill="#ffd814" stroke="none" /><path d="M 120.9904718944345 100.63252640178507 l 40.906804502160206 1.2326847147794335 a61.92537313432836,61.92537313432836 0 0,0 -0.04127729267971425,1.0651835125365234 l -40.87952507662929 -1.9366454743299633" fill="#31ff3d" stroke="none" /><path d="M 120.9764740272857 100.99374915477107 l 18.367459844787483 0.8701485136303846 a39.38805970149254,39.38805970149254 0 0,0 -0.03791316276319131,0.6769649897589324 l -18.349760331136764 -1.1861852197247402" fill="#ffd914" stroke="none" /><path d="M 120.95626037817324 101.35467743843564 l 18.18592318532304 1.1755942802629122 a39.223880597014926,39.223880597014926 0 0,0 -0.04935380513867846,0.673393459336523 l -18.162992821520028 -1.4884608760962055" fill="#ffd714" stroke="none" /><path d="M 120.8583938346157 102.4346265915055 l 17.997221119561807 2.1006657299841422 a39.11940298507463,39.11940298507463 0 0,0 -0.08382448064250965,0.6681635863629979 l -17.95839512967245 -2.410147070634535" fill="#ffd513" stroke="none" /><path d="M 120.81339534386255 102.79330883721812 l 14.807539971006689 1.987279421503434 a35.940298507462686,35.940298507462686 0 0,0 -0.08756759428004546,0.6124475504414885 l -14.77113832571004 -2.241872443925332" fill="#ffab0f" stroke="none" /><path d="M 120.70491114924044 103.5080841355445 l 18.17382037619896 3.079235186494283 a39.43283582089552,39.43283582089552 0 0,0 -0.11915017721383327,0.668257470193914 l -18.11812375664594 -3.3916114074214154" fill="#ffd914" stroke="none" /><path d="M 120.64145759157962 103.86396538481128 l 18.162135393301764 3.399850139585193 a39.47761194029851,39.47761194029851 0 0,0 -0.13078381469748998,0.6668638535218804 l -18.10092164562861 -3.7119777201750184" fill="#ffda14" stroke="none" /><path d="M 120.49622156327973 104.57218783832717 l 36.9427277075177 8.24098675053141 a58.850746268656714,58.850746268656714 0 0,0 -0.22906793783641094,0.9868186809343343 l -36.79539920375073 -8.87567408881431" fill="#44ff2d" stroke="none" /><path d="M 120.32669344350535 105.2749913415812 l 39.56987444332704 10.26879977582866 a61.88059701492537,61.88059701492537 0 0,0 -0.2764351353852108,1.0287179751628834 l -39.387251231600054 -10.948408684167092" fill="#31ff3c" stroke="none" /><path d="M 120.13307415673323 105.97154293290107 l 25.08406467430941 7.440024706023871 a47.16417910447761,47.16417910447761 0 0,0 -0.2375574974275911,0.7763516465781801 l -24.95228040437569 -7.870703325154108" fill="#c5ff1e" stroke="none" /><path d="M 120.02730092923936 106.31721596034902 l 21.36530113346715 6.739261660613987 a43.40298507462687,43.40298507462687 0 0,0 -0.23087856008866653,0.7105711434716215 l -21.246130322362237 -7.106031704063403" fill="#f2ff19" stroke="none" /><path d="M 119.9155931802556 106.66101706037122 l 17.42437470141766 5.827798153032676 a39.373134328358205,39.373134328358205 0 0,0 -0.2205067434056554,0.6408958132554552 l -17.32147712706877 -6.126866669377431" fill="#ffd914" stroke="none" /><path d="M 119.67450827220406 107.3425965602758 l 19.77239139793642 7.379126891421443 a42.1044776119403,42.1044776119403 0 0,0 -0.2592547528548098,0.676832351075836 l -19.6424423654881 -7.718382809330422" fill="#fffb17" stroke="none" /><path d="M 119.54520255179757 107.68017299344265 l 37.52067668259079 14.743530387554083 a61.3134328358209,61.3134328358209 0 0,0 -0.3944421184297312,0.978972989979902 l -37.26133194990366 -15.387202745376799" fill="#30ff35" stroke="none" /><path d="M 119.26925614724726 108.34839909993367 l 19.18708447924195 8.312798250893442 a41.91044776119403,41.91044776119403 0 0,0 -0.29249284582415475,0.65949415147728 l -19.041150548686524 -8.64184073886341" fill="#fff917" stroke="none" /><path d="M 119.12269723197855 108.67885076344098 l 17.817950299306236 8.08669037019981 a40.56716417910448,40.56716417910448 0 0,0 -0.2940643862326499,0.63338852674921 l -17.676111296233753 -8.39219896422785" fill="#ffe815" stroke="none" /><path d="M 118.97047184881838 109.00673069616215 l 17.999701434379904 8.545831897211423 a40.92537313432835,40.92537313432835 0 0,0 -0.3076160414800663,0.6337801583107424 l -17.849932136285123 -8.85440101148744" fill="#ffed16" stroke="none" /><path d="M 118.64920377521936 109.65438752849418 l 14.699336877553849 7.609606090334078 a37.55223880597015,37.55223880597015 0 0,0 -0.3021122169908806,0.5714824605851357 l -14.566172152338076 -7.861503566005349" fill="#ffc111" stroke="none" /><line stroke="#e1ed5e" stroke-width="0.3" x1="174.80103733775053" x2="179.2010983576182" y1="140.37084112569926" y2="142.7455964860345" /><path d="M 175.68104954172406 140.8457921977663 a86.0,86.0 0 0,1 -30.038265399797805,32.042727171017184" fill="none" id="id17" stroke="none" /><text fill="#e1ed5e" style="font-size:6.75px; font-family:Arial;" text-anchor="middle"><textPath startOffset="22.206326154141568" xlink:href="#id17">May</textPath></text><path d="M 118.48025628344425 109.97397251340804 l 29.21115136771856 15.765540063837598 a54.19402985074627,54.19402985074627 0 0,0 -0.45012939394567786,0.8171155989321748 l -28.935445564321373 -16.26602618116758" fill="#75ff27" stroke="none" /><path d="M 118.12598468904814 110.60418214915192 l 17.481848772592983 10.227345541150795 a41.25373134328358,41.25373134328358 0 0,0 -0.36385619017064674,0.6098439036949597 l -17.30321170672411 -10.526751538731858" fill="#fff116" stroke="none" /><path d="M 117.94076556474637 110.91462005526583 l 15.977099682037805 9.719985024341204 a39.70149253731343,39.70149253731343 0 0,0 -0.36021610411031885,0.5807830551303286 l -15.807418938259524 -9.993564410836806" fill="#ffdd14" stroke="none" /><path d="M 117.75023020441432 111.22182372390056 l 15.706493677680058 9.929758732236095 a39.582089552238806,39.582089552238806 0 0,0 -0.36904669674773455,0.5727686688047667 l -15.533242117555272 -10.198649000962314" fill="#ffdb14" stroke="none" /><path d="M 117.55443506779139 111.5257021239791 l 17.654247065333905 11.591235611535483 a42.11940298507463,42.11940298507463 0 0,0 -0.4031366286644955,0.6026345615573653 l -17.452107331258688 -11.893407087298655" fill="#fffc17" stroke="none" /><path d="M 117.14729908036423 112.12312394758627 l 36.56140528862311 25.848878353062414 a65.77611940298507,65.77611940298507 0 0,0 -0.661583123667888,0.9188810950795059 l -36.11104237257962 -26.47439305359305" fill="#36ff6b" stroke="none" /><path d="M 116.71984013943494 112.70617746262583 l 18.395389151275957 13.979504415170418 a44.1044776119403,44.1044776119403 0 0,0 -0.4645528465675961,0.600497176542529 l -18.152029487490292 -14.294079585826198" fill="#eaff1a" stroke="none" /><path d="M 116.498646956653 112.99209946851258 l 17.624354211691156 13.878554016470785 a43.43283582089552,43.43283582089552 0 0,0 -0.46758981941746625,0.5833901949447702 l -17.382846480218838 -14.179872044993806" fill="#f2ff19" stroke="none" /><path d="M 116.27256486870786 113.27417163493432 l 8.442766420864773 6.887096868160666 a31.895522388059703,31.895522388059703 0 0,0 -0.3507049383280013,0.422446690510215 l -8.322965482643228 -7.031404815784652" fill="#ff740a" stroke="none" /><path d="M 115.56566222782051 114.09645910891815 l 46.696986683461546 42.289377326754476 a84.0,84.0 0 0,0 -0.9798143680171121,1.0633949807946608 l -45.96212590744871 -43.08692356235047" fill="#4dd2ff" stroke="none" /><path d="M 115.07121518719521 114.62390073753431 l 10.915116045310524 10.5911548340778 a36.208955223880594,36.208955223880594 0 0,0 -0.43788588743089596,0.44357609211294063 l -10.731189532824093 -10.777471420171405" fill="#ffaf10" stroke="none" /><path d="M 114.81725581225074 114.88116024355365 l 15.965145566007195 16.034000660431655 a43.626865671641795,43.626865671641795 0 0,0 -0.5367144201887374,0.5252880235659716 l -15.686781193442663 -16.3064387869202" fill="#f0ff19" stroke="none" /><path d="M 114.55890576462653 115.13401014063108 l 13.741454765759794 14.284268277724285 a40.82089552238806,40.82089552238806 0 0,0 -0.5105803077051465,0.4827855497511761 l -13.49353862366384 -14.518688464221382" fill="#ffeb16" stroke="none" /><path d="M 114.0293411484842 115.62618273729858 l 15.754341872498252 17.54752574622015 a44.582089552238806,44.582089552238806 0 0,0 -0.5754436331684595,0.5077621005871878 l -15.449955886423204 -17.816110988579624" fill="#e4ff1a" stroke="none" /><path d="M 113.75828350139079 115.86535959552629 l 7.392510538060725 8.524670827446961 a32.28358208955224,32.28358208955224 0 0,0 -0.4229679986949871,0.360462504582634 l -7.24467706278869 -8.650657722252541" fill="#ff790b" stroke="none" /><path d="M 113.48314897796784 116.09983520530334 l 8.634198457106626 10.309844719245422 a34.44776119402985,34.44776119402985 0 0,0 -0.45787615019108235,0.3768008995576633 l -8.455452178370852 -10.456940737660265" fill="#ff970e" stroke="none" /><path d="M 113.20401910651253 116.32954008644616 l 15.202921785750036 18.80160265816829 a45.17910447761194,45.17910447761194 0 0,0 -0.6089336670537159,0.4837737329825755 l -14.877030625978968 -19.06051030515599" fill="#ddff1b" stroke="none" /><path d="M 112.92097659922987 116.55440617244103 l 11.05675609486338 14.165959510745562 a38.97014925373134,38.97014925373134 0 0,0 -0.5323531555817256,0.4081856989969674 l -10.811274210788161 -14.354184551569901" fill="#ffd313" stroke="none" /><path d="M 112.63410532772338 116.77436683061366 l 11.116575974215735 14.75953527810925 a39.47761194029851,39.47761194029851 0 0,0 -0.5463232077063948,0.4041568483179182 l -10.860867796090774 -14.948702075166938" fill="#ffda14" stroke="none" /><path d="M 112.34349029814194 116.9893568818739 l 7.492068738175703 10.311947958152313 a33.74626865671642,33.74626865671642 0 0,0 -0.47288593584482724,0.33739155932496107 l -7.313455474481992 -10.439383779321494" fill="#ff8e0d" stroke="none" /><path d="M 112.04921762599082 117.19931262002967 l 1.6699342125573626 2.3837000432876936 a23.91044776119403,23.91044776119403 0 0,0 -0.3391220119645636,0.2332512121088267 l -1.6286553159699158 -2.4120920447616143" fill="#ff0000" stroke="none" /><path d="M 111.7513745106137 117.40417183066458 l 15.033741378183846 22.265465028568762 a47.865671641791046,47.865671641791046 0 0,0 -0.686816091784602,0.4551842546980397 l -14.64825058765928 -22.52094730435812" fill="#bcff1f" stroke="none" /><path d="M 111.1453310114006 117.79835938074945 l 11.089881603383683 17.709810329103934 a41.8955223880597,41.8955223880597 0 0,0 -0.614509158344001,0.37748171543194214 l -10.783393245107373 -17.898080511364256" fill="#fff917" stroke="none" /><line stroke="#e1ed5e" stroke-width="0.3" x1="143.8653032363475" x2="146.44561519142675" y1="172.8068346515853" y2="177.08958963109032" /><path d="M 144.38136562736335 173.6633856474863 a86.0,86.0 0 0,1 -40.68145358897372,12.25698825130547" fill="none" id="id18" stroke="none" /><text fill="#e1ed5e" style="font-size:6.75px; font-family:Arial;" text-anchor="middle"><textPath startOffset="21.466115282336833" xlink:href="#id18">June</textPath></text><path d="M 110.8373102113329 117.98757091392108 l 12.732106452973206 21.132519346632225 a45.67164179104478,45.67164179104478 0 0,0 -0.6768801099169515,0.3999126999155128 l -12.366458472027873 -21.348550618841486" fill="#d7ff1c" stroke="none" /><path d="M 110.5260780823613 118.17145234162733 l 9.224345611621517 15.924236487012436 a39.40298507462687,39.40298507462687 0 0,0 -0.5898274735806927,0.3349194330505906 l -8.948869371119626 -16.080659085857654" fill="#ffd914" stroke="none" /><path d="M 109.57404056367764 118.69057910512821 l 2.7966813586862167 5.459721401711224 a27.134328358208954,27.134328358208954 0 0,0 -0.41754057983848003,0.20936351473126424 l -2.7022868711649766 -5.507052757351791" fill="#ff3004" stroke="none" /><path d="M 109.2508944713604 118.85261126421891 l 6.581482136340977 13.412554282503999 a35.940298507462686,35.940298507462686 0 0,0 -0.5577375234224873,0.2677479048962753 l -6.349631944918257 -13.523856463899834" fill="#ffab0f" stroke="none" /><path d="M 108.92500713936063 119.00905698771935 l 8.404857469547144 17.901208606061218 a40.776119402985074,40.776119402985074 0 0,0 -0.6379171539185573,0.2928364775034178 l -8.095472319861168 -18.04323215389871" fill="#ffeb16" stroke="none" /><path d="M 108.59647513512805 119.15986991738527 l 10.392753521572715 23.16342482549563 a46.38805970149254,46.38805970149254 0 0,0 -0.7313394052336185,0.3205977031704586 l -9.992493441681342 -23.338887081960543" fill="#ceff1d" stroke="none" /><path d="M 108.2653958097858 119.30500536409082 l 7.049378089369553 16.464823338243768 a38.91044776119403,38.91044776119403 0 0,0 -0.6179878500995869,0.258318971461926 l -6.764918779772505 -16.583727352725667" fill="#ffd313" stroke="none" /><path d="M 107.59598834532513 119.57807347666477 l 6.386676767959933 16.461166256499236 a38.656716417910445,38.656716417910445 0 0,0 -0.62242795183432,0.2353489923410277 l -6.102378595365338 -16.568663498946897" fill="#ffcf13" stroke="none" /><path d="M 106.57524785965236 119.94407469862006 l 3.383425337873712 10.262622659417858 a31.80597014925373,31.80597014925373 0 0,0 -0.5214341248125132,0.16694674041802793 l -3.206269867970258 -10.319342246495593" fill="#ff730a" stroke="none" /><path d="M 106.2309692047433 120.05430185196036 l 2.772272012913511 8.922525202080445 a30.343283582089555,30.343283582089555 0 0,0 -0.5001223716865532,0.15068276802278602 l -2.6182746667867125 -8.968923339208956" fill="#ff5e08" stroke="none" /><path d="M 105.88484417918355 120.15858648285463 l 6.278003633940663 21.505357719093677 a43.40298507462687,43.40298507462687 0 0,0 -0.7189783675563657,0.20319046835222934 l -5.906894098279691 -21.61023698078443" fill="#f2ff19" stroke="none" /><path d="M 105.18746579009965 120.34920634021253 l 1.9872381384958877 7.795467105454551 a29.044776119402986,29.044776119402986 0 0,0 -0.48552729771834485,0.11933079695870485 l -1.852757556034332 -7.828519160727286" fill="#ff4c07" stroke="none" /><path d="M 104.83641907484287 120.43548508189849 l 3.141781829713134 13.27507701837614 a34.64179104477612,34.64179104477612 0 0,0 -0.5814539682012559,0.13233703011101242 l -2.912807712119016 -13.327190782064836" fill="#ff9a0e" stroke="none" /><path d="M 104.48393922423573 120.51570834832081 l 3.613921165801929 16.535048519542144 a37.92537313432835,37.92537313432835 0 0,0 -0.6389676592096306,0.13390188555355995 l -3.3287620451629203 -16.594806385822245" fill="#ffc612" stroke="none" /><path d="M 104.13013068566511 120.58985236759428 l 2.0606622184341896 10.272975381699489 a31.47761194029851,31.47761194029851 0 0,0 -0.5321700787976372,0.10199166217702965 l -1.883524525064848 -10.306924242224987" fill="#ff6e0a" stroke="none" /><path d="M 103.7750983002368 120.6578951692458 l 4.4270875589131045 24.225676637708304 a45.626865671641795,45.626865671641795 0 0,0 -0.7738121494029448,0.13453716095329363 l -4.009426438038109 -24.2982923771826" fill="#d7ff1c" stroke="none" /><path d="M 103.41894727170886 120.7198165907248 l 1.6669494160570564 10.10219913378622 a31.238805970149254,31.238805970149254 0 0,0 -0.5313038645823551,0.0829787368319173 l -1.492809687866184 -10.129396177965244" fill="#ff6b09" stroke="none" /><path d="M 102.70371172650421 120.8252237178851 l 1.6295291713401334 12.551378616038772 a33.656716417910445,33.656716417910445 0 0,0 -0.5751653596440208,0.06964451508481426 l -1.4132363886447323 -12.577568659848938" fill="#ff8c0c" stroke="none" /><path d="M 101.62511606390274 120.93702456842531 l 0.7276639092101788 9.37478712019044 a30.402985074626866,30.402985074626866 0 0,0 -0.5221166000663248,0.03600821764060208 l -0.5661845483649236 -9.385923682347327" fill="#ff5f08" stroke="none" /><path d="M 101.26447882468166 120.96189622390904 l 0.9930697237194295 16.462612173006026 a37.492537313432834,37.492537313432834 0 0,0 -0.6445358721715275,0.03331514244019107 l -0.7095457831344224 -16.477267122208417" fill="#ffc011" stroke="none" /><path d="M 100.90346689309514 120.98055641714683 l 0.7711895796782272 17.908776302056385 a38.92537313432835,38.92537313432835 0 0,0 -0.6696640531858612,0.02306458401190292 l -0.46280517481771377 -17.919397684494385" fill="#ffd313" stroke="none" /><line stroke="#e1ed5e" stroke-width="0.3" x1="102.19456741930631" x2="102.32365962044197" y1="184.97166512339345" y2="189.96999836594603" /><path d="M 102.22038585953345 185.97133177190398 a86.0,86.0 0 0,1 -42.740103519485714,-10.115201625700543" fill="none" id="id19" stroke="none" /><text fill="#e1ed5e" style="font-size:6.75px; font-family:Arial;" text-anchor="middle"><textPath startOffset="22.20632615414155" xlink:href="#id19">July</textPath></text><path d="M 100.18074693466247 120.99922214144158 l 0.13578501061707393 15.775535041580488 a36.776119402985074,36.776119402985074 0 0,0 -0.6330638905590479,0.0 l 0.13578501061706305 -15.775535041580488" fill="#ffb710" stroke="none" /><path d="M 99.45781275523022 120.99299961872073 l -0.38573520399044064 14.935318136701817 a35.940298507462686,35.940298507462686 0 0,0 -0.6183094478802129,-0.021295827569272327 l 0.6427650035452965 -14.92646551070645" fill="#ffab0f" stroke="none" /><path d="M 99.09653310690486 120.98055641714683 l -0.7082615373730893 16.447444014294923 a37.462686567164184,37.462686567164184 0 0,0 -0.6440227066681897,-0.03328861764525462 l 0.9912723124547679 -16.43281558988747" fill="#ffc011" stroke="none" /><path d="M 98.73552117531835 120.96189622390904 l -1.1116988671863535 18.429186658831185 a39.462686567164184,39.462686567164184 0 0,0 -0.6777006826584997,-0.046738206893348996 l 1.4287623106237832 -18.40732010742155" fill="#ffda14" stroke="none" /><path d="M 98.37488393609728 120.93702456842531 l -1.1841286344797919 15.255605961300382 a36.301492537313436,36.301492537313436 0 0,0 -0.6225804196084026,-0.053718858285596915 l 1.446553371829736 -15.232962850736122" fill="#ffb010" stroke="none" /><path d="M 97.65516085044442 120.86867818915974 l -0.5132981222907744 4.568267862303625 a25.597014925373134,25.597014925373134 0 0,0 -0.43743174802193835,-0.05296689284721191 l 0.5918572933641021 -4.558755440731065" fill="#ff1902" stroke="none" /><path d="M 96.93821686468263 120.77559828337769 l -1.3078405574454406 8.8742960684506 a29.970149253731343,29.970149253731343 0 0,0 -0.5097267845587048,-0.07960884068728616 l 1.4604032056126626 -8.850468920416208" fill="#ff5908" stroke="none" /><path d="M 96.58105272829116 120.7198165907248 l -1.4919926260335687 9.041910011872798 a30.16417910447761,30.16417910447761 0 0,0 -0.5115715910838572,-0.0889432784712484 l 1.6474131885894758 -9.014888154880543" fill="#ff5c08" stroke="none" /><path d="M 96.22490169976321 120.6578951692458 l -1.6769271056488961 9.176392665798598 a30.328358208955223,30.328358208955223 0 0,0 -0.5127404457642613,-0.09826792676326422 l 1.8346351659848525 -9.146167540686866" fill="#ff5e08" stroke="none" /><path d="M 95.86986931433489 120.58985236759428 l -1.8375705822504291 9.160801408751968 a30.343283582089555,30.343283582089555 0 0,0 -0.5112244199815613,-0.10713204774907022 l 1.9949864636613772 -9.127813380276358" fill="#ff5e08" stroke="none" /><path d="M 95.51606077576429 120.51570834832081 l -2.0300421363455228 9.288206267150223 a30.507462686567166,30.507462686567166 0 0,0 -0.5120602804840005,-0.1165432527130123 l 2.189622566222386 -9.251886280859523" fill="#ff6008" stroke="none" /><path d="M 95.16358092515715 120.4354850818985 l -3.6749222693066756 15.527773348299709 a36.95671641791045,36.95671641791045 0 0,0 -0.6177873288182917,-0.1518370947325021 l 3.941662882868178 -15.462214995253177" fill="#ffb911" stroke="none" /><path d="M 94.46302465271185 120.25689768951611 l -3.9353058616120484 14.397226502854384 a35.92537313432836,35.92537313432836 0 0,0 -0.5951103613164139,-0.16818413250474704 l 4.182547391033077 -14.327353577011115" fill="#ffab0f" stroke="none" /><path d="M 93.76903079525671 120.05430185196036 l -3.352412002836298 10.789699006349673 a32.298507462686565,32.298507462686565 0 0,0 -0.5295088907059026,-0.16953202546438875 l 3.5376422386331408 -10.730394134225579" fill="#ff7a0b" stroke="none" /><path d="M 93.42475214034765 119.94407469862007 l -2.3412929478932685 7.101621481171753 a28.47761194029851,28.47761194029851 0 0,0 -0.46422611908725886,-0.15749070433431503 l 2.463188799917753 -7.0602677899393145" fill="#ff4306" stroke="none" /><path d="M 93.08242187328487 119.8279376855182 l -1.9666178043255509 5.636940351248952 a26.970149253731343,26.970149253731343 0 0,0 -0.43701972561626434,-0.15669972518890993 l 2.0633570905715417 -5.6022530850200845" fill="#ff2e04" stroke="none" /><path d="M 92.40401165467489 119.57807347666478 l -11.574839383352558 29.83325482158443 a53.0,53.0 0 0,0 -0.8476944271324534,-0.3373151069751653 l 12.086654886526869 -29.629592870203197" fill="#82ff25" stroke="none" /><path d="M 91.7346041902142 119.30500536409082 l -1.8011161018339197 4.206762362921284 a25.576119402985075,25.576119402985075 0 0,0 -0.4032249693720619,-0.17676197688317463 l 1.8732617458637248 -4.175135832743657" fill="#ff1902" stroke="none" /><path d="M 91.40352486487194 119.15986991738527 l -12.573948705112672 28.02488435677249 a51.71641791044776,51.71641791044776 0 0,0 -0.8090713537071014,-0.3714049760429512 l 13.054488054587194 -27.804292310395464" fill="#90ff24" stroke="none" /><path d="M 91.07499286063937 119.00905698771935 l -6.3496319449182606 13.523856463899834 a35.940298507462686,35.940298507462686 0 0,0 -0.5577375234224713,-0.2677479048962713 l 6.581482136340974 -13.412554282504" fill="#ffab0f" stroke="none" /><path d="M 90.10565033884886 118.52300852407294 l -7.8198413810945695 14.639364235088197 a37.59701492537313,37.59701492537313 0 0,0 -0.5682111847213179,-0.3098340427982586 l 8.070675377684529 -14.502589540530172" fill="#ffc112" stroke="none" /><line stroke="#e1ed5e" stroke-width="0.3" x1="58.666819895761336" x2="56.23545636021788" y1="174.27360380694188" y2="178.64263932499728" /><path d="M 58.180547188652646 175.14741091055294 a86.0,86.0 0 0,1 -31.652253787137756,-30.449443065178592" fill="none" id="id20" stroke="none" /><text fill="#e1ed5e" style="font-size:6.75px; font-family:Arial;" text-anchor="middle"><textPath startOffset="22.20632615414155" xlink:href="#id20">August</textPath></text><path d="M 89.4739219176387 118.17145234162733 l -3.845347643449682 6.638327294666985 a28.671641791044777,28.671641791044777 0 0,0 -0.4249302912256418,-0.25105630605807194 l 3.9590458057037057 -6.571152416315164" fill="#ff4606" stroke="none" /><path d="M 89.1626897886671 117.98757091392108 l -7.96430615388644 13.219010891964741 a36.43283582089552,36.43283582089552 0 0,0 -0.5343843446803371,-0.3282625106410298 l 8.190669698499086 -13.079959914495333" fill="#ffb210" stroke="none" /><path d="M 88.8546689885994 117.79835938074946 l -4.927075969503321 7.868215731930464 a30.28358208955224,30.28358208955224 0 0,0 -0.43942659818535346,-0.2804628457117991 l 5.061784369735597 -7.782238457394861" fill="#ff5d08" stroke="none" /><path d="M 87.36589467227662 116.77436683061367 l -1.9036462896072166 2.5274810007747663 a24.16417910447761,24.16417910447761 0 0,0 -0.33009565641012434,-0.2531032733343946 l 1.9468706745108277 -2.494338385613005" fill="#ff0400" stroke="none" /><path d="M 86.51685102203217 116.09983520530335 l -5.433507797091514 6.487993291689405 a29.462686567164177,29.462686567164177 0 0,0 -0.38600962987696535,-0.3289657808812322 l 5.544382903545536 -6.393503120585222" fill="#ff5207" stroke="none" /><path d="M 85.18274418774928 114.88116024355367 l -6.558768244399255 6.587055152583667 a30.2955223880597,30.2955223880597 0 0,0 -0.36637294901370193,-0.3711338630547597 l 6.67118181846849 -6.473180795548243" fill="#ff5d08" stroke="none" /><path d="M 84.67929136418377 114.36230785411682 l -5.553348546031471 5.205953806396291 a28.611940298507463,28.611940298507463 0 0,0 -0.3337427404919599,-0.36221182981224115 l 5.64213769451916 -5.1095907217827055" fill="#ff4506" stroke="none" /><path d="M 84.43433777217949 114.09645910891817 l -7.655606440406388 6.933013293085552 a31.328358208955223,31.328358208955223 0 0,0 -0.3585473166937725,-0.4028317112394642 l 7.773812606748499 -6.800207412105224" fill="#ff6c0a" stroke="none" /><path d="M 84.19399662182784 113.82643327865904 l -10.267723587526199 8.981776842000254 a34.64179104477612,34.64179104477612 0 0,0 -0.38874274007549575,-0.4521956310206739 l 10.420808837172473 -8.80370411181805" fill="#ff9a0e" stroke="none" /><path d="M 83.95833913139862 113.55231037782056 l -12.3704349981752 10.450786609762126 a37.19402985074627,37.19402985074627 0 0,0 -0.40896429869602513,-0.49262384312189567 l 12.548495296764761 -10.23630150952647" fill="#ffbc11" stroke="none" /><path d="M 83.72743513129214 113.27417163493432 l -11.970223624102792 9.764582545953822 a36.44776119402985,36.44776119402985 0 0,0 -0.3923898072224802,-0.489566617201059 l 12.136531343380133 -9.557088095174503" fill="#ffb210" stroke="none" /><path d="M 83.28015986056508 112.70617746262583 l -14.271874916461504 10.84585581564579 a38.92537313432835,38.92537313432835 0 0,0 -0.4008177799994443,-0.5369609170147297 l 14.456453963156035 -10.598582019121752" fill="#ffd313" stroke="none" /><path d="M 83.06392112726016 112.41649034213515 l -8.594428084673945 6.300905546755147 a31.656716417910445,31.656716417910445 0 0,0 -0.31840658164274094,-0.44223889327514987 l 8.701614458692294 -6.1520330480288585" fill="#ff710a" stroke="none" /><path d="M 82.6465618267979 111.8261652097733 l -7.424854143758111 5.059951283783599 a29.98507462686567,29.98507462686567 0 0,0 -0.28699556590607156,-0.4290194309598478 l 7.510852815074912 -4.93139493861793" fill="#ff5908" stroke="none" /><path d="M 82.44556493220864 111.52570212397912 l -10.430353743193734 6.848249449642177 a33.47761194029851,33.47761194029851 0 0,0 -0.31213112398385684,-0.4844344359461205 l 10.546689730554636 -6.667693413774608" fill="#ff8a0c" stroke="none" /><path d="M 82.24976979558568 111.22182372390057 l -8.704803724979303 5.503239779311577 a31.298507462686565,31.298507462686565 0 0,0 -0.2839748760599122,-0.45785791977756995 l 8.798243240707171 -5.352585528168743" fill="#ff6c09" stroke="none" /><path d="M 82.05923443525364 110.91462005526583 l -6.885581666640396 4.188979978566843 a29.059701492537314,29.059701492537314 0 0,0 -0.2563053553770736,-0.4295825182684731 l 6.956667897715702 -4.069835366412259" fill="#ff4c07" stroke="none" /><line stroke="#e1ed5e" stroke-width="0.3" x1="26.63291911575756" x2="22.317208475507996" y1="142.92168965132927" y2="145.44649492493687" /><path d="M 25.769776987707644 143.4266507060508 a86.0,86.0 0 0,1 -11.730757126820373,-40.83630448921669" fill="none" id="id21" stroke="none" /><text fill="#e1ed5e" style="font-size:6.75px; font-family:Arial;" text-anchor="middle"><textPath startOffset="21.46611528233685" xlink:href="#id21">September</textPath></text><path d="M 81.69416730710424 110.29060199501025 l -11.891635452243584 6.684868673375527 a34.64179104477612,34.64179104477612 0 0,0 -0.2877307417647691,-0.5223148733465912 l 12.004942603459869 -6.479183281631113" fill="#ff9a0e" stroke="none" /><path d="M 81.51974371655577 109.97397251340807 l -21.934632546803037 11.838332691820522 a45.92537313432835,45.92537313432835 0 0,0 -0.36947507618480846,-0.6989076038237311 l 22.135160131212732 -11.459010072910663" fill="#d4ff1c" stroke="none" /><path d="M 81.35079622478065 109.6543875284942 l -23.871511015756965 12.357890503779705 a47.88059701492537,47.88059701492537 0 0,0 -0.3726052788384196,-0.7351855642201752 l 24.080694964381653 -11.945150727856845" fill="#bcff1f" stroke="none" /><path d="M 81.18737489456691 109.33194174019688 l -16.232073118689247 8.051867286850756 a39.11940298507463,39.11940298507463 0 0,0 -0.29404144592240344,-0.6058124707995655 l 16.368267821226368 -7.771265860085907" fill="#ffd513" stroke="none" /><path d="M 81.02952815118164 109.00673069616217 l -23.00186565322256 10.920740986249223 a46.462686567164184,46.462686567164184 0 0,0 -0.33680001263512405,-0.7254372640803207 l 23.18644028269751 -10.523183654890076" fill="#cdff1d" stroke="none" /><path d="M 80.87730276802145 108.67885076344099 l -21.202137655925036 9.62260639016912 a44.28358208955224,44.28358208955224 0 0,0 -0.30905494072657613,-0.6968373032168951 l 21.36463368138289 -9.256220750459528" fill="#e7ff1a" stroke="none" /><path d="M 80.73074385275274 108.34839909993369 l -11.901196582770341 5.15618963599316 a33.97014925373134,33.97014925373134 0 0,0 -0.22784105672090277,-0.53854895492809 l 11.98818862068355 -4.950566155398911" fill="#ff910d" stroke="none" /><path d="M 80.58989483394504 108.01547362559985 l -21.700138895667692 8.96115139521575 a44.47761194029851,44.47761194029851 0 0,0 -0.28613376653374867,-0.7101605428773561 l 21.85117527645883 -8.58629148449559" fill="#e5ff1a" stroke="none" /><path d="M 80.32549172779594 107.34259656027581 l -7.024789367600666 2.62167641160713 a28.49805660597015,28.49805660597015 0 0,0 -0.16756279044462433,-0.4610608339487017 l 7.068876419050514 -2.5003677806523115" fill="#ff4406" stroke="none" /><path d="M 80.20201598880116 107.00284435728193 l -16.031819647731442 5.670695445231822 a38.005176507462686,38.005176507462686 0 0,0 -0.21284558232850578,-0.6186288930552442 l 16.127056061003174 -5.393893849087282" fill="#ffc712" stroke="none" /><path d="M 79.97269907076064 106.31721596034903 l -10.27736605458722 3.241791847028164 a31.77652390149254,31.77652390149254 0 0,0 -0.1600526424569979,-0.5230612961333876 l 10.331645469550349 -3.0644035783427284" fill="#ff720a" stroke="none" /><path d="M 79.76711848015287 105.62410040840567 l -27.867509021514586 7.746285110966892 a49.92409016865672,49.92409016865672 0 0,0 -0.22302261598135098,-0.8299501205161904 l 27.996719713837713 -7.265444057275163" fill="#a5ff21" stroke="none" /><line stroke="#e1ed5e" stroke-width="0.3" x1="15.007084014347285" x2="10.007500721073583" y1="101.09737516637583" y2="101.16192664675087" /><path d="M 14.007167355692545 101.11028546245083 a86.0,86.0 0 0,1 10.666146001902534,-42.60595125391555" fill="none" id="id22" stroke="none" /><text fill="#e1ed5e" style="font-size:6.75px; font-family:Arial;" text-anchor="middle"><textPath startOffset="22.20632615414155" xlink:href="#id22">October</textPath></text><line stroke="#e1ed5e" stroke-width="0.3" x1="26.266209847984243" x2="21.928928074336255" y1="57.711370442889674" y2="55.22380399835377" /><path d="M 25.398753493254645 57.213857153982495 a86.0,86.0 0 0,1 29.58750427330803,-30.492523968695096" fill="none" id="id23" stroke="none" /><text fill="#e1ed5e" style="font-size:6.75px; font-family:Arial;" text-anchor="middle"><textPath startOffset="21.46611528233685" xlink:href="#id23">November</textPath></text><line stroke="#e1ed5e" stroke-width="0.3" x1="56.762969772571076" x2="54.21961505331055" y1="26.818313649435495" y2="22.513508569990535" /><path d="M 56.25429882871897 25.957352633546506 a86.0,86.0 0 0,1 42.265352541879196,-11.944610805530505" fill="none" id="id24" stroke="none" /><text fill="#e1ed5e" style="font-size:6.75px; font-family:Arial;" text-anchor="middle"><textPath startOffset="22.20632615414155" xlink:href="#id24">December</textPath></text></svg>