<?xml version="1.0" encoding="utf-8" ?>
<svg baseProfile="full" height="98mm" version="1.1" viewBox="0,0,200,98" width="200mm" xmlns="http://www.w3.org/2000/svg" xmlns:ev="http://www.w3.org/2001/xml-events" xmlns:xlink="http://www.w3.org/1999/xlink"><defs /><rect fill="#222222" height="98" width="200" x="0" y="0" /><text fill="#FFFFFF" style="font-size:12px; font-family:Arial; font-weight:bold;" x="10" y="20">2022 Running</text><text fill="#FFFFFF" style="font-size:4px; font-family:Arial" x="10" y="78">ATHLETE</text><text fill="#FFFFFF" style="font-size:9px; font-family:Arial" x="10" y="88">周观云</text><text fill="#FFFFFF" style="font-size:4px; font-family:Arial" x="120" y="78">STATISTICS</text><text fill="#FFFFFF" style="font-size:3px; font-family:Arial" x="120" y="83">Number: 244</text><text fill="#FFFFFF" style="font-size:3px; font-family:Arial" x="120" y="88">Weekly: 5.1</text><text fill="#FFFFFF" style="font-size:3px; font-family:Arial" x="141" y="83">Total: 2492.3 km</text><text fill="#FFFFFF" style="font-size:3px; font-family:Arial" x="141" y="88">Avg: 10.2 km</text><text fill="#FFFFFF" style="font-size:3px; font-family:Arial" x="167" y="83">Min: 0.6 km</text><text fill="#FFFFFF" style="font-size:3px; font-family:Arial" x="167" y="88">Max: 41.2 km</text><text alignment-baseline="hanging" fill="#FFFFFF" style="font-size:10.0px; font-family:Arial;" x="10" y="30">2022</text><text alignment-baseline="hanging" fill="#FFFFFF" style="font-size:4.125px; font-family:Arial;" x="175" y="35">2492.3 km</text><text fill="#FFFFFF" style="font-size:2.5px; font-family:Arial" x="10.0" y="44">Jan</text><text fill="#FFFFFF" style="font-size:2.5px; font-family:Arial" x="25.5" y="44">Feb</text><text fill="#FFFFFF" style="font-size:2.5px; font-family:Arial" x="41.0" y="44">Mar</text><text fill="#FFFFFF" style="font-size:2.5px; font-family:Arial" x="56.5" y="44">Apr</text><text fill="#FFFFFF" style="font-size:2.5px; font-family:Arial" x="72.0" y="44">May</text><text fill="#FFFFFF" style="font-size:2.5px; font-family:Arial" x="87.5" y="44">Jun</text><text fill="#FFFFFF" style="font-size:2.5px; font-family:Arial" x="103.0" y="44">Jul</text><text fill="#FFFFFF" style="font-size:2.5px; font-family:Arial" x="118.5" y="44">Aug</text><text fill="#FFFFFF" style="font-size:2.5px; font-family:Arial" x="134.0" y="44">Sep</text><text fill="#FFFFFF" style="font-size:2.5px; font-family:Arial" x="149.5" y="44">Oct</text><text fill="#FFFFFF" style="font-size:2.5px; font-family:Arial" x="165.0" y="44">Nov</text><text fill="#FFFFFF" style="font-size:2.5px; font-family:Arial" x="180.5" y="44">Dec</text><rect fill="#444444" height="2.6" width="2.6" x="10.0" y="45.5"><title>2021-12-27</title></rect><rect fill="#444444" height="2.6" width="2.6" x="10.0" y="49.0"><title>2021-12-28</title></rect><rect fill="#444444" height="2.6" width="2.6" x="10.0" y="52.5"><title>2021-12-29</title></rect><rect fill="#444444" height="2.6" width="2.6" x="10.0" y="56.0"><title>2021-12-30</title></rect><rect fill="#444444" height="2.6" width="2.6" x="10.0" y="59.5"><title>2021-12-31</title></rect><rect fill="#ffc000" height="2.6" width="2.6" x="10.0" y="63.0"><title>2022-01-01 11.3 km</title></rect><rect fill="#444444" height="2.6" width="2.6" x="10.0" y="66.5"><title>2022-01-02</title></rect><rect fill="#444444" height="2.6" width="2.6" x="13.5" y="45.5"><title>2022-01-03</title></rect><rect fill="#ffb700" height="2.6" width="2.6" x="13.5" y="49.0"><title>2022-01-04 12.6 km</title></rect><rect fill="#ffbd00" height="2.6" width="2.6" x="13.5" y="52.5"><title>2022-01-05 11.7 km</title></rect><rect fill="#ffb800" height="2.6" width="2.6" x="13.5" y="56.0"><title>2022-01-06 12.5 km</title></rect><rect fill="#444444" height="2.6" width="2.6" x="13.5" y="59.5"><title>2022-01-07</title></rect><rect fill="#ffb900" height="2.6" width="2.6" x="13.5" y="63.0"><title>2022-01-08 12.3 km</title></rect><rect fill="#4dd2ff" height="2.6" width="2.6" x="13.5" y="66.5"><title>2022-01-09 7.0 km</title></rect><rect fill="#444444" height="2.6" width="2.6" x="17.0" y="45.5"><title>2022-01-10</title></rect><rect fill="#ffb800" height="2.6" width="2.6" x="17.0" y="49.0"><title>2022-01-11 12.6 km</title></rect><rect fill="#ffb900" height="2.6" width="2.6" x="17.0" y="52.5"><title>2022-01-12 12.4 km</title></rect><rect fill="#ffb800" height="2.6" width="2.6" x="17.0" y="56.0"><title>2022-01-13 12.6 km</title></rect><rect fill="#444444" height="2.6" width="2.6" x="17.0" y="59.5"><title>2022-01-14</title></rect><rect fill="#ffb700" height="2.6" width="2.6" x="17.0" y="63.0"><title>2022-01-15 12.7 km</title></rect><rect fill="red" height="2.6" width="2.6" x="17.0" y="66.5"><title>2022-01-16 25.5 km</title></rect><rect fill="#444444" height="2.6" width="2.6" x="20.5" y="45.5"><title>2022-01-17</title></rect><rect fill="#444444" height="2.6" width="2.6" x="20.5" y="49.0"><title>2022-01-18</title></rect><rect fill="#444444" height="2.6" width="2.6" x="20.5" y="52.5"><title>2022-01-19</title></rect><rect fill="#4dd2ff" height="2.6" width="2.6" x="20.5" y="56.0"><title>2022-01-20 5.2 km</title></rect><rect fill="#444444" height="2.6" width="2.6" x="20.5" y="59.5"><title>2022-01-21</title></rect><rect fill="#444444" height="2.6" width="2.6" x="20.5" y="63.0"><title>2022-01-22</title></rect><rect fill="#444444" height="2.6" width="2.6" x="20.5" y="66.5"><title>2022-01-23</title></rect><rect fill="#444444" height="2.6" width="2.6" x="24.0" y="45.5"><title>2022-01-24</title></rect><rect fill="#ffc700" height="2.6" width="2.6" x="24.0" y="49.0"><title>2022-01-25 10.2 km</title></rect><rect fill="#444444" height="2.6" width="2.6" x="24.0" y="52.5"><title>2022-01-26</title></rect><rect fill="#444444" height="2.6" width="2.6" x="24.0" y="56.0"><title>2022-01-27</title></rect><rect fill="#ffb800" height="2.6" width="2.6" x="24.0" y="59.5"><title>2022-01-28 12.5 km</title></rect><rect fill="#444444" height="2.6" width="2.6" x="24.0" y="63.0"><title>2022-01-29</title></rect><rect fill="#444444" height="2.6" width="2.6" x="24.0" y="66.5"><title>2022-01-30</title></rect><rect fill="#444444" height="2.6" width="2.6" x="27.5" y="45.5"><title>2022-01-31</title></rect><rect fill="#444444" height="2.6" width="2.6" x="27.5" y="49.0"><title>2022-02-01</title></rect><rect fill="#444444" height="2.6" width="2.6" x="27.5" y="52.5"><title>2022-02-02</title></rect><rect fill="#444444" height="2.6" width="2.6" x="27.5" y="56.0"><title>2022-02-03</title></rect><rect fill="#444444" height="2.6" width="2.6" x="27.5" y="59.5"><title>2022-02-04</title></rect><rect fill="#444444" height="2.6" width="2.6" x="27.5" y="63.0"><title>2022-02-05</title></rect><rect fill="#4dd2ff" height="2.6" width="2.6" x="27.5" y="66.5"><title>2022-02-06 9.4 km</title></rect><rect fill="#444444" height="2.6" width="2.6" x="31.0" y="45.5"><title>2022-02-07</title></rect><rect fill="#444444" height="2.6" width="2.6" x="31.0" y="49.0"><title>2022-02-08</title></rect><rect fill="#444444" height="2.6" width="2.6" x="31.0" y="52.5"><title>2022-02-09</title></rect><rect fill="#ffb700" height="2.6" width="2.6" x="31.0" y="56.0"><title>2022-02-10 12.6 km</title></rect><rect fill="#444444" height="2.6" width="2.6" x="31.0" y="59.5"><title>2022-02-11</title></rect><rect fill="#ffc800" height="2.6" width="2.6" x="31.0" y="63.0"><title>2022-02-12 10.1 km</title></rect><rect fill="#ffc800" height="2.6" width="2.6" x="31.0" y="66.5"><title>2022-02-13 10.0 km</title></rect><rect fill="#ffc800" height="2.6" width="2.6" x="34.5" y="45.5"><title>2022-02-14 10.1 km</title></rect><rect fill="#444444" height="2.6" width="2.6" x="34.5" y="49.0"><title>2022-02-15</title></rect><rect fill="#ffb900" height="2.6" width="2.6" x="34.5" y="52.5"><title>2022-02-16 12.3 km</title></rect><rect fill="#444444" height="2.6" width="2.6" x="34.5" y="56.0"><title>2022-02-17</title></rect><rect fill="#444444" height="2.6" width="2.6" x="34.5" y="59.5"><title>2022-02-18</title></rect><rect fill="#ffc700" height="2.6" width="2.6" x="34.5" y="63.0"><title>2022-02-19 10.2 km</title></rect><rect fill="#444444" height="2.6" width="2.6" x="34.5" y="66.5"><title>2022-02-20</title></rect><rect fill="#444444" height="2.6" width="2.6" x="38.0" y="45.5"><title>2022-02-21</title></rect><rect fill="#4dd2ff" height="2.6" width="2.6" x="38.0" y="49.0"><title>2022-02-22 7.6 km</title></rect><rect fill="#ffbd00" height="2.6" width="2.6" x="38.0" y="52.5"><title>2022-02-23 11.8 km</title></rect><rect fill="#ffbd00" height="2.6" width="2.6" x="38.0" y="56.0"><title>2022-02-24 11.8 km</title></rect><rect fill="#444444" height="2.6" width="2.6" x="38.0" y="59.5"><title>2022-02-25</title></rect><rect fill="#ffbb00" height="2.6" width="2.6" x="38.0" y="63.0"><title>2022-02-26 12.0 km</title></rect><rect fill="#ffb900" height="2.6" width="2.6" x="38.0" y="66.5"><title>2022-02-27 12.4 km</title></rect><rect fill="#444444" height="2.6" width="2.6" x="41.5" y="45.5"><title>2022-02-28</title></rect><rect fill="#ffba00" height="2.6" width="2.6" x="41.5" y="49.0"><title>2022-03-01 12.2 km</title></rect><rect fill="#ffb800" height="2.6" width="2.6" x="41.5" y="52.5"><title>2022-03-02 12.5 km</title></rect><rect fill="#ffb700" height="2.6" width="2.6" x="41.5" y="56.0"><title>2022-03-03 12.7 km</title></rect><rect fill="#444444" height="2.6" width="2.6" x="41.5" y="59.5"><title>2022-03-04</title></rect><rect fill="#ffbc00" height="2.6" width="2.6" x="41.5" y="63.0"><title>2022-03-05 11.9 km</title></rect><rect fill="red" height="2.6" width="2.6" x="41.5" y="66.5"><title>2022-03-06 20.2 km</title></rect><rect fill="#444444" height="2.6" width="2.6" x="45.0" y="45.5"><title>2022-03-07</title></rect><rect fill="#ffbd00" height="2.6" width="2.6" x="45.0" y="49.0"><title>2022-03-08 11.8 km</title></rect><rect fill="#ffba00" height="2.6" width="2.6" x="45.0" y="52.5"><title>2022-03-09 12.2 km</title></rect><rect fill="#ffbd00" height="2.6" width="2.6" x="45.0" y="56.0"><title>2022-03-10 11.8 km</title></rect><rect fill="#444444" height="2.6" width="2.6" x="45.0" y="59.5"><title>2022-03-11</title></rect><rect fill="#4dd2ff" height="2.6" width="2.6" x="45.0" y="63.0"><title>2022-03-12 8.8 km</title></rect><rect fill="red" height="2.6" width="2.6" x="45.0" y="66.5"><title>2022-03-13 21.0 km</title></rect><rect fill="#444444" height="2.6" width="2.6" x="48.5" y="45.5"><title>2022-03-14</title></rect><rect fill="#ffbd00" height="2.6" width="2.6" x="48.5" y="49.0"><title>2022-03-15 11.8 km</title></rect><rect fill="#ffbd00" height="2.6" width="2.6" x="48.5" y="52.5"><title>2022-03-16 11.8 km</title></rect><rect fill="#444444" height="2.6" width="2.6" x="48.5" y="56.0"><title>2022-03-17</title></rect><rect fill="#444444" height="2.6" width="2.6" x="48.5" y="59.5"><title>2022-03-18</title></rect><rect fill="#ffb800" height="2.6" width="2.6" x="48.5" y="63.0"><title>2022-03-19 12.5 km</title></rect><rect fill="#444444" height="2.6" width="2.6" x="48.5" y="66.5"><title>2022-03-20</title></rect><rect fill="#444444" height="2.6" width="2.6" x="52.0" y="45.5"><title>2022-03-21</title></rect><rect fill="#ffbb00" height="2.6" width="2.6" x="52.0" y="49.0"><title>2022-03-22 12.1 km</title></rect><rect fill="#ffb500" height="2.6" width="2.6" x="52.0" y="52.5"><title>2022-03-23 13.1 km</title></rect><rect fill="#ffb600" height="2.6" width="2.6" x="52.0" y="56.0"><title>2022-03-24 12.8 km</title></rect><rect fill="#444444" height="2.6" width="2.6" x="52.0" y="59.5"><title>2022-03-25</title></rect><rect fill="#ffa700" height="2.6" width="2.6" x="52.0" y="63.0"><title>2022-03-26 15.2 km</title></rect><rect fill="red" height="2.6" width="2.6" x="52.0" y="66.5"><title>2022-03-27 29.9 km</title></rect><rect fill="#444444" height="2.6" width="2.6" x="55.5" y="45.5"><title>2022-03-28</title></rect><rect fill="#ffae00" height="2.6" width="2.6" x="55.5" y="49.0"><title>2022-03-29 14.1 km</title></rect><rect fill="#ffad00" height="2.6" width="2.6" x="55.5" y="52.5"><title>2022-03-30 14.2 km</title></rect><rect fill="#ffb700" height="2.6" width="2.6" x="55.5" y="56.0"><title>2022-03-31 12.6 km</title></rect><rect fill="#444444" height="2.6" width="2.6" x="55.5" y="59.5"><title>2022-04-01</title></rect><rect fill="#ffbb00" height="2.6" width="2.6" x="55.5" y="63.0"><title>2022-04-02 12.1 km</title></rect><rect fill="#444444" height="2.6" width="2.6" x="55.5" y="66.5"><title>2022-04-03</title></rect><rect fill="red" height="2.6" width="2.6" x="59.0" y="45.5"><title>2022-04-04 27.2 km</title></rect><rect fill="#ffbb00" height="2.6" width="2.6" x="59.0" y="49.0"><title>2022-04-05 12.1 km</title></rect><rect fill="#ffbb00" height="2.6" width="2.6" x="59.0" y="52.5"><title>2022-04-06 12.0 km</title></rect><rect fill="#444444" height="2.6" width="2.6" x="59.0" y="56.0"><title>2022-04-07</title></rect><rect fill="#444444" height="2.6" width="2.6" x="59.0" y="59.5"><title>2022-04-08</title></rect><rect fill="#ffbb00" height="2.6" width="2.6" x="59.0" y="63.0"><title>2022-04-09 12.0 km</title></rect><rect fill="#4dd2ff" height="2.6" width="2.6" x="59.0" y="66.5"><title>2022-04-10 9.9 km</title></rect><rect fill="#444444" height="2.6" width="2.6" x="62.5" y="45.5"><title>2022-04-11</title></rect><rect fill="#ffbb00" height="2.6" width="2.6" x="62.5" y="49.0"><title>2022-04-12 12.1 km</title></rect><rect fill="#ffba00" height="2.6" width="2.6" x="62.5" y="52.5"><title>2022-04-13 12.2 km</title></rect><rect fill="#444444" height="2.6" width="2.6" x="62.5" y="56.0"><title>2022-04-14</title></rect><rect fill="red" height="2.6" width="2.6" x="62.5" y="59.5"><title>2022-04-15 25.0 km</title></rect><rect fill="#444444" height="2.6" width="2.6" x="62.5" y="63.0"><title>2022-04-16</title></rect><rect fill="red" height="2.6" width="2.6" x="62.5" y="66.5"><title>2022-04-17 27.2 km</title></rect><rect fill="#444444" height="2.6" width="2.6" x="66.0" y="45.5"><title>2022-04-18</title></rect><rect fill="#ff9900" height="2.6" width="2.6" x="66.0" y="49.0"><title>2022-04-19 17.4 km</title></rect><rect fill="#ffaa00" height="2.6" width="2.6" x="66.0" y="52.5"><title>2022-04-20 14.8 km</title></rect><rect fill="#ffb900" height="2.6" width="2.6" x="66.0" y="56.0"><title>2022-04-21 12.3 km</title></rect><rect fill="#444444" height="2.6" width="2.6" x="66.0" y="59.5"><title>2022-04-22</title></rect><rect fill="#ffaf00" height="2.6" width="2.6" x="66.0" y="63.0"><title>2022-04-23 14.0 km</title></rect><rect fill="red" height="2.6" width="2.6" x="66.0" y="66.5"><title>2022-04-24 27.1 km</title></rect><rect fill="#444444" height="2.6" width="2.6" x="69.5" y="45.5"><title>2022-04-25</title></rect><rect fill="#ffb000" height="2.6" width="2.6" x="69.5" y="49.0"><title>2022-04-26 13.8 km</title></rect><rect fill="#ffb600" height="2.6" width="2.6" x="69.5" y="52.5"><title>2022-04-27 12.8 km</title></rect><rect fill="#ffb400" height="2.6" width="2.6" x="69.5" y="56.0"><title>2022-04-28 13.1 km</title></rect><rect fill="#444444" height="2.6" width="2.6" x="69.5" y="59.5"><title>2022-04-29</title></rect><rect fill="#ffc400" height="2.6" width="2.6" x="69.5" y="63.0"><title>2022-04-30 10.7 km</title></rect><rect fill="red" height="2.6" width="2.6" x="69.5" y="66.5"><title>2022-05-01 22.0 km</title></rect><rect fill="#444444" height="2.6" width="2.6" x="73.0" y="45.5"><title>2022-05-02</title></rect><rect fill="#ffb300" height="2.6" width="2.6" x="73.0" y="49.0"><title>2022-05-03 13.2 km</title></rect><rect fill="#ffb800" height="2.6" width="2.6" x="73.0" y="52.5"><title>2022-05-04 12.5 km</title></rect><rect fill="#ffba00" height="2.6" width="2.6" x="73.0" y="56.0"><title>2022-05-05 12.2 km</title></rect><rect fill="#ffaf00" height="2.6" width="2.6" x="73.0" y="59.5"><title>2022-05-06 13.9 km</title></rect><rect fill="#444444" height="2.6" width="2.6" x="73.0" y="63.0"><title>2022-05-07</title></rect><rect fill="red" height="2.6" width="2.6" x="73.0" y="66.5"><title>2022-05-08 29.4 km</title></rect><rect fill="#444444" height="2.6" width="2.6" x="76.5" y="45.5"><title>2022-05-09</title></rect><rect fill="#ffa800" height="2.6" width="2.6" x="76.5" y="49.0"><title>2022-05-10 15.1 km</title></rect><rect fill="#ffaa00" height="2.6" width="2.6" x="76.5" y="52.5"><title>2022-05-11 14.8 km</title></rect><rect fill="#4dd2ff" height="2.6" width="2.6" x="76.5" y="56.0"><title>2022-05-12 7.2 km</title></rect><rect fill="#444444" height="2.6" width="2.6" x="76.5" y="59.5"><title>2022-05-13</title></rect><rect fill="#444444" height="2.6" width="2.6" x="76.5" y="63.0"><title>2022-05-14</title></rect><rect fill="red" height="2.6" width="2.6" x="76.5" y="66.5"><title>2022-05-15 41.2 km</title></rect><rect fill="#444444" height="2.6" width="2.6" x="80.0" y="45.5"><title>2022-05-16</title></rect><rect fill="#ffc800" height="2.6" width="2.6" x="80.0" y="49.0"><title>2022-05-17 10.1 km</title></rect><rect fill="#ffa900" height="2.6" width="2.6" x="80.0" y="52.5"><title>2022-05-18 14.9 km</title></rect><rect fill="#ffb400" height="2.6" width="2.6" x="80.0" y="56.0"><title>2022-05-19 13.1 km</title></rect><rect fill="#444444" height="2.6" width="2.6" x="80.0" y="59.5"><title>2022-05-20</title></rect><rect fill="#ffa500" height="2.6" width="2.6" x="80.0" y="63.0"><title>2022-05-21 15.5 km</title></rect><rect fill="#4dd2ff" height="2.6" width="2.6" x="80.0" y="66.5"><title>2022-05-22 7.3 km</title></rect><rect fill="#4dd2ff" height="2.6" width="2.6" x="83.5" y="45.5"><title>2022-05-23 8.8 km</title></rect><rect fill="#ffa200" height="2.6" width="2.6" x="83.5" y="49.0"><title>2022-05-24 15.9 km</title></rect><rect fill="#ffbd00" height="2.6" width="2.6" x="83.5" y="52.5"><title>2022-05-25 11.8 km</title></rect><rect fill="#ffbb00" height="2.6" width="2.6" x="83.5" y="56.0"><title>2022-05-26 12.0 km</title></rect><rect fill="#4dd2ff" height="2.6" width="2.6" x="83.5" y="59.5"><title>2022-05-27 8.5 km</title></rect><rect fill="#444444" height="2.6" width="2.6" x="83.5" y="63.0"><title>2022-05-28</title></rect><rect fill="#ff9600" height="2.6" width="2.6" x="83.5" y="66.5"><title>2022-05-29 17.9 km</title></rect><rect fill="#444444" height="2.6" width="2.6" x="87.0" y="45.5"><title>2022-05-30</title></rect><rect fill="#ffb000" height="2.6" width="2.6" x="87.0" y="49.0"><title>2022-05-31 13.7 km</title></rect><rect fill="#ffa100" height="2.6" width="2.6" x="87.0" y="52.5"><title>2022-06-01 16.2 km</title></rect><rect fill="#ffb900" height="2.6" width="2.6" x="87.0" y="56.0"><title>2022-06-02 12.4 km</title></rect><rect fill="#444444" height="2.6" width="2.6" x="87.0" y="59.5"><title>2022-06-03</title></rect><rect fill="#444444" height="2.6" width="2.6" x="87.0" y="63.0"><title>2022-06-04</title></rect><rect fill="#444444" height="2.6" width="2.6" x="87.0" y="66.5"><title>2022-06-05</title></rect><rect fill="#4dd2ff" height="2.6" width="2.6" x="90.5" y="45.5"><title>2022-06-06 9.7 km</title></rect><rect fill="#ffb500" height="2.6" width="2.6" x="90.5" y="49.0"><title>2022-06-07 13.0 km</title></rect><rect fill="#ff9d00" height="2.6" width="2.6" x="90.5" y="52.5"><title>2022-06-08 16.7 km</title></rect><rect fill="#ffbb00" height="2.6" width="2.6" x="90.5" y="56.0"><title>2022-06-09 12.0 km</title></rect><rect fill="#444444" height="2.6" width="2.6" x="90.5" y="59.5"><title>2022-06-10</title></rect><rect fill="#ffbf00" height="2.6" width="2.6" x="90.5" y="63.0"><title>2022-06-11 11.5 km</title></rect><rect fill="#444444" height="2.6" width="2.6" x="90.5" y="66.5"><title>2022-06-12</title></rect><rect fill="#444444" height="2.6" width="2.6" x="94.0" y="45.5"><title>2022-06-13</title></rect><rect fill="#4dd2ff" height="2.6" width="2.6" x="94.0" y="49.0"><title>2022-06-14 7.0 km</title></rect><rect fill="#4dd2ff" height="2.6" width="2.6" x="94.0" y="52.5"><title>2022-06-15 6.2 km</title></rect><rect fill="#ffa900" height="2.6" width="2.6" x="94.0" y="56.0"><title>2022-06-16 14.9 km</title></rect><rect fill="#444444" height="2.6" width="2.6" x="94.0" y="59.5"><title>2022-06-17</title></rect><rect fill="#4dd2ff" height="2.6" width="2.6" x="94.0" y="63.0"><title>2022-06-18 5.3 km</title></rect><rect fill="#4dd2ff" height="2.6" width="2.6" x="94.0" y="66.5"><title>2022-06-19 9.1 km</title></rect><rect fill="#ffc000" height="2.6" width="2.6" x="97.5" y="45.5"><title>2022-06-20 11.3 km</title></rect><rect fill="#4dd2ff" height="2.6" width="2.6" x="97.5" y="49.0"><title>2022-06-21 7.5 km</title></rect><rect fill="#ff9e00" height="2.6" width="2.6" x="97.5" y="52.5"><title>2022-06-22 16.6 km</title></rect><rect fill="#4dd2ff" height="2.6" width="2.6" x="97.5" y="56.0"><title>2022-06-23 6.8 km</title></rect><rect fill="#444444" height="2.6" width="2.6" x="97.5" y="59.5"><title>2022-06-24</title></rect><rect fill="#4dd2ff" height="2.6" width="2.6" x="97.5" y="63.0"><title>2022-06-25 8.4 km</title></rect><rect fill="#444444" height="2.6" width="2.6" x="97.5" y="66.5"><title>2022-06-26</title></rect><rect fill="#444444" height="2.6" width="2.6" x="101.0" y="45.5"><title>2022-06-27</title></rect><rect fill="#4dd2ff" height="2.6" width="2.6" x="101.0" y="49.0"><title>2022-06-28 6.4 km</title></rect><rect fill="#ffc200" height="2.6" width="2.6" x="101.0" y="52.5"><title>2022-06-29 11.0 km</title></rect><rect fill="#ffbc00" height="2.6" width="2.6" x="101.0" y="56.0"><title>2022-06-30 11.9 km</title></rect><rect fill="#444444" height="2.6" width="2.6" x="101.0" y="59.5"><title>2022-07-01</title></rect><rect fill="#ffc500" height="2.6" width="2.6" x="101.0" y="63.0"><title>2022-07-02 10.5 km</title></rect><rect fill="#444444" height="2.6" width="2.6" x="101.0" y="66.5"><title>2022-07-03</title></rect><rect fill="#4dd2ff" height="2.6" width="2.6" x="104.5" y="45.5"><title>2022-07-04 10.0 km</title></rect><rect fill="#ffc300" height="2.6" width="2.6" x="104.5" y="49.0"><title>2022-07-05 10.8 km</title></rect><rect fill="#ffb900" height="2.6" width="2.6" x="104.5" y="52.5"><title>2022-07-06 12.3 km</title></rect><rect fill="#ffc700" height="2.6" width="2.6" x="104.5" y="56.0"><title>2022-07-07 10.2 km</title></rect><rect fill="#444444" height="2.6" width="2.6" x="104.5" y="59.5"><title>2022-07-08</title></rect><rect fill="#4dd2ff" height="2.6" width="2.6" x="104.5" y="63.0"><title>2022-07-09 3.1 km</title></rect><rect fill="#444444" height="2.6" width="2.6" x="104.5" y="66.5"><title>2022-07-10</title></rect><rect fill="#4dd2ff" height="2.6" width="2.6" x="108.0" y="45.5"><title>2022-07-11 5.9 km</title></rect><rect fill="#4dd2ff" height="2.6" width="2.6" x="108.0" y="49.0"><title>2022-07-12 6.1 km</title></rect><rect fill="#4dd2ff" height="2.6" width="2.6" x="108.0" y="52.5"><title>2022-07-13 6.2 km</title></rect><rect fill="#4dd2ff" height="2.6" width="2.6" x="108.0" y="56.0"><title>2022-07-14 6.2 km</title></rect><rect fill="#4dd2ff" height="2.6" width="2.6" x="108.0" y="59.5"><title>2022-07-15 5.6 km</title></rect><rect fill="#ffc400" height="2.6" width="2.6" x="108.0" y="63.0"><title>2022-07-16 10.7 km</title></rect><rect fill="#444444" height="2.6" width="2.6" x="108.0" y="66.5"><title>2022-07-17</title></rect><rect fill="#4dd2ff" height="2.6" width="2.6" x="111.5" y="45.5"><title>2022-07-18 9.9 km</title></rect><rect fill="#444444" height="2.6" width="2.6" x="111.5" y="49.0"><title>2022-07-19</title></rect><rect fill="#4dd2ff" height="2.6" width="2.6" x="111.5" y="52.5"><title>2022-07-20 7.5 km</title></rect><rect fill="#4dd2ff" height="2.6" width="2.6" x="111.5" y="56.0"><title>2022-07-21 5.0 km</title></rect><rect fill="#4dd2ff" height="2.6" width="2.6" x="111.5" y="59.5"><title>2022-07-22 3.9 km</title></rect><rect fill="#444444" height="2.6" width="2.6" x="111.5" y="63.0"><title>2022-07-23</title></rect><rect fill="red" height="2.6" width="2.6" x="111.5" y="66.5"><title>2022-07-24 21.4 km</title></rect><rect fill="#444444" height="2.6" width="2.6" x="115.0" y="45.5"><title>2022-07-25</title></rect><rect fill="#4dd2ff" height="2.6" width="2.6" x="115.0" y="49.0"><title>2022-07-26 3.1 km</title></rect><rect fill="red" height="2.6" width="2.6" x="115.0" y="52.5"><title>2022-07-27 20.4 km</title></rect><rect fill="#4dd2ff" height="2.6" width="2.6" x="115.0" y="56.0"><title>2022-07-28 9.9 km</title></rect><rect fill="#444444" height="2.6" width="2.6" x="115.0" y="59.5"><title>2022-07-29</title></rect><rect fill="#444444" height="2.6" width="2.6" x="115.0" y="63.0"><title>2022-07-30</title></rect><rect fill="#ffc100" height="2.6" width="2.6" x="115.0" y="66.5"><title>2022-07-31 11.2 km</title></rect><rect fill="#444444" height="2.6" width="2.6" x="118.5" y="45.5"><title>2022-08-01</title></rect><rect fill="#4dd2ff" height="2.6" width="2.6" x="118.5" y="49.0"><title>2022-08-02 5.1 km</title></rect><rect fill="#ffc600" height="2.6" width="2.6" x="118.5" y="52.5"><title>2022-08-03 10.4 km</title></rect><rect fill="#444444" height="2.6" width="2.6" x="118.5" y="56.0"><title>2022-08-04</title></rect><rect fill="#444444" height="2.6" width="2.6" x="118.5" y="59.5"><title>2022-08-05</title></rect><rect fill="#444444" height="2.6" width="2.6" x="118.5" y="63.0"><title>2022-08-06</title></rect><rect fill="#444444" height="2.6" width="2.6" x="118.5" y="66.5"><title>2022-08-07</title></rect><rect fill="#444444" height="2.6" width="2.6" x="122.0" y="45.5"><title>2022-08-08</title></rect><rect fill="#444444" height="2.6" width="2.6" x="122.0" y="49.0"><title>2022-08-09</title></rect><rect fill="#444444" height="2.6" width="2.6" x="122.0" y="52.5"><title>2022-08-10</title></rect><rect fill="#444444" height="2.6" width="2.6" x="122.0" y="56.0"><title>2022-08-11</title></rect><rect fill="#444444" height="2.6" width="2.6" x="122.0" y="59.5"><title>2022-08-12</title></rect><rect fill="#444444" height="2.6" width="2.6" x="122.0" y="63.0"><title>2022-08-13</title></rect><rect fill="#444444" height="2.6" width="2.6" x="122.0" y="66.5"><title>2022-08-14</title></rect><rect fill="#444444" height="2.6" width="2.6" x="125.5" y="45.5"><title>2022-08-15</title></rect><rect fill="#444444" height="2.6" width="2.6" x="125.5" y="49.0"><title>2022-08-16</title></rect><rect fill="#444444" height="2.6" width="2.6" x="125.5" y="52.5"><title>2022-08-17</title></rect><rect fill="#444444" height="2.6" width="2.6" x="125.5" y="56.0"><title>2022-08-18</title></rect><rect fill="#444444" height="2.6" width="2.6" x="125.5" y="59.5"><title>2022-08-19</title></rect><rect fill="#444444" height="2.6" width="2.6" x="125.5" y="63.0"><title>2022-08-20</title></rect><rect fill="#444444" height="2.6" width="2.6" x="125.5" y="66.5"><title>2022-08-21</title></rect><rect fill="#444444" height="2.6" width="2.6" x="129.0" y="45.5"><title>2022-08-22</title></rect><rect fill="#444444" height="2.6" width="2.6" x="129.0" y="49.0"><title>2022-08-23</title></rect><rect fill="#444444" height="2.6" width="2.6" x="129.0" y="52.5"><title>2022-08-24</title></rect><rect fill="#444444" height="2.6" width="2.6" x="129.0" y="56.0"><title>2022-08-25</title></rect><rect fill="#444444" height="2.6" width="2.6" x="129.0" y="59.5"><title>2022-08-26</title></rect><rect fill="#444444" height="2.6" width="2.6" x="129.0" y="63.0"><title>2022-08-27</title></rect><rect fill="#444444" height="2.6" width="2.6" x="129.0" y="66.5"><title>2022-08-28</title></rect><rect fill="#444444" height="2.6" width="2.6" x="132.5" y="45.5"><title>2022-08-29</title></rect><rect fill="#4dd2ff" height="2.6" width="2.6" x="132.5" y="49.0"><title>2022-08-30 5.4 km</title></rect><rect fill="#4dd2ff" height="2.6" width="2.6" x="132.5" y="52.5"><title>2022-08-31 5.3 km</title></rect><rect fill="#444444" height="2.6" width="2.6" x="132.5" y="56.0"><title>2022-09-01</title></rect><rect fill="#4dd2ff" height="2.6" width="2.6" x="132.5" y="59.5"><title>2022-09-02 9.1 km</title></rect><rect fill="#ff9f00" height="2.6" width="2.6" x="132.5" y="63.0"><title>2022-09-03 16.4 km</title></rect><rect fill="#ff9500" height="2.6" width="2.6" x="132.5" y="66.5"><title>2022-09-04 18.0 km</title></rect><rect fill="#ffbb00" height="2.6" width="2.6" x="136.0" y="45.5"><title>2022-09-05 12.1 km</title></rect><rect fill="#ff9a00" height="2.6" width="2.6" x="136.0" y="49.0"><title>2022-09-06 17.1 km</title></rect><rect fill="#ffa300" height="2.6" width="2.6" x="136.0" y="52.5"><title>2022-09-07 15.8 km</title></rect><rect fill="#4dd2ff" height="2.6" width="2.6" x="136.0" y="56.0"><title>2022-09-08 8.8 km</title></rect><rect fill="#ffa300" height="2.6" width="2.6" x="136.0" y="59.5"><title>2022-09-09 15.9 km</title></rect><rect fill="#444444" height="2.6" width="2.6" x="136.0" y="63.0"><title>2022-09-10</title></rect><rect fill="#4dd2ff" height="2.6" width="2.6" x="136.0" y="66.5"><title>2022-09-11 5.5 km</title></rect><rect fill="#ffbf00" height="2.6" width="2.6" x="139.5" y="45.5"><title>2022-09-12 11.4 km</title></rect><rect fill="#444444" height="2.6" width="2.6" x="139.5" y="49.0"><title>2022-09-13</title></rect><rect fill="#4dd2ff" height="2.6" width="2.6" x="139.5" y="52.5"><title>2022-09-14 9.5 km</title></rect><rect fill="#444444" height="2.6" width="2.6" x="139.5" y="56.0"><title>2022-09-15</title></rect><rect fill="#ff8c00" height="2.6" width="2.6" x="139.5" y="59.5"><title>2022-09-16 19.4 km</title></rect><rect fill="#ffb300" height="2.6" width="2.6" x="139.5" y="63.0"><title>2022-09-17 13.4 km</title></rect><rect fill="#444444" height="2.6" width="2.6" x="139.5" y="66.5"><title>2022-09-18</title></rect><rect fill="#ffb200" height="2.6" width="2.6" x="143.0" y="45.5"><title>2022-09-19 13.4 km</title></rect><rect fill="#ffc200" height="2.6" width="2.6" x="143.0" y="49.0"><title>2022-09-20 11.0 km</title></rect><rect fill="#ffc200" height="2.6" width="2.6" x="143.0" y="52.5"><title>2022-09-21 11.0 km</title></rect><rect fill="#ffa300" height="2.6" width="2.6" x="143.0" y="56.0"><title>2022-09-22 15.8 km</title></rect><rect fill="#ffb200" height="2.6" width="2.6" x="143.0" y="59.5"><title>2022-09-23 13.4 km</title></rect><rect fill="#ffc300" height="2.6" width="2.6" x="143.0" y="63.0"><title>2022-09-24 10.8 km</title></rect><rect fill="#444444" height="2.6" width="2.6" x="143.0" y="66.5"><title>2022-09-25</title></rect><rect fill="#ffa200" height="2.6" width="2.6" x="146.5" y="45.5"><title>2022-09-26 15.9 km</title></rect><rect fill="#ffc300" height="2.6" width="2.6" x="146.5" y="49.0"><title>2022-09-27 10.8 km</title></rect><rect fill="#4dd2ff" height="2.6" width="2.6" x="146.5" y="52.5"><title>2022-09-28 4.0 km</title></rect><rect fill="#ffc200" height="2.6" width="2.6" x="146.5" y="56.0"><title>2022-09-29 10.9 km</title></rect><rect fill="#ffae00" height="2.6" width="2.6" x="146.5" y="59.5"><title>2022-09-30 14.2 km</title></rect><rect fill="#444444" height="2.6" width="2.6" x="146.5" y="63.0"><title>2022-10-01</title></rect><rect fill="#ffc700" height="2.6" width="2.6" x="146.5" y="66.5"><title>2022-10-02 10.2 km</title></rect><rect fill="#444444" height="2.6" width="2.6" x="150.0" y="45.5"><title>2022-10-03</title></rect><rect fill="#ff9f00" height="2.6" width="2.6" x="150.0" y="49.0"><title>2022-10-04 16.4 km</title></rect><rect fill="#444444" height="2.6" width="2.6" x="150.0" y="52.5"><title>2022-10-05</title></rect><rect fill="#444444" height="2.6" width="2.6" x="150.0" y="56.0"><title>2022-10-06</title></rect><rect fill="#ffa800" height="2.6" width="2.6" x="150.0" y="59.5"><title>2022-10-07 15.0 km</title></rect><rect fill="#ffa000" height="2.6" width="2.6" x="150.0" y="63.0"><title>2022-10-08 16.4 km</title></rect><rect fill="#ffc800" height="2.6" width="2.6" x="150.0" y="66.5"><title>2022-10-09 10.1 km</title></rect><rect fill="#ffa000" height="2.6" width="2.6" x="153.5" y="45.5"><title>2022-10-10 16.2 km</title></rect><rect fill="#ffc600" height="2.6" width="2.6" x="153.5" y="49.0"><title>2022-10-11 10.4 km</title></rect><rect fill="#ffa100" height="2.6" width="2.6" x="153.5" y="52.5"><title>2022-10-12 16.1 km</title></rect><rect fill="#4dd2ff" height="2.6" width="2.6" x="153.5" y="56.0"><title>2022-10-13 6.2 km</title></rect><rect fill="#4dd2ff" height="2.6" width="2.6" x="153.5" y="59.5"><title>2022-10-14 5.0 km</title></rect><rect fill="#ffc400" height="2.6" width="2.6" x="153.5" y="63.0"><title>2022-10-15 10.7 km</title></rect><rect fill="#4dd2ff" height="2.6" width="2.6" x="153.5" y="66.5"><title>2022-10-16 5.8 km</title></rect><rect fill="#ffa400" height="2.6" width="2.6" x="157.0" y="45.5"><title>2022-10-17 15.6 km</title></rect><rect fill="red" height="2.6" width="2.6" x="157.0" y="49.0"><title>2022-10-18 24.5 km</title></rect><rect fill="#ffa000" height="2.6" width="2.6" x="157.0" y="52.5"><title>2022-10-19 16.3 km</title></rect><rect fill="#444444" height="2.6" width="2.6" x="157.0" y="56.0"><title>2022-10-20</title></rect><rect fill="#ffc400" height="2.6" width="2.6" x="157.0" y="59.5"><title>2022-10-21 10.7 km</title></rect><rect fill="#444444" height="2.6" width="2.6" x="157.0" y="63.0"><title>2022-10-22</title></rect><rect fill="#ff9500" height="2.6" width="2.6" x="157.0" y="66.5"><title>2022-10-23 18.0 km</title></rect><rect fill="#4dd2ff" height="2.6" width="2.6" x="160.5" y="45.5"><title>2022-10-24 3.5 km</title></rect><rect fill="#4dd2ff" height="2.6" width="2.6" x="160.5" y="49.0"><title>2022-10-25 8.1 km</title></rect><rect fill="#444444" height="2.6" width="2.6" x="160.5" y="52.5"><title>2022-10-26</title></rect><rect fill="#444444" height="2.6" width="2.6" x="160.5" y="56.0"><title>2022-10-27</title></rect><rect fill="#444444" height="2.6" width="2.6" x="160.5" y="59.5"><title>2022-10-28</title></rect><rect fill="#444444" height="2.6" width="2.6" x="160.5" y="63.0"><title>2022-10-29</title></rect><rect fill="#444444" height="2.6" width="2.6" x="160.5" y="66.5"><title>2022-10-30</title></rect><rect fill="#ffc400" height="2.6" width="2.6" x="164.0" y="45.5"><title>2022-10-31 10.6 km</title></rect><rect fill="#444444" height="2.6" width="2.6" x="164.0" y="49.0"><title>2022-11-01</title></rect><rect fill="#444444" height="2.6" width="2.6" x="164.0" y="52.5"><title>2022-11-02</title></rect><rect fill="#4dd2ff" height="2.6" width="2.6" x="164.0" y="56.0"><title>2022-11-03 9.2 km</title></rect><rect fill="#ffae00" height="2.6" width="2.6" x="164.0" y="59.5"><title>2022-11-04 14.1 km</title></rect><rect fill="#4dd2ff" height="2.6" width="2.6" x="164.0" y="63.0"><title>2022-11-05 2.0 km</title></rect><rect fill="#444444" height="2.6" width="2.6" x="164.0" y="66.5"><title>2022-11-06</title></rect><rect fill="#ffaf00" height="2.6" width="2.6" x="167.5" y="45.5"><title>2022-11-07 13.9 km</title></rect><rect fill="#444444" height="2.6" width="2.6" x="167.5" y="49.0"><title>2022-11-08</title></rect><rect fill="#ffc800" height="2.6" width="2.6" x="167.5" y="52.5"><title>2022-11-09 10.1 km</title></rect><rect fill="#4dd2ff" height="2.6" width="2.6" x="167.5" y="56.0"><title>2022-11-10 1.5 km</title></rect><rect fill="#444444" height="2.6" width="2.6" x="167.5" y="59.5"><title>2022-11-11</title></rect><rect fill="#ffb100" height="2.6" width="2.6" x="167.5" y="63.0"><title>2022-11-12 13.6 km</title></rect><rect fill="#444444" height="2.6" width="2.6" x="167.5" y="66.5"><title>2022-11-13</title></rect><rect fill="#444444" height="2.6" width="2.6" x="171.0" y="45.5"><title>2022-11-14</title></rect><rect fill="#4dd2ff" height="2.6" width="2.6" x="171.0" y="49.0"><title>2022-11-15 9.1 km</title></rect><rect fill="#ffbf00" height="2.6" width="2.6" x="171.0" y="52.5"><title>2022-11-16 11.4 km</title></rect><rect fill="#444444" height="2.6" width="2.6" x="171.0" y="56.0"><title>2022-11-17</title></rect><rect fill="#ffa800" height="2.6" width="2.6" x="171.0" y="59.5"><title>2022-11-18 15.0 km</title></rect><rect fill="#ffbe00" height="2.6" width="2.6" x="171.0" y="63.0"><title>2022-11-19 11.7 km</title></rect><rect fill="#444444" height="2.6" width="2.6" x="171.0" y="66.5"><title>2022-11-20</title></rect><rect fill="#ffad00" height="2.6" width="2.6" x="174.5" y="45.5"><title>2022-11-21 14.2 km</title></rect><rect fill="#ffc000" height="2.6" width="2.6" x="174.5" y="49.0"><title>2022-11-22 11.2 km</title></rect><rect fill="#444444" height="2.6" width="2.6" x="174.5" y="52.5"><title>2022-11-23</title></rect><rect fill="#4dd2ff" height="2.6" width="2.6" x="174.5" y="56.0"><title>2022-11-24 7.5 km</title></rect><rect fill="#444444" height="2.6" width="2.6" x="174.5" y="59.5"><title>2022-11-25</title></rect><rect fill="#ffb400" height="2.6" width="2.6" x="174.5" y="63.0"><title>2022-11-26 13.2 km</title></rect><rect fill="#444444" height="2.6" width="2.6" x="174.5" y="66.5"><title>2022-11-27</title></rect><rect fill="#4dd2ff" height="2.6" width="2.6" x="178.0" y="45.5"><title>2022-11-28 8.1 km</title></rect><rect fill="#444444" height="2.6" width="2.6" x="178.0" y="49.0"><title>2022-11-29</title></rect><rect fill="#ffb200" height="2.6" width="2.6" x="178.0" y="52.5"><title>2022-11-30 13.5 km</title></rect><rect fill="#ffae00" height="2.6" width="2.6" x="178.0" y="56.0"><title>2022-12-01 14.1 km</title></rect><rect fill="#444444" height="2.6" width="2.6" x="178.0" y="59.5"><title>2022-12-02</title></rect><rect fill="#ffa900" height="2.6" width="2.6" x="178.0" y="63.0"><title>2022-12-03 14.9 km</title></rect><rect fill="#444444" height="2.6" width="2.6" x="178.0" y="66.5"><title>2022-12-04</title></rect><rect fill="#ffbb00" height="2.6" width="2.6" x="181.5" y="45.5"><title>2022-12-05 12.0 km</title></rect><rect fill="#ffb500" height="2.6" width="2.6" x="181.5" y="49.0"><title>2022-12-06 13.0 km</title></rect><rect fill="#ffb100" height="2.6" width="2.6" x="181.5" y="52.5"><title>2022-12-07 13.7 km</title></rect><rect fill="#444444" height="2.6" width="2.6" x="181.5" y="56.0"><title>2022-12-08</title></rect><rect fill="#ff9300" height="2.6" width="2.6" x="181.5" y="59.5"><title>2022-12-09 18.3 km</title></rect><rect fill="#444444" height="2.6" width="2.6" x="181.5" y="63.0"><title>2022-12-10</title></rect><rect fill="#444444" height="2.6" width="2.6" x="181.5" y="66.5"><title>2022-12-11</title></rect><rect fill="#4dd2ff" height="2.6" width="2.6" x="185.0" y="45.5"><title>2022-12-12 2.3 km</title></rect><rect fill="#ff8d00" height="2.6" width="2.6" x="185.0" y="49.0"><title>2022-12-13 19.3 km</title></rect><rect fill="#444444" height="2.6" width="2.6" x="185.0" y="52.5"><title>2022-12-14</title></rect><rect fill="#444444" height="2.6" width="2.6" x="185.0" y="56.0"><title>2022-12-15</title></rect><rect fill="#444444" height="2.6" width="2.6" x="185.0" y="59.5"><title>2022-12-16</title></rect><rect fill="#444444" height="2.6" width="2.6" x="185.0" y="63.0"><title>2022-12-17</title></rect><rect fill="#444444" height="2.6" width="2.6" x="185.0" y="66.5"><title>2022-12-18</title></rect><rect fill="#444444" height="2.6" width="2.6" x="188.5" y="45.5"><title>2022-12-19</title></rect><rect fill="#444444" height="2.6" width="2.6" x="188.5" y="49.0"><title>2022-12-20</title></rect><rect fill="#444444" height="2.6" width="2.6" x="188.5" y="52.5"><title>2022-12-21</title></rect><rect fill="#444444" height="2.6" width="2.6" x="188.5" y="56.0"><title>2022-12-22</title></rect><rect fill="#444444" height="2.6" width="2.6" x="188.5" y="59.5"><title>2022-12-23</title></rect><rect fill="#444444" height="2.6" width="2.6" x="188.5" y="63.0"><title>2022-12-24</title></rect><rect fill="#444444" height="2.6" width="2.6" x="188.5" y="66.5"><title>2022-12-25</title></rect><rect fill="#444444" height="2.6" width="2.6" x="192.0" y="45.5"><title>2022-12-26</title></rect><rect fill="#444444" height="2.6" width="2.6" x="192.0" y="49.0"><title>2022-12-27</title></rect><rect fill="#444444" height="2.6" width="2.6" x="192.0" y="52.5"><title>2022-12-28</title></rect><rect fill="#444444" height="2.6" width="2.6" x="192.0" y="56.0"><title>2022-12-29</title></rect><rect fill="#444444" height="2.6" width="2.6" x="192.0" y="59.5"><title>2022-12-30</title></rect><rect fill="#444444" height="2.6" width="2.6" x="192.0" y="63.0"><title>2022-12-31</title></rect></svg>