<?xml version="1.0" encoding="utf-8" ?>
<svg baseProfile="full" height="300mm" version="1.1" viewBox="0,0,200,300" width="200mm" xmlns="http://www.w3.org/2000/svg" xmlns:ev="http://www.w3.org/2001/xml-events" xmlns:xlink="http://www.w3.org/1999/xlink"><defs /><rect fill="#222222" height="300" width="200" x="0" y="0" /><text fill="#FFFFFF" style="font-size:12px; font-family:Arial; font-weight:bold;" x="10" y="20">Over 10km Runs</text><text fill="#FFFFFF" style="font-size:4px; font-family:Arial" x="10" y="280">ATHLETE</text><text fill="#FFFFFF" style="font-size:9px; font-family:Arial" x="10" y="290">周观云</text><text fill="#FFFFFF" style="font-size:4px; font-family:Arial" x="120" y="280">STATISTICS</text><text fill="#FFFFFF" style="font-size:3px; font-family:Arial" x="120" y="285">Number: 4</text><text fill="#FFFFFF" style="font-size:3px; font-family:Arial" x="120" y="290">Weekly: 1.3</text><text fill="#FFFFFF" style="font-size:3px; font-family:Arial" x="141" y="285">Total: 51.5 km</text><text fill="#FFFFFF" style="font-size:3px; font-family:Arial" x="141" y="290">Avg: 12.9 km</text><text fill="#FFFFFF" style="font-size:3px; font-family:Arial" x="167" y="285">Min: 10.2 km</text><text fill="#FFFFFF" style="font-size:3px; font-family:Arial" x="167" y="290">Max: 15.8 km</text><polyline fill="none" points="76.60328392148949,108.94831721487571 76.15673937438987,109.09178785535914 75.68313152139308,109.15555253942148 74.97948556847405,109.31496412826527 73.77516845666105,109.4424932745751 73.1662440742366,109.61784566975257 72.77382613898953,109.71349234234367 71.48831910948502,109.84102114214329 70.6764199329773,109.98449090939539 70.32459695654688,109.95260875101667 69.98630563297775,110.00043198594358 69.68860926822526,109.96854983104276 68.30838066816796,110.30331211180601 68.20012744463747,110.39895833742048 68.01068430341547,110.43084039881069 67.59120306227123,110.41489936893049 66.698113968072,110.5902506014827 65.0337206562399,111.0844211289077 64.478922885668,111.30759436968947 64.0188466857071,111.43512178337551 63.78880858566845,111.4510627023119 62.8145295738359,111.4510627023119 61.907908826717176,111.61047179620073 61.27192113845376,111.62641269604501 60.83890824433183,111.7061171693349 60.39236369729042,111.75393983251706 60.16232559730997,111.75393983251706 59.78343931486597,111.7061171693349 59.16098327952204,111.84958511211153 58.74150203843601,111.89740772852383 58.0919826971367,111.91334859721246 57.875476250075735,111.96117119283008 57.2665518677677,112.15246141939133 57.06357707356801,112.12057973226183 56.44112103828229,111.88146685813263 56.2381462440826,111.84958511211153 55.81866500293836,112.05681633729546 55.14208235585829,112.20028393703979 54.966170867555775,112.29592892555229 54.912044255877845,112.42345547991863 54.87144929706119,112.58286351696006 54.736132767633535,112.67850825599453 54.50609466759488,112.72633060210501 53.78891706169816,112.72633060210501 52.625194908701815,112.93356058852805 52.002738873357885,112.96544209890999 51.75916912039975,112.99732360236521 51.08258647331968,113.17267174749577 50.433067132136784,113.22049393254565 49.75648448505672,113.37990110331157 48.18681274377741,113.60307085131353 47.75379984971369,113.6987149251072 47.13134381436976,113.76247760627302 46.441229514312,113.98564677219838 46.157064802595414,113.96970612875884 45.76464686723193,114.14505311140965 44.736241243663244,114.24069683178095 43.883747108338866,114.44792467862135 42.625303384731524,114.6232710895274 42.15169553179294,114.63921166192449 41.678087678854354,114.71891449808027 41.47511288471287,114.79861729087133 41.326264702365734,114.92614166927524 40.974441725818906,115.40435710077872 40.798530237632804,115.5 40.554960484674666,115.46811904052447 40.297859078797046,115.29277363955043 39.864846184675116,114.6232710895274 38.91763047873974,113.30019753957458 37.68625006102957,111.92928946414031 36.63078113156371,110.65401463409944 36.48193294927478,110.4467814268719 36.18423658446409,109.85696223430568 35.94066683150595,109.4424932745751 35.53471724328119,108.54978692154691 35.453527325589675,108.31066822572029 35.14229930797592,107.16289305883402 34.8851979020983,106.4933533964795 34.81753963738447,106.27017282976885 34.80400798440678,106.04699192340195 34.87166624912061,105.60062909177213 34.80400798440678,105.10644008629606 34.56043823144864,104.42094935390924 34.45218500791816,103.97458157308574 34.0462354196934,102.85865617675881 34.03270376671571,102.63547007854504 34.11389368440723,102.46010933442449 34.154488643223885,102.25286454833986 34.12742533732671,102.04561946932517 33.85679227852961,101.13692605016695 33.450842690246645,100.05286337723373 33.23433624318568,99.12821535261173 33.15314632555237,98.90502357657533 32.97723483730806,98.47458133484179 32.666006819636095,97.62963548203697 32.30065219022799,96.84845479602518 31.948829213681165,95.98755697463639 31.48875301372027,95.25419558434805 31.177524996048305,94.64837253891164 30.62272722547641,93.65991903825488 30.284435901907273,93.11786106364161 29.878486313682515,92.33665633968485 29.256030278338585,90.90177967643831 28.863612342975102,89.65820854253252 28.76889077242231,89.19585248234216 28.66063754883362,88.49434395138815 28.444131101830862,87.60151005731313 28.41706779593369,87.36235719817341 28.41706779593369,86.86810671958665 28.484726060647517,86.15064338249795 28.552384325303137,84.7635376410617 28.60651093715569,84.36494160963048 28.836549037136137,83.44019464281155 28.850080690113828,82.99376298477 28.904207301849965,82.77054664595926 29.039523831161205,82.30816886282992 29.188372013624758,81.38340892137785 29.459005072480068,80.25136725812627 29.837891354807653,78.8323167689523 30.067929454846308,77.20597234774323 30.135587719501927,76.32901443618175 30.135587719501927,75.61149951517291 30.176182678318582,74.90992597398872 30.149119372479618,73.93728437328537 30.054397801868618,73.01247161932406 30.040866149007343,72.55006305413553 29.878486313682515,71.44984370631573 29.878486313682515,70.04665342418593 29.892017966601998,69.80747192230774 30.00027119013248,69.32910774754419 30.054397801868618,68.45210270531243 30.094992760685273,68.19697298033861 30.541537307784893,66.31537754215242 30.852765325515065,64.68889422199572 30.96101854898734,64.00321447207534 31.177524996048305,63.11023138319433 31.177524996048305,62.488329231899115 31.366968137212098,61.67506859014975 31.434626401984133,60.97342833135917 31.556411278434098,59.34688571942388 31.583474584273063,59.21931298622803 31.7323227666202,58.69307428810862 31.74585441959789,58.5336076427775 31.556411278434098,57.544910568525665 31.529347972536925,56.23726870775863 31.434626401984133,55.28045019667479 31.434626401984133,55.00935048262181 31.47522136074258,54.73825026690611 31.66466450196458,54.020629627702874 31.948829213681165,53.1275857014989 32.232993925514165,52.58537780493498 32.32771549606696,52.36211514667957 32.62541186087765,51.37337642768398 32.774260043224785,50.95874207590532 32.86898161377758,50.767371979309246 33.004298143147025,50.54410655068932 33.93798219616292,49.34803596092388 34.506311619712505,48.53470238238515 35.047577737423126,48.02437312582333 35.4399956727284,47.70541643773322 35.60237550799502,47.52998996322276 36.15717327862512,46.652854440093506 36.31955311394995,46.44553073089628 36.766097660933156,45.91924615149037 36.90141419041902,45.72786947200075 37.25323716690764,45.08994540151616 38.40342766692629,43.734347528385115 39.08001031400636,42.68175699876156 39.37770667875884,42.26709804685379 39.89190949051408,41.645107418240514 40.47377056698315,40.79983386921231 41.881062472995836,36.716934461379424 42.0028473494458,36.525545759286615 42.17875883769011,36.3979531522491 42.368201978853904,36.30225862409861 42.571176772995386,36.2544113365293 42.977126361220144,36.20656403337489 43.626645702461246,36.20656403337489 44.88508942606859,35.88758161281294 45.31810232013231,35.74403929691471 45.71052025543759,35.56859849757166 46.08940653788159,35.44100505700044 47.05015389667824,35.20176705630729 47.469635137938894,35.153919409247465 47.67260993202217,35.09012252227694 48.484509108471684,34.77113767033734 49.106965143815614,34.61164498385915 49.32347159087658,34.59569570567692 49.95945927913999,34.56379714405921 51.123181432136334,34.78708692941291 51.46147275576368,34.61164498385915 51.664447549846955,34.54784786066739 52.30043523811037,34.5 53.17999267927371,34.5 53.3829674734734,34.5 54.23546160873957,34.6275942602806 54.83085433818633,34.739239146889304 55.27739888522774,34.755188409486436 55.72394343238557,34.818985442398116 56.61703252658481,34.866833198815584 56.833538973587565,34.9146809396625 57.21242525591515,35.12202096924011 57.42893170309253,35.18581784234266 58.078451044275425,35.29746230346791 58.497932285419665,35.29746230346791 59.18804658547742,35.12202096924011 59.472211297252215,35.07417329613236 59.71578105021035,35.10607174660254 60.55474353255704,35.281513099937 61.23132617963711,35.31341150523804 62.7198080032249,35.696191826995346 63.54523883271031,35.7280901420454 64.03237833862659,35.807835899089696 64.73602429154562,35.85568333254196 64.92546743270941,35.951378152502 65.02018900337862,36.110869380121585 65.08784726803424,36.54149482731009 65.18256883864524,36.685036361712264 65.35848032688955,36.764781597812544 65.7644299151143,36.844526790533564 65.92680975043913,36.97211900849652 66.15684785041958,38.04069947106473 66.49513917398872,38.83814249809075 66.68458231521072,39.15711849334184 66.7928355387412,39.38040127669228 66.9687470269273,39.87481194298016 67.14465851517161,40.624399125168566 67.56413975643227,41.99597425138927 67.67239297990454,42.586066575560835 67.87536777404603,43.399433180253254 68.34897562704282,44.67529326613294 68.47076050349278,45.26537479781837 68.9173050505924,46.34984276621253 69.1067481917562,47.242928006497095 69.32325463881716,47.84894703325699 69.47210282110609,48.43901578220539 69.55329273879761,48.99718673575262 69.82392579765292,49.85836060685688 69.94571067410288,50.33678834800958 70.28400199767202,51.421218777410104 70.36519191530533,51.85179922169482 70.47344513889402,52.250483689960674 70.73054654477164,52.920271154434886 70.89292638003826,53.60600276743935 71.02824290946592,54.05252395296702 71.23121770354919,55.10503279193654 71.46125580364605,55.599390394592774 71.63716729183216,56.42863166019379 71.66423059778754,57.018665857001906 71.81307878007647,57.84789909052779 71.86720539187081,58.07115339010488 71.9754586154013,58.29440734950185 72.28668663301505,58.709020943089854 72.57085134484805,59.37877888530784 72.8008894448285,60.57476759671408 73.05799085076433,61.499658840417396 73.3556872154586,62.77536132198293 73.6398519272334,63.397262255180976 74.14052308601094,64.86430015438236 74.23524465668015,65.247003277982 74.5600043272716,66.29943171488412 74.97948556847405,67.17644963899511 75.06067548616556,67.38374401783221 75.12833375087939,67.59103810347733 75.27718193316832,68.34048350529338 75.34484019788215,68.5318306532572 75.50722003320698,68.91452419981943 75.69666317437077,69.32910774754419 75.9402329273289,69.9509808702569 76.23792929202318,70.58879671661998 76.46796739206184,70.97148489211395 76.54915730969515,71.1628286051855 76.72506879793946,71.9760365987313 76.7791954097338,72.15143380973313 76.9686385508976,72.55006305413553 77.21220830385573,73.25164789099654 77.50990466855,73.9691743641888 77.69934780977201,74.54319301368378 77.9835125215468,75.14909914936288 78.38946210977156,76.12173270869243 78.59243690391304,76.72763231914723 78.93072822742397,77.55675404328213 79.30961450980976,78.64098306768574 79.44493103923742,79.2787611005624 79.51258930395124,79.5019827564247 79.71556409809273,79.94842504854023 80.04032376868417,80.60214166600781 80.27036186866462,81.2239669625269 80.44627335696714,81.87767789170903 80.60865319223376,82.2762806861574 80.82515963929472,82.94593094079755 81.10932435106952,83.58369024415151 81.25817253347486,84.0460640041565 81.35289410396945,84.6838185214583 81.35289410396945,85.09835746993485 81.3934890627861,85.54478271896369 81.37995740992483,86.02309397721547 81.48821063345531,86.93188106853631 81.48821063345531,87.15509107129765 81.47467898047762,87.61745356742176 81.3934890627861,88.68566479273431 81.36642575694714,89.78575478527637 81.3934890627861,90.24810898520809 81.47467898047762,90.7104617269797 81.52880559227196,91.38007345778169 81.52880559227196,91.60327668844548 81.3934890627861,92.25694133790967 81.33936245104996,93.30917587173462 81.43408402166096,94.01066136571171 81.42055236874148,94.64837253891164 81.55586889811093,95.31796628565644 81.55586889811093,95.98755697463639 81.52880559227196,96.60931701934896 81.58293220406631,97.47021119022975 81.56940055108862,97.69340515020303" stroke="#4dd2ff" stroke-linecap="round" stroke-linejoin="round" stroke-width="0.5"><title>2022-09-07 15.8km</title></polyline><polyline fill="none" points="142.8590588189545,112.56630259100348 143.11718647909584,112.56630259100348 143.66380975936772,112.65574535819178 143.90675343957264,112.67363390576793 144.40782477974426,112.60207970369083 144.63558447989635,112.5305254705454 145.0,112.31586258427706 145.60735920042498,111.68976089991338 145.80475094052963,111.52876293884765 146.0173266606289,111.42143087732256 146.22990238072816,111.33198743923276 146.47284606087487,111.29621005037916 147.4446207813453,111.29621005037916 147.9153241615859,111.33198743923276 148.61378724197857,111.45720823894953 149.2666983823292,111.45720823894953 149.4337221623864,111.60031760764832 149.49445808242308,111.83287006636965 149.5096420624177,112.08331080817152 149.49445808242308,112.58419114832941 149.57037798245437,113.04929295612965 149.57037798245437,113.85427374769642 149.6007459424436,114.73080390894029 149.6614818625385,114.98124024033314 149.81332166260108,115.23167619053856 150.02589738270035,115.41055877876352 150.28402504284168,115.5 150.542152702983,115.5 150.7699124030769,115.39267052871583 150.95212016318692,115.1958996495523 151.04322404321283,114.98124024033314 151.0887759832549,114.73080390894029 151.04322404321283,113.37128574530652 150.98248812317615,113.1208469637786 150.80028036300791,112.8882963253127 150.57252066303045,112.74518807673303 150.3143930028309,112.67363390576793 150.0714493226842,112.70941099512856 149.85887360258494,112.85251927479112 149.70703380252235,113.06718146096682 149.63111390243284,113.3176203242183 149.63111390243284,113.5859472547454 149.64629788248567,114.67713893119071 149.6766658425331,114.92757534423436 149.7525857425644,115.16012310078077 149.91960952267982,115.33900576682936 150.1321852427791,115.46422351735237 150.3903129028622,115.46422351735237 150.6332565829507,115.39267052871583 150.84583230310818,115.21378792099131 150.98248812317615,114.98124024033314 151.04322404321283,114.71291558492521 151.07359200320207,114.44459049210127 151.05840802320745,113.407062682978 150.99767210322898,113.15662395583058 150.87620026315562,112.94196188641945 150.7091764830402,112.76307661463215 150.48141678294633,112.65574535819178 150.2384731027414,112.61996825716051 149.9955294226529,112.72729953688395 149.81332166260108,112.94196188641945 149.69184982252773,113.1924009402428 149.63111390243284,113.47861653502332 149.61592992249643,113.74694320297567 149.6766658425331,114.76658055103326 149.73740176251158,114.99912853508431 149.85887360258494,115.21378792099131 150.04108136269497,115.37478227667452 150.26884106284706,115.46422351735237 150.52696872293018,115.46422351735237 150.75472842308227,115.33900576682936 150.90656822314486,115.14223482350644 151.0128560832818,114.9096870416688 151.05840802320745,114.65925060142763 151.0887759832549,114.40881377999904 151.04322404321283,113.38917421508813 150.99767210322898,113.15662395583058 150.87620026315562,112.95985040289816 150.67880852299277,112.81674221654248 150.45104882289888,112.70941099512856 150.20810514275217,112.65574535819178 149.98034544260008,112.72729953688395 149.79813768254826,112.92407336797623 149.6766658425331,113.15662395583058 149.63111390243284,113.407062682978 149.63111390243284,113.67538946766581 149.69184982252773,114.17626496174489 149.70703380252235,114.9633519435447 149.78295370255364,115.16012310078077 149.91960952267982,115.32111750896729 150.11700126272626,115.42844702693401 150.32957698288374,115.46422351735237 150.55733668297762,115.42844702693401 150.75472842308227,115.32111750896729 150.92175220313948,115.12434654422395 151.02804006316,114.9096870416688 151.07359200320207,114.67713893119071 151.0887759832549,113.44283961290785 151.02804006316,113.17451244905533 150.90656822314486,112.95985040289816 150.6939925030456,112.79885368450778 150.45104882289888,112.69152245140867 150.19292116275756,112.69152245140867 149.94997748261085,112.78096515055222 149.76776972250082,112.95985040289816 149.6766658425331,113.21028942948033 149.64629788248567,113.46072807493329 149.63111390243284,114.51614389299357 149.63111390243284,114.78446886918391 149.69184982252773,115.01701682798739 149.8285056425957,115.23167619053856 150.04108136269497,115.39267052871583 150.26884106284706,115.46422351735237 150.51178474293556,115.42844702693401 150.73954444308765,115.30322924914071 150.90656822314486,115.10645826306427 150.98248812317615,114.89179873713874 151.0128560832818,114.67713893119071 151.07359200320207,113.38917421508813 151.04322404321283,113.15662395583058 150.9369361831341,112.95985040289816 150.73954444308765,112.79885368450778 150.51178474293556,112.69152245140867 150.25365708279423,112.67363390576793 150.01071340264753,112.78096515055222 149.81332166260108,112.95985040289816 149.69184982252773,113.17451244905533 149.64629788248567,113.407062682978 149.585561962449,114.42670213704696 149.585561962449,114.67713893119071 149.61592992249643,114.92757534423436 149.72221778245876,115.16012310078077 149.88924156263238,115.35689402272692 150.11700126272626,115.46422351735237 150.37512892280938,115.48211175962933 150.6180726030143,115.41055877876352 150.83064832311356,115.24956445809221 150.98248812317615,115.05279340782727 151.05840802320745,114.8023571853555 151.07359200320207,114.53403223837086 151.05840802320745,113.47861653502332 151.0128560832818,113.2281779168261 150.92175220313948,112.99562743007846 150.7699124030769,112.81674221654248 150.55733668297762,112.69152245140867 150.2992090228363,112.65574535819178 150.0562653427478,112.72729953688395 149.84368962259032,112.8882963253127 149.6766658425331,113.08506996383949 149.61592992249643,113.33550879989343 149.6766658425331,114.10471141301969 149.6614818625385,114.62347393599339 149.69184982252773,114.87391043067328 149.78295370255364,115.08856997991097 149.93479350261623,115.26745272373955 150.11700126272626,115.39267052871583 150.34476096287835,115.44633527309634 150.58770464290865,115.42844702693401 150.7850963831297,115.32111750896729 150.9369361831341,115.14223482350644 151.02804006316,114.9096870416688 151.05840802320745,114.65925060142763 151.02804006316,113.9258274052554 151.02804006316,113.46072807493329 150.99767210322898,113.21028942948033 150.90656822314486,112.99562743007846 150.75472842308227,112.81674221654248 150.542152702983,112.70941099512856 150.2992090228363,112.67363390576793 150.0562653427478,112.70941099512856 149.8285056425957,112.83463074667088 149.69184982252773,113.04929295612965 149.63111390243284,113.29973184662231 149.61592992249643,113.53228190365189 149.6614818625385,114.64136226965638 149.70703380252235,114.87391043067328 149.81332166260108,115.10645826306427 149.98034544260008,115.28534098740784 150.16255320271011,115.41055877876352 150.3903129028622,115.44633527309634 150.60288862296147,115.39267052871583 150.80028036300791,115.24956445809221 150.95212016318692,115.08856997991097 151.02804006316,114.87391043067328 151.07359200320207,114.37303706009698 151.05840802320745,113.6038357012003 151.05840802320745,113.35339727354585 150.99767210322898,113.1208469637786 150.89138424309203,112.90618484758306 150.72436046303483,112.76307661463215 150.51178474293556,112.69152245140867 150.26884106284706,112.67363390576793 150.0562653427478,112.76307661463215 149.85887360258494,112.90618484758306 149.72221778245876,113.1208469637786 149.64629788248567,113.35339727354585 149.63111390243284,113.6038357012003 149.72221778245876,114.62347393599339 149.76776972250082,114.87391043067328 149.84368962259032,115.10645826306427 149.98034544260008,115.28534098740784 150.16255320271011,115.41055877876352 150.3903129028622,115.44633527309634 150.60288862296147,115.41055877876352 150.81546434306074,115.30322924914071 150.95212016318692,115.12434654422395 151.02804006316,114.9096870416688 151.04322404321283,114.64136226965638 151.04322404321283,114.10471141301969 150.98248812317615,113.15662395583058 150.89138424309203,112.90618484758306 150.72436046303483,112.72729953688395 150.52696872293018,112.65574535819178 150.28402504284168,112.65574535819178 150.0714493226842,112.72729953688395 149.87405758263776,112.85251927479112 149.70703380252235,112.99562743007846 149.38817022234434,112.47685977522633 149.55519400240155,111.99386772986327 149.57037798245437,111.7076495525398 149.55519400240155,111.47509691685264 149.6007459424436,111.27832135302015 149.76776972250082,111.15310041715566 150.223289122805,111.06365683321201 150.92175220313948,111.04576811056177 151.37727160338545,110.97421320065041 151.8935269236099,111.09943427264807 152.3642303038505,111.11732298940478 152.6071739840554,111.1709891280916 153.0019574642065,110.43755038417294 153.09306134429062,110.18710713747714 153.7915244246251,106.89553189613798 153.70042054459918,106.62719405515236 153.73078850464663,105.82217790640425 153.82189238461433,105.28549828578252 153.82189238461433,105.03504719707416 153.7915244246251,104.49836500883976 153.82189238461433,103.97957056286396 153.8067084046197,103.56811173562892 153.8067084046197,103.10298312663508 153.7156045245938,101.77914834978583 153.73078850464663,100.50897253716539 153.65486860455712,99.02410668965604 153.68523656454636,98.4695148030005 153.59413268452045,97.7360194363282 153.65486860455712,97.217203665743 153.73078850464663,96.1616768748936 153.70042054459918,95.15981467311212 153.65486860455712,94.69466229109094 153.65486860455712,94.4620856068359 153.70042054459918,93.96115009317873 153.67005258455174,93.26341594288533 153.67005258455174,92.79825819854159 153.5485807445366,92.02895596552116 153.42710890446324,91.54590388742508 153.12342930433806,90.86605041146686 152.95640552422265,90.36510394695506 151.84797498362605,87.57408857399423 151.2557997633121,86.21434597970801 150.6939925030456,84.58621834903897 150.3903129028622,83.92422778069158 150.17773718276294,83.2085593042575 149.6614818625385,81.84878061967902 149.44890614238102,81.11521113473282 149.2818823623238,80.68580308879609 149.08449062216096,80.00590472313343 148.8870988820563,79.55860163390753 148.6441552019096,79.14708171742677 148.46194744185777,78.71766853278677 148.325291621848,78.25246965087717 148.0823479416431,77.5904535886948 147.9305081416387,76.85686510994856 147.56609262141865,75.9264555030677 147.35351690126117,75.24653746152762 146.8068936210475,74.3697968901397 146.730973720958,74.13719146420772 146.67023780097952,73.61830125155393 146.59431790089002,73.38569476266275 146.4272941207746,72.90258792680106 146.15398248069687,72.27633621246787 145.92622278054478,71.63218910388241 145.5466232803883,70.6838568244275 144.9848160201218,68.89453574245272 144.4381927397917,66.92626006383216 144.16488109965576,66.28209199737466 144.08896119956626,66.03158151220123 143.83083353948314,65.1190043745155 143.70936169940978,64.43904164583364 143.4967859792523,64.2243159893842 143.61825781938387,64.0990592269809 143.5575218993472,63.90222697898571 143.42086607927922,63.168577433316386 143.28421025915304,62.757016498901066 142.9349787189858,61.987573727587005 142.70721901889192,61.128656613465864 142.57056319888216,60.842349911647034 142.50982727878727,60.68130217275757 142.297251558688,59.715012426895555 142.08467583858874,58.999238583332044 142.00875593855744,58.28346162365051 141.9024680784787,57.80031041424081 141.6595243983902,57.08452823491825 141.56842051824788,56.63716279028449 141.4165807181853,56.13611204712652 141.20400499808602,55.223479983978905 140.93069335789187,54.56137119860796 140.7029336578562,53.559255532338284 140.05002251756378,51.21499681122077 139.7463429173804,50.26654676150065 139.57931913726497,49.53283636539709 139.2756395371398,48.44121239834931 139.06306381698232,47.814867505134316 138.77456819679355,46.5263790772151 138.54680849664146,45.81054780873819 138.36460073664784,45.36315168297733 138.13684103649575,44.4504598104686 137.7724255163339,43.269321629282786 137.51429785619257,42.62506086216308 137.40800999617204,42.23134470586956 137.3017221360351,42.05238250484399 137.24098621605663,41.21125755007961 136.93730661593145,41.19336122769164 136.7399148758268,41.05019057838945 136.54252313572215,40.62067788213608 136.40586731559597,40.1732676300453 136.29957945557544,39.707959675914026 136.17810761544388,38.77733981584606 136.37549935566494,35.87806724186521 136.46660323569085,35.18008657643804 136.4969711956801,34.5" stroke="#4dd2ff" stroke-linecap="round" stroke-linejoin="round" stroke-width="0.5"><title>2022-09-06 11.1km</title></polyline><polyline fill="none" points="81.01745634165127,184.54106403574406 79.83676140219904,184.64372408177587 79.24641393264756,184.58212806166557 78.82473716855748,184.5 76.93562526564347,184.60266007081373 76.277809513791,184.58212806166557 75.6537279029726,184.6231920775026 75.45132305624429,184.60266007081373 74.7935073042172,184.664256083488 73.81521721172612,184.664256083488 73.54534408263862,184.72585207381053 73.22486974205822,184.70532007949078 72.87066126026912,184.76691605488304 72.5501869195723,184.78744804165035 70.45867016987177,184.664256083488 69.46351300668903,184.68478808271175 68.8225643253536,184.64372408177587 68.45148877298925,184.64372408177587 67.81054009171203,184.70532007949078 67.2876609042869,184.664256083488 66.02263061213307,184.72585207381053 63.25643103994662,184.6231920775026 62.311875088489614,184.68478808271175 61.53598984266864,184.64372408177587 60.203491268330254,184.68478808271175 60.034820562636014,184.56159604995628 59.39387188130058,184.76691605488304 56.62767230911413,184.70532007949078 56.05419191002147,184.7463840655546 55.56504686374683,184.72585207381053 53.979542230896186,184.72585207381053 53.67593496083282,184.72585207381053 53.40606183180353,184.664256083488 52.83258143271087,184.6231920775026 52.56270830379799,184.64372408177587 52.02296204579761,184.78744804165035 51.02780488267308,186.77903894027986 50.47119155403925,186.7379754466674 49.57723681430798,186.77903894027986 48.97002227406483,186.7379754466674 48.12666874600109,186.7379754466674 47.45198592351517,186.77903894027986 46.81103724217974,186.77903894027986 45.63034230284393,186.7379754466674 45.326735032664146,186.7585071947251 44.8713241275982,186.71744369615044 44.26410958735505,186.7585071947251 43.977369387750514,186.7379754466674 43.90990110556595,186.5326578295353 43.8930340349325,186.18361730957986 43.58942676481092,186.10149002399703 41.093100321653765,186.08095819634036 39.237722559890244,186.12202184912167 37.770287421008106,186.10149002399703 36.420921776036266,186.16308549192036 35.22335976618342,186.14255367178703 34.936619566578884,186.16308549192036 34.76794886100106,186.32733996365278 34.56554401421454,187.6003067226702 34.56554401421454,187.90828111508745 34.48120866145473,188.50369668701023 34.41374037915375,189.6123959715187 34.32940502639394,190.3925874169363 34.1944684619084,191.23436889628647 34.12700017960742,192.05561509118706 33.958329474087805,192.8563263001124 33.789658768393565,194.41667573737504 33.671589274541475,194.9915376988356 33.62098806281574,195.5253363459342 33.4523173571215,196.32603116467362 33.41858321602922,196.88035613132524 33.35111493372824,197.1677831781417 33.317380792694166,198.25589544053946 33.24991251039319,199.05657736145076 33.06437473418191,199.91884596993623 32.996906452055555,200.76058014279988 32.84510281693656,201.84866934352613 32.81136867578607,202.38244639793993 32.727033322968055,202.91622177168028 32.625830899633,203.96323781542014 32.37282484123716,205.68772073205037 32.35595777066192,206.48836755192315 32.30535655893618,206.7347196588671 32.23788827669341,207.84329970998806 32.06921757111559,208.91081438947003 32.01861635938985,209.71144598793762 31.849945653870236,210.51207380539563 31.799344442144502,211.5795716806897 31.748743230418768,211.86697380643454 31.647540807083715,212.70864865768817 31.647540807083715,212.9960488694196 31.580072524782736,213.55031933056307 31.31019939586986,215.5005158084823 31.293332325236406,216.09583447496698 31.225864042993635,216.3832289451384 31.14152869017562,217.43016182394058 31.006592125690077,218.33339283871464 30.922256772930268,219.44189705353347 30.837921420112252,219.95509099506307 30.669250714418013,220.85830855963286 30.669250714418013,221.1456949575513 30.618649502750486,222.17207097391656 30.382510514871683,223.11633142198843 30.365643444354646,223.38318668254942 30.298175162111875,223.67056880115706 30.06203617429128,226.19540504933684 29.96083375089802,226.74963236461917 29.96083375089802,226.9959550343774 29.74156183359446,228.16598282955238 29.60662526905071,230.17759069382737 29.45482163404813,231.28601748337678 29.2861509284121,232.08654343674425 29.168081434385385,233.44127105688676 29.11748022271786,233.70811006994336 29.050011940533295,234.52915055360063 28.86447416432202,234.898617474435 28.881341234839056,235.35018706231494 28.931942446622998,235.6375489012862 28.78013881156221,235.8838586614147 28.78013881156221,237.13592774434073 28.64520224701846,237.99800272323773 28.62833517655963,238.2443090552406 28.560866894258652,238.4906150293973 28.560866894258652,238.73692064598436 28.476531541440636,239.4758353493089 28.442797400290146,240.29684791066393 28.25725962407887,240.93312991203857 28.24039255362004,241.42573369303136 28.17292427131906,241.6720350470132 28.122323059593327,242.39041195309255 28.0717218479258,242.61618692372576 27.886184071772732,243.9092559656856 27.75124750728719,245.26388915046118 27.7175133661367,246.00277541841206 27.616310942801647,246.51588898847695 27.56570973113412,247.02900100634724 27.49824144883314,247.27529422353837 27.447640237107407,247.74735522348783 27.39703902543988,247.93207438757236 27.26210246095434,248.1167933505203 27.194634178711567,248.3836092751735 27.144032966985833,248.91723986534635 27.144032966985833,249.18405453086598 26.97536226140801,250.5386455890839 26.90789397910703,251.29803281385102 26.75609034410445,252.38579778063286 26.68862206186168,252.63208321973798 26.570552567893174,253.45303210083512 26.53681842680089,254.00717034947593 26.46935014455812,254.25345343450317 26.385014791740105,254.99230054402142 26.385014791740105,255.25910565383674 26.250078227254562,256.01847174641443 26.18260994501179,256.7573111683305 26.165742874494754,257.5987632572069 26.08140752161853,258.1528879631951 25.980205098341685,258.3991650293174 25.86213560431497,259.17904004648153 25.7946673220722,259.42531562289514 25.76093318092171,259.9178657030279 25.491060052008834,261.7238704282645 25.305522275855765,262.27798165997956 25.37299055798212,265.25373324213433 26.553685497434344,265.3152999650483 27.144032966985833,265.2947777265508 27.78498164837947,265.3563444346946 28.695803458685987,265.37686666574155 29.859631327504758,265.5 30.06203617429128,265.479477783796 30.18010566814337,265.33582220111566 30.449978797114454,265.2947777265508 31.799344442144502,265.3563444346946 32.37282484123716,265.33582220111566 32.91257109917933,265.2947777265508 33.75592462730128,265.15112198746647 34.04266482684761,265.13059972912015 35.47636582457926,264.9458992920554 36.285985211550724,264.78172095694754 37.2980094452505,264.67910941684386 39.38952619495103,264.5559754867718 40.7557589103817,264.43284146738006 42.155725767079275,264.37127442410565 43.724363329354674,264.2481402706471 44.33157786959782,264.2481402706471 44.61831806914415,264.20709553295455 45.41107038554037,264.18657316041936 46.23755684302887,264.18657316041936 47.36765057075536,264.1044836453075 47.890529758122284,264.04291648292565 49.560369743732736,263.5709008288977 50.268786707369145,263.2014963575348 51.14587437652517,262.5652978823782 51.34827922331169,262.44216241805407 52.83258143271087,261.70334775531956 53.05185335013084,261.5391662821785 53.439795972954016,261.1697573866695 53.84460566646885,260.9029615729669 54.63735798286507,260.5745969185373 55.12650302913971,260.2051859226485 55.615648075414356,259.5279303408315 55.81805292220088,259.36374676231935 56.79634301480837,258.9327641126001 57.58909533114638,258.2555034508259 58.65172077657189,257.1062064434518 59.27580238733208,256.5931249082205 59.81554864539066,256.0800418211584 60.034820562636014,255.89533152990043 60.43963025615085,255.50538692115515 60.60830096172867,255.2796291064733 61.33358499594033,254.60235385947453 62.244406806188636,253.92507590833702 62.64921649976168,253.57617409032537 63.45883588667493,253.04255815694341 63.880512650706805,252.7141782866529 64.09978456806857,252.57051189351478 65.49975142470794,251.5853676339466 65.97202940046554,251.38012852640531 66.47804151725722,251.25698494266544 66.73104757571127,251.1338412695186 66.88285121077206,250.92860161562567 67.13585726922611,250.49759753413673 67.7262047388358,250.04606827406678 67.92860958556412,249.88187551790907 68.09728029125836,249.5945378121105 69.39604472456267,248.54780348167697 69.73338613571832,248.03469605847204 69.93579098250484,247.80892830058292 70.17192997032544,247.64473337875097 70.47553724044701,247.60368462346378 70.76227743999334,247.74735522348783 70.9815493573551,247.9731230634061 71.21768834523391,248.15784198162146 71.42009319190402,248.05522038518393 71.62249803863233,247.84997700614622 72.51645277842181,246.51588898847695 72.98873075417941,245.30493847203616 73.08993317757268,245.09969176490267 73.27547095372574,245.05864239369112 73.46100872987881,244.93549422037904 73.6128123649396,244.75077179272193 73.71401478833286,244.21712809403834 73.69714771775762,243.9503056150861 73.4947428709711,243.06773596335552 73.47787580051227,242.75986174849095 73.39354044763604,242.12358660031168 73.20800267142477,241.54888441470393 73.17426853033248,241.2615325916704 73.17426853033248,240.97418028177344 73.25860388309229,240.37894894817146 73.29233802424278,239.25005619824515 73.24173681263346,238.44956405859557 73.10680024808971,237.64906814062851 73.03933196584694,236.10964229398814 72.95499661308713,235.59649723982147 72.68512348399963,234.5086245899438 72.60078813123982,234.24178683645732 72.34778207278578,233.21548387172516 71.95983944984619,231.22443840734195 71.75743460317608,230.46496129786829 71.72370046202559,230.19811718171695 71.40322612138698,229.13073651783634 71.28515662736027,228.51493692489748 70.9815493573551,227.30385786846455 70.81287865166087,226.7701592673984 70.42493602872128,224.98430942665436 70.30686653486919,224.08111384003132 70.00325926474761,222.64420185527706 69.682784924109,220.9198914002045 69.56471543008229,220.05772959701426 69.53098128899,219.50348040855897 69.49724714783952,219.23661904201435 69.24424108944368,218.47708823838911 69.19363987777615,218.2102252564364 69.09243745438289,217.65597002873255 69.02496917214012,217.38910575440968 69.04183624271536,217.08118491596542 68.99123503098963,216.83484784253233 68.60329240805004,215.9726652672107 68.33341927913716,215.17206323568826 67.65873645665124,212.44177659624256 67.47319868043996,211.4153416758636 67.20332555141067,210.18361156844185 67.05152191640809,209.09557586317533 66.76478171686176,207.61747843565536 66.62984515231801,206.5088969078497 66.5455097995582,206.26254447278916 66.34310495277168,205.19501311735075 66.25876960001187,204.96918831527 65.92142818873981,203.183108828307 65.78649162431248,202.69039393407002 65.65155505976873,201.9718488129147 65.2130112251034,199.20028910077235 65.19614415458636,198.6870323294279 65.26361243682913,198.15324363864784 65.65155505976873,197.18831366281665 65.73589041258674,196.92141716780316 66.24190252937842,195.75117372898967 66.6635792934685,194.8067608524143 66.7816487873788,194.6014530090324 66.96718656359008,194.14977487827127 67.08525605755858,193.92393536157033 67.38886332756374,193.22588404393173 67.64186938601779,192.8152642788482 68.41775463189697,191.9529595344211 68.75509604316903,191.66552364478412 69.34544351277873,191.25490009969508 69.76712027686881,191.00852549511183 70.18879704090068,190.82374430669006 70.67794208717532,190.70055673581373 71.55502975644777,190.78268179300358 73.19113560090773,191.19330648209143 76.14287294924725,191.52180551711353 76.59828385442961,191.7065859445138 77.72837758198148,192.0145528759167 78.97654080356006,192.17880167718977 79.70182483777171,192.17880167718977 80.44397594255861,192.24039493665623 80.96685512992553,192.24039493665623 81.23672825889662,192.3019881736982 81.65840502292849,192.34305031932308 82.56922683335142,192.48676775061176 83.29451086750487,192.7331402064592 83.7836559137213,192.6304850601009 84.2896680306294,192.67154712608317 84.5258070185082,192.6510160943435 84.66074358293554,192.48676775061176 84.69447772408603,192.28145709719684 84.61014237126801,191.60393017638125" stroke="#4dd2ff" stroke-linecap="round" stroke-linejoin="round" stroke-width="0.5"><title>2017-07-27 14.4km</title></polyline><polyline fill="none" points="185.5,225.0223445732845 185.44712793728104,223.86374502860417 185.3237597910338,222.98406253302528 185.1298955612583,220.73119718757516 185.04177545686252,220.21625251208025 185.0065274151275,219.7442185771797 185.04177545686252,219.42237653638585 184.97127937327605,218.5855844921316 184.97127937327605,218.02772093194653 184.9184073106735,217.7702448497439 184.88315926888026,217.49131200478587 184.636422976444,214.5732189715054 184.49543080938747,212.38461763074156 184.30156657955376,210.66804862640856 184.30156657955376,210.21744650464098 184.21344647515798,209.4664404195355 184.19582245429046,208.20045152089733 184.125326370704,207.92150359717198 183.8433420365327,207.85713093691447 182.13381201040465,207.68547039521218 180.95300261088414,207.59964006202063 178.69712793728104,207.62109764922934 178.43276762397727,207.57818247222167 176.19451697124168,207.70692797204538 175.4190600521979,207.68547039521218 174.57310704956762,207.77130068693077 173.7624020887306,207.7927582533157 172.14099216711475,208.09316390989989 171.57702349865576,208.13607896208123 170.48433420364745,208.32919656817103 170.237597911153,208.3721115631488 169.99086161883315,208.3506540669914 169.4621409921092,208.43648403612315 168.65143603127217,208.3506540669914 166.67754569184035,208.43648403612315 165.3557441253215,208.58668638192466 162.44778067880543,208.77980349643622 161.67232375976164,208.9300055508793 160.89686684065964,208.97292040020693 160.3681462140521,208.97292040020693 160.0861618798226,209.0158352391736 159.82180156651884,208.99437782097084 158.83485639683204,209.23040927758848 157.812663185352,209.38061094978184 157.26631853781873,209.33769619933446 155.69778067880543,209.35915357583144 154.35835509136086,209.57372719820705 152.91318537853658,209.91704445294454 151.39751958224224,210.1745319570764 150.26958224538248,210.2603610418446 149.7056135769235,210.11016011613538 148.18994778062915,210.32473282818682 147.9432114881347,210.23890377453063 147.43211488245288,210.1745319570764 146.63903394248337,210.30327556865814 146.12793733680155,210.32473282818682 145.82832898170454,210.23890377453063 145.54634464747505,210.21744650464098 145.31723237602273,210.15307467934326 145.07049608352827,210.1316173990199 144.36553524807096,210.2818183065392 143.8191906004795,210.30327556865814 143.30809399473947,210.21744650464098 141.81005221931264,210.21744650464098 141.14033942559035,210.1316173990199 140.62924281979213,210.15307467934326 139.88903394248337,210.08870283061697 139.64229765010532,210.11016011613538 138.9549608354573,210.08870283061697 138.161879895546,210.1745319570764 137.63315926888026,210.06724554252287 137.0691906005377,210.06724554252287 136.0117493472644,210.11016011613538 135.76501305482816,210.11016011613538 135.5182767623919,210.04578825183853 134.56657963449834,210.0243309585494 134.28459530021064,209.98141636406945 132.3812010443653,210.0243309585494 130.93603133159922,209.8955871440412 130.16057441255543,209.87412983248942 129.42036553518847,209.78830056040897 129.1560052218847,209.65955657427548 128.69778067880543,209.53081249452953 127.56984334200388,209.4020683211129 127.2878590078326,209.33769619933446 127.02349869452883,209.33769619933446 125.75456919055432,209.23040927758848 125.49020887719234,209.1445796934131 124.71475195826497,209.16603709341143 123.16383812006097,208.99437782097084 122.8994778067572,209.0158352391736 122.65274151437916,208.9085481223592 121.94778067886364,208.84417582103924 121.61292428197339,208.8656332574319 120.90796344645787,208.77980349643622 120.32637075713137,208.77980349643622 119.70953002601163,208.7368886003096 119.1808093994623,208.58668638192466 118.86357702343957,208.58668638192466 117.01305483025499,208.41502654764918 114.51044386421563,207.94296114532335 112.80091383814579,208.0287913121574 111.83159268926829,208.00733377435245 110.50979112269124,207.7927582533157 109.39947780681541,207.68547039521218 106.0685378590133,207.2777759416349 104.83485639689025,207.2563183127786 104.62336814618902,207.40652165997017 104.51762402092572,207.64255523384782 104.5,207.87858849293843 104.72911227151053,208.58668638192466 104.95822454307927,209.05875006761926 105.20496083545731,210.06724554252287 105.68080939952051,211.37613535759738 105.90992167097284,212.17004741550772 106.01566579635255,212.42753164259193 106.36814621411031,213.5218354298704 106.57963446475333,214.29428108940192 106.82637075718958,215.3456600435893 106.86161879892461,215.8391622974159 107.10835509136086,217.62005029556167 107.19647519581486,220.19479645142565 107.17885117494734,220.70974118930462 107.00261096598115,222.4691244099522 106.70300261094235,224.8936116649129 106.61488250648836,225.40854273676814 106.61488250648836,225.64455231079774 106.50913838116685,226.6958638643555 105.75130548299057,232.3170564580214 105.575065274199,233.75450835518131 105.53981723246397,234.56977439450566 105.41644908615854,235.08467732749705 105.25783289817628,236.47919858584646 104.94060052221175,238.7318635739357 104.83485639689025,240.70560362907418 104.85248041769955,240.96304636225977 104.72911227151053,241.79973266054003 104.69386422971729,242.31461457154364 104.71148825064301,242.5935083149816 104.92297650134424,242.7436816872214 105.45169712789357,242.67932168609696 106.49151436029933,242.63641500571975 106.68537859007483,242.55060161376605 106.79112271539634,242.10008062385896 107.05548302870011,242.01426697200804 107.28459530026885,241.9928135525406 108.0248041775194,241.8640929812682 108.30678851174889,241.8426395435672 109.94582245434867,241.9284532785823 110.474543080898,242.01426697200804 111.07375979109202,242.0571738031431 112.7127937336918,242.01426697200804 112.97715404693736,242.03572038891434 114.22845952998614,241.9069998487539 114.56331592687638,241.97136013051204 114.82767624018015,241.97136013051204 116.02610966062639,241.9069998487539 116.5372062663082,241.8426395435672 118.56396866834257,241.71391886314086 119.58616187988082,241.60665155795868 121.38381201040465,241.75682576703548 122.3002610966214,241.75682576703548 122.58224543073447,241.79973266054003 123.05809399479767,241.79973266054003 123.62206266314024,241.8426395435672 124.52088772843126,241.77827921511198 125.75456919055432,241.82118610333418 126.65339425584534,241.77827921511198 127.21736292424612,241.8426395435672 128.02806788514135,241.8426395435672 128.9621409921092,241.9069998487539 130.05483028717572,241.8640929812682 130.17819843342295,241.73537231642695 130.37206266314024,241.79973266054003 130.47780678846175,241.9069998487539 131.07702349865576,241.88554641634983 131.53524804173503,241.9284532785823 132.69843342038803,241.9069998487539 133.31527415139135,241.82118610333418 134.49608355085365,241.75682576703548 134.68994778062915,241.6924654072791 134.9366840730654,241.67101194884162 135.64164490858093,241.8426395435672 136.54046997387195,241.94990670587867 137.98563968663802,241.77827921511198 138.5319843342295,241.73537231642695 139.36031331587583,241.77827921511198 140.77023498690687,241.79973266054003 141.86292428191518,241.73537231642695 142.6560052219429,241.73537231642695 142.92036553518847,241.67101194884162 143.21997389022727,241.6924654072791 143.836814621347,241.62810502416687 145.21148825064301,241.75682576703548 146.33942558738636,241.71391886314086 147.7493472584174,241.56374461761152 149.37075718014967,241.64955848784302 149.67036553518847,241.64955848784302 149.93472584855044,241.4779307059216 150.1814621409867,241.4779307059216 151.39751958224224,241.56374461761152 151.71475195814855,241.64955848784302 152.08485639683204,241.64955848784302 152.52545691898558,241.71391886314086" stroke="#4dd2ff" stroke-linecap="round" stroke-linejoin="round" stroke-width="0.5"><title>2017-07-21 10.2km</title></polyline></svg>