<?xml version="1.0" encoding="utf-8" ?>
<svg baseProfile="full" height="300mm" version="1.1" viewBox="0,0,200,300" width="200mm" xmlns="http://www.w3.org/2000/svg" xmlns:ev="http://www.w3.org/2001/xml-events" xmlns:xlink="http://www.w3.org/1999/xlink"><defs /><rect fill="#222222" height="300" width="200" x="0" y="0" /><text fill="#FFFFFF" style="font-size:12px; font-family:Arial; font-weight:bold;" x="10" y="20">Over 10km Runs</text><text fill="#FFFFFF" style="font-size:4px; font-family:Arial" x="10" y="280">ATHLETE</text><text fill="#FFFFFF" style="font-size:9px; font-family:Arial" x="10" y="290">周观云</text><text fill="#FFFFFF" style="font-size:4px; font-family:Arial" x="120" y="280">STATISTICS</text><text fill="#FFFFFF" style="font-size:3px; font-family:Arial" x="120" y="285">Number: 5</text><text fill="#FFFFFF" style="font-size:3px; font-family:Arial" x="120" y="290">Weekly: 1.2</text><text fill="#FFFFFF" style="font-size:3px; font-family:Arial" x="141" y="285">Total: 62.9 km</text><text fill="#FFFFFF" style="font-size:3px; font-family:Arial" x="141" y="290">Avg: 12.6 km</text><text fill="#FFFFFF" style="font-size:3px; font-family:Arial" x="167" y="285">Min: 10.2 km</text><text fill="#FFFFFF" style="font-size:3px; font-family:Arial" x="167" y="290">Max: 15.8 km</text><polyline fill="none" points="50.74078609235585,50.58193264622241 42.96253212913871,44.472807536134496 38.14742252975702,37.05457168677822 40.369780806824565,35.745469820452854 46.666462587192655,34.0 50.74078609235585,34.0 60.37100528553128,35.745469820452854 68.14925925061107,40.545507913222536 69.63083143532276,44.036441100994125 71.85318971052766,61.49106150330044 70.74201057292521,94.21827019006014 64.81572183780372,102.94548077764921 55.92628873512149,106.0 48.14803477190435,104.6909206181299 43.70331821963191,102.50912069785409 38.51781557686627,98.14551730290987 36.29545730166137,94.65463117021136 33.33231293410063,85.49104062933475 33.70270597934723,78.50924332113937 31.85074075125158,54.072857106337324 34.81388511694968,45.345540263690054 38.51781557686627,39.23640718287788 44.44410431198776,35.745469820452854 51.481572184711695,34.43636752688326 55.92628873512149,34.43636752688326 63.70454270020127,38.80004017893225 68.89004534296691,46.654639000305906 70.74201057292521,60.18196760606952 71.85318971052766,87.23648806079291 70.74201057292521,94.65463117021136 65.92690097540617,102.50912069785409 62.963756607845426,103.81820079265162 61.11179137788713,104.6909206181299 50.0,105.1272804592736 45.92567649483681,104.25456072855741 40.369780806824565,100.76367990975268 33.70270597934723,89.41829628054984 31.480347704142332,76.76379209640436 33.70270597934723,46.654639000305906 39.99938775971532,38.363673127721995 41.48095994442701,36.61820444557816 45.92567649483681,35.30910243699327 58.88943310454488,34.8727350065019 65.55650792829692,40.10914104944095 68.89004534296691,44.472807536134496 70.74201057292521,53.63649171451107 71.11240361817181,92.9091869671829 68.51965229772031,98.5818778553512 66.29729402065277,100.76367990975268 60.000612238422036,104.25456072855741 55.18550264276564,105.1272804592736 45.555283449590206,104.25456072855741 39.25860166922212,100.32731959340163 36.29545730166137,95.52735298802145 32.96191988699138,87.67284979927354 33.70270597934723,82.43650580081157 31.85074075125158,50.145566874183714 36.66585034690797,41.85460821329616 41.48095994442701,37.92730602901429 47.7776417247951,35.30910243699327 54.07432350702584,34.8727350065019 59.259826147928834,36.181837156414986 64.81572183780372,38.363673127721995 67.77886620536447,42.7273415105883 71.48279666528106,61.92742604063824 71.85318971052766,88.54557313513942 70.37161752767861,95.09099210356362 67.77886620536447,99.45459881913848 62.22297051548958,103.81820079265162 53.33353741466999,106.0 44.07371126487851,104.25456072855741 41.48095994442701,102.94548077764921 35.184278164058924,95.09099210356362 32.22113379649818,84.61831663060002 31.10995465889573,54.5092224504333 34.07309902459383,43.600074619287625 37.40663643926382,40.10914104944095 43.332925172522664,36.61820444557816 50.74078609235585,34.8727350065019 58.148647010326385,35.30910243699327 62.593363562598825,37.05457168677822 65.92690097540617,39.23640718287788 70.37161752767861,47.963737309444696 72.22358275577426,65.4183406343218 72.22358275577426,71.52743386826478 70.37161752767861,71.96379731455818 68.14925925061107,71.0910703735426 67.40847316011786,68.03652458731085 65.92690097540617,48.836469277273864 62.963756607845426,43.600074619287625 59.63021919503808,40.545507913222536 54.44471655227244,38.80004017893225 46.666462587192655,40.10914104944095 42.96253212913871,42.7273415105883 38.51781557686627,49.272835191339254 37.77702948637307,84.61831663060002 38.88820862211287,90.29101923666894 43.70331821963191,97.7091567015741 55.18550264276564,100.76367990975268 62.593363562598825,97.2727960543707 64.44532879255712,95.09099210356362 67.03808011300862,88.54557313513942 66.66768706589937,49.272835191339254 64.81572183780372,44.909173923078924 59.259826147928834,39.67277414049022 49.629606952890754,39.23640718287788 42.59213908202946,42.7273415105883 37.77702948637307,49.70920105651021 38.88820862211287,90.29101923666894 41.48095994442701,95.09099210356362 44.81449735723436,98.5818778553512 52.59275132417679,100.76367990975268 58.88943310454488,99.01823836145923 63.33414965309203,95.96371382637881 67.03808011300862,89.41829628054984 66.66768706589937,48.836469277273864 60.74139833264053,40.545507913222536 55.92628873512149,38.363673127721995 51.11117913760245,38.363673127721995 47.7776417247951,38.80004017893225 43.70331821963191,41.41824149317108 40.369780806824565,44.909173923078924 37.77702948637307,50.145566874183714 37.77702948637307,75.8910661994014 39.62899471446872,92.47282579634339 46.666462587192655,99.45459881913848 56.667074827477336,100.76367990975268 62.593363562598825,96.8364353585057 67.03808011300862,88.10921149048954 67.03808011300862,57.56377853034064 65.55650792829692,47.963737309444696 62.963756607845426,43.16370808868669 59.259826147928834,40.10914104944095 49.629606952890754,38.363673127721995 44.44410431198776,40.545507913222536 39.62899471446872,44.909173923078924 37.40663643926382,49.70920105651021 38.51781557686627,86.36376444064081 39.62899471446872,91.16374200256541 44.07371126487851,98.14551730290987 48.88882086239755,100.76367990975268 53.70393045991659,100.76367990975268 58.148647010326385,99.89095922932029 61.48218442313373,97.7091567015741 64.81572183780372,93.78190916310996 66.66768706589937,88.54557313513942 66.66768706589937,66.7274328249041 65.55650792829692,49.272835191339254 63.70454270020127,44.472807536134496 59.63021919503808,40.981874727178365 54.07432350702584,39.23640718287788 49.2592139095068,39.23640718287788 42.22174603678286,43.16370808868669 38.51781557686627,50.145566874183714 39.25860166922212,90.7273806433659 41.11056689918041,94.65463117021136 44.44410431198776,98.14551730290987 47.7776417247951,100.32731959340163 55.18550264276564,101.2000401779078 62.22297051548958,98.14551730290987 65.92690097540617,92.9091869671829 66.66768706589937,89.85465778247453 67.03808011300862,75.01834011240862 65.18611488491297,47.52737125218846 62.593363562598825,43.16370808868669 56.667074827477336,39.23640718287788 51.85196523182094,37.92730602901429 44.81449735723436,40.10914104944095 41.85135299153626,42.29097488592379 39.25860166922212,46.654639000305906 37.77702948637307,51.01829837006517 38.14742252975702,90.7273806433659 39.25860166922212,93.3455480884295 45.184890404343605,98.14551730290987 50.370393047109246,100.76367990975268 56.29668178036809,100.76367990975268 61.11179137788713,99.01823836145923 62.593363562598825,97.2727960543707 67.77886620536447,88.10921149048954 65.92690097540617,48.836469277273864 61.11179137788713,42.29097488592379 57.77825396694243,40.10914104944095 54.81510959751904,39.23640718287788 50.0,39.23640718287788 47.40724868141115,39.67277414049022 41.48095994442701,43.600074619287625 38.88820862211287,47.963737309444696 37.77702948637307,52.3273952556774 38.51781557686627,90.7273806433659 40.74017385393381,95.09099210356362 45.184890404343605,99.45459881913848 49.2592139095068,101.2000401779078 52.963144367560744,101.2000401779078 57.77825396694243,101.2000401779078 61.11179137788713,99.01823836145923 65.92690097540617,92.03646458033472 67.03808011300862,68.03652458731085 65.92690097540617,48.836469277273864 61.48218442313373,42.29097488592379 56.29668178036809,39.67277414049022 52.22235827706754,38.80004017893225 45.184890404343605,40.545507913222536 39.99938775971532,44.909173923078924 38.14742252975702,50.145566874183714 38.88820862211287,85.92740255920216 34.443492071703076,78.07288058544509 31.85074075125158,69.78197960718535 32.22113379649818,63.23651936952956 29.62838247604668,46.2182728019543 33.33231293410063,44.472807536134496 37.77702948637307,48.400103317340836 38.51781557686627,51.891029675491154 38.14742252975702,78.94560600840487 38.51781557686627,89.41829628054984 39.99938775971532,93.3455480884295 45.555283449590206,99.01823836145923 52.59275132417679,101.2000401779078 57.03746787272394,100.76367990975268 62.963756607845426,98.14551730290987 66.29729402065277,90.7273806433659 65.92690097540617,48.836469277273864 63.70454270020127,44.472807536134496 61.11179137788713,41.85460821329616 51.481572184711695,38.80004017893225 42.96253212913871,42.29097488592379 38.51781557686627,48.836469277273864 38.88820862211287,90.29101923666894 42.59213908202946,96.8364353585057 48.88882086239755,100.32731959340163 51.85196523182094,100.76367990975268 55.92628873512149,101.2000401779078 60.37100528553128,99.45459881913848 63.33414965309203,96.8364353585057 65.55650792829692,91.16374200256541 66.29729402065277,51.891029675491154 64.81572183780372,47.091005149297416 61.48218442313373,42.7273415105883 58.148647010326385,40.10914104944095 54.07432350702584,39.23640718287788 46.29606954194605,40.10914104944095 42.22174603678286,43.16370808868669 38.51781557686627,50.145566874183714 39.25860166922212,92.03646458033472 43.332925172522664,98.14551730290987 50.0,101.2000401779078 54.81510959751904,101.2000401779078 61.11179137788713,98.14551730290987 64.07493574731052,94.65463117021136 65.55650792829692,89.41829628054984 65.92690097540617,62.363790531642735 65.18611488491297,47.963737309444696 60.37100528553128,41.85460821329616 57.77825396694243,40.10914104944095 53.33353741466999,39.23640718287788 41.85135299153626,42.7273415105883 38.51781557686627,49.272835191339254 36.66585034690797,60.18196760606952 37.77702948637307,64.98197647556663 38.51781557686627,92.03646458033472 41.11056689918041,95.96371382637881 44.07371126487851,97.7091567015741 48.51842781715095,99.89095922932029 53.70393045991659,100.76367990975268 60.37100528553128,98.14551730290987 65.18611488491297,92.47282579634339 66.66768706589937,72.83652406558394 66.29729402065277,51.01829837006517 62.593363562598825,42.7273415105883 54.81510959751904,39.23640718287788 45.184890404343605,40.545507913222536 41.48095994442701,44.036441100994125 39.25860166922212,47.963737309444696 38.14742252975702,52.76376078906469 38.88820862211287,91.60010331473313 40.369780806824565,94.21827019006014 46.29606954194605,98.5818778553512 52.59275132417679,99.89095922932029 57.77825396694243,99.01823836145923 61.11179137788713,96.8364353585057 64.44532879255712,92.47282579634339 66.29729402065277,87.67284979927354 67.03808011300862,69.78197960718535 65.55650792829692,49.272835191339254 60.37100528553128,42.29097488592379 56.29668178036809,40.10914104944095 51.11117913760245,38.80004017893225 45.555283449590206,40.545507913222536 41.48095994442701,43.600074619287625 37.77702948637307,49.272835191339254 37.77702948637307,89.85465778247453 43.70331821963191,98.14551730290987 48.14803477190435,100.32731959340163 54.07432350702584,101.2000401779078 56.667074827477336,100.76367990975268 62.22297051548958,96.8364353585057 66.66768706589937,89.85465778247453 66.29729402065277,49.70920105651021 61.48218442313373,42.7273415105883 53.70393045991659,38.80004017893225 48.51842781715095,38.80004017893225 42.22174603678286,41.85460821329616 38.14742252975702,48.400103317340836 36.66585034690797,56.25468335230835 37.77702948637307,92.03646458033472 42.22174603678286,97.7091567015741 50.74078609235585,101.2000401779078 56.667074827477336,100.32731959340163 60.74139833264053,97.7091567015741 64.07493574731052,93.3455480884295 65.92690097540617,88.98193473229185 66.29729402065277,50.145566874183714 62.22297051548958,44.036441100994125 54.07432350702584,38.80004017893225 47.7776417247951,39.67277414049022 42.96253212913871,41.41824149317108 41.11056689918041,43.16370808868669 37.40663643926382,50.145566874183714 36.66585034690797,72.83652406558394 38.88820862211287,93.3455480884295 42.59213908202946,97.2727960543707 51.11117913760245,101.2000401779078 56.29668178036809,100.76367990975268 60.000612238422036,99.01823836145923 64.81572183780372,94.21827019006014 65.55650792829692,91.60010331473313 67.03808011300862,86.36376444064081 68.51965229772031,61.92742604063824 66.66768706589937,53.20012627495453 65.55650792829692,49.272835191339254 64.44532879255712,47.091005149297416 54.07432350702584,47.52737125218846 51.11117913760245,46.2182728019543 37.40663643926382,44.909173923078924 32.22113379649818,46.2182728019543 27.77641724422574,45.78190655633807 35.92506425641477,44.472807536134496 39.62899471446872,45.78190655633807 37.77702948637307,55.818318197270855 38.51781557686627,91.16374200256541 40.74017385393381,95.09099210356362 46.666462587192655,99.89095922932029 54.07432350702584,101.2000401779078 58.88943310454488,99.45459881913848 61.48218442313373,97.2727960543707 66.29729402065277,90.29101923666894 65.55650792829692,48.400103317340836 61.11179137788713,42.29097488592379 54.81510959751904,39.23640718287788 50.370393047109246,38.80004017893225 41.11056689918041,43.600074619287625 38.51781557686627,47.52737125218846 37.40663643926382,51.45466404594481 38.51781557686627,90.29101923666894 39.99938775971532,94.65463117021136 43.70331821963191,98.5818778553512 52.963144367560744,101.63640039833263 60.74139833264053,98.5818778553512 63.70454270020127,94.65463117021136 66.29729402065277,88.98193473229185 66.66768706589937,51.01829837006517 65.92690097540617,48.400103317340836 62.963756607845426,44.472807536134496 58.51904005743563,40.545507913222536 52.963144367560744,38.80004017893225 45.184890404343605,40.10914104944095 41.85135299153626,42.29097488592379 37.77702948637307,48.836469277273864 37.40663643926382,76.32742917048745 38.51781557686627,91.16374200256541 41.48095994442701,95.96371382637881 44.81449735723436,99.01823836145923 48.88882086239755,100.76367990975268 53.70393045991659,101.63640039833263 58.51904005743563,99.89095922932029 62.593363562598825,96.8364353585057 65.92690097540617,90.29101923666894 66.66768706589937,68.47288841404952 65.55650792829692,49.272835191339254 60.74139833264053,41.85460821329616 54.44471655227244,39.23640718287788 50.0,38.80004017893225 47.0368556343019,39.23640718287788 41.48095994442701,42.7273415105883 37.40663643926382,50.145566874183714 38.14742252975702,73.70925062568858 37.40663643926382,89.41829628054984 41.11056689918041,95.96371382637881 48.14803477190435,100.76367990975268 54.81510959751904,101.2000401779078 58.88943310454488,99.89095922932029 62.963756607845426,96.40007461607456 66.29729402065277,89.41829628054984 66.29729402065277,52.76376078906469 64.81572183780372,47.52737125218846 61.85257747024298,43.600074619287625 52.963144367560744,38.80004017893225 48.88882086239755,39.23640718287788 42.59213908202946,42.29097488592379 38.51781557686627,48.836469277273864 37.40663643926382,60.61833228706382 37.40663643926382,87.67284979927354 40.369780806824565,94.65463117021136 46.29606954194605,99.45459881913848 50.74078609235585,100.76367990975268 55.55589568987489,100.76367990975268 59.63021919503808,99.01823836145923 63.33414965309203,95.52735298802145 65.92690097540617,89.85465778247453 65.92690097540617,50.145566874183714 61.48218442313373,44.036441100994125 55.18550264276564,39.67277414049022 51.11117913760245,39.67277414049022 46.29606954194605,40.545507913222536 42.59213908202946,42.7273415105883 38.88820862211287,47.091005149297416 37.77702948637307,54.072857106337324 38.14742252975702,91.16374200256541 40.74017385393381,95.52735298802145 50.0,100.76367990975268 56.667074827477336,101.2000401779078 59.63021919503808,99.89095922932029 64.81572183780372,94.21827019006014 67.03808011300862,89.85465778247453 66.29729402065277,51.45466404594481 62.593363562598825,43.16370808868669 57.77825396694243,40.545507913222536 52.963144367560744,39.23640718287788 45.92567649483681,40.545507913222536 41.85135299153626,43.16370808868669 39.25860166922212,48.836469277273864 37.77702948637307,76.32742917048745 38.51781557686627,90.29101923666894 42.59213908202946,97.2727960543707 47.0368556343019,99.89095922932029 54.07432350702584,100.76367990975268 57.03746787272394,100.32731959340163 61.48218442313373,98.14551730290987 66.29729402065277,88.54557313513942 66.66768706589937,52.3273952556774 65.18611488491297,47.091005149297416 62.22297051548958,42.29097488592379 58.88943310454488,40.10914104944095 55.18550264276564,39.23640718287788 46.29606954194605,40.10914104944095 39.99938775971532,45.78190655633807 37.77702948637307,55.818318197270855 38.14742252975702,86.36376444064081 39.25860166922212,92.03646458033472 45.555283449590206,99.45459881913848 52.963144367560744,101.2000401779078 55.55589568987489,100.76367990975268 63.70454270020127,95.96371382637881 65.92690097540617,88.10921149048954 65.92690097540617,61.49106150330044" stroke="#4dd2ff" stroke-linecap="round" stroke-linejoin="round" stroke-width="0.5"><title>2022-09-12 11.4km</title></polyline><polyline fill="none" points="173.65332934213802,93.33201802859548 173.68941375002032,93.75713805726264 173.67738561402075,94.16808610036969 173.65332934213802,94.57903284794884 173.5571042545489,95.17419480616809 173.56913239049027,95.79769489548926 173.53304798260797,95.99608066212386 173.41276662319433,96.3928512896382 173.4247947591357,96.5770658133406 173.5931886624312,97.00217525911285 173.65332934213802,97.2288997299911 173.67738561402075,97.455623806527 173.6653574780794,97.66817727019952 173.6292730702553,97.88073038724542 173.56913239049027,98.0791129838035 173.4247947591357,98.46170713899483 173.30451339960564,98.63174862529559 173.1481476323097,98.78761979288538 172.9797537290724,98.92932069259405 172.79933168983553,99.02851123076107 171.86113708582707,99.35442246765888 171.34392724005738,99.63782288091897 170.80266112240497,99.85037278651726 170.40573263610713,99.92122267808008 169.99677601386793,100.04875238575914 169.3592848086264,100.13377212162595 168.7458498752676,100.30381142698752 168.32486511702882,100.36049114614434 167.69940204778686,100.5021903362358 166.6288979484234,100.61554957740009 166.08763183071278,100.77141837311501 165.7388158882386,100.85643763764529 164.59614297311055,100.96979657080374 163.87445481622126,101.09732525279105 163.56172328162938,101.06898555647058 163.26101988286246,101.11149509862298 162.99640089197783,101.08315540537296 161.76953102531843,101.38072187716898 161.6733059376711,101.46574074437376 161.5049120344338,101.49408035448869 161.1320398200187,101.47991055015882 160.338182847423,101.63577831242583 158.85872212576214,102.0750410034816 158.3655685519916,102.2734172174969 157.9566119297524,102.38677491855924 157.7521336186328,102.40094462428533 156.88610783033073,102.40094462428533 156.0802227217937,102.54264159662125 155.51490033225855,102.55681128536526 155.12999998184387,102.6276597060787 154.73307149560424,102.67016874002002 154.52859318448463,102.67016874002002 154.19180537789362,102.6276597060787 153.63851112429984,102.75518676632782 153.26563890994294,102.79769575869432 152.68828838435002,102.81186541974603 152.49583820923,102.85437439363159 151.95457209157757,103.02441015058139 151.7741500523407,102.99607087312324 151.22085579868872,102.78352609611466 151.04043375945184,102.75518676632782 150.66756154509494,102.93939229982789 150.0661547476775,103.06691905515618 149.90978898032336,103.15193682271638 149.8616764365579,103.26529375991959 149.8255920287338,103.40698979285662 149.70531066926196,103.49200733867474 149.50083235808415,103.53451609076001 148.86334115284262,103.53451609076001 147.82892146130325,103.7187205231312 147.27562720765127,103.74705964348686 147.0591207606485,103.77539875765797 146.45771396323107,103.93126377556473 145.88036343769636,103.97377238448826 145.27895664027892,104.11546764738159 143.8836928702658,104.31384075673122 143.49879251996754,104.39885771121772 142.94549826631555,104.45553565003502 142.33206333301496,104.6539082419622 142.0794724780717,104.63973878111574 141.73065653559752,104.79560276570555 140.8165182034718,104.88061940603075 140.05874563881662,105.06482193655393 138.94012899557129,105.2206854129181 138.51914423739072,105.23485481060925 138.09815947921015,105.30570177607297 137.91773743997328,105.37654870298866 137.78542794456007,105.48990370602405 137.47269640991,105.91498408958432 137.31633064261405,106.0 137.09982419549488,105.97166136934538 136.87128961255075,105.81579879071796 136.48638926213607,105.2206854129181 135.64441974577494,104.04462003517256 134.40552174311597,102.65599906358693 133.47935527510708,101.50825015721784 133.21473628422245,100.98396643050364 132.9982298371615,100.61554957740009 132.63738575868774,99.82203281915281 132.49304812733317,99.41110259960988 132.28856981621357,98.58923827452236 132.06003523321124,97.99409190798178 131.99989455350442,97.79570918202808 131.98786641750485,97.59732615413668 132.04800709721167,97.20055919268634 131.98786641750485,96.76128007670923 131.77135997038567,96.15195498125104 131.67513488285476,95.7551836205239 131.31429080443922,94.76324993489834 131.30226266843965,94.56486229204165 131.37443148414604,94.40898607503914 131.41051589202834,94.22476848741644 131.3864596200874,94.04055063940177 131.14589690120192,93.23282315570395 130.78505282266997,92.26921189087443 130.59260264754994,91.44730253565649 130.52043383184355,91.24890984584636 130.3640680644894,90.86629451985937 130.08742093772162,90.11523153958842 129.76266126707196,89.42084870758117 129.44992973242188,88.65560619966709 129.04097311018268,88.00372940831585 128.76432598335668,87.46522003458813 128.27117240958614,86.58659470066777 127.97046901081922,86.10476538990042 127.60962493240368,85.41036119083583 127.05633067875169,84.13491526794678 126.93604931927985,83.76645078853471 126.65940219245385,82.83111320062017 126.52709269698244,81.99497240124037 126.3346425218624,81.20134227316885 126.31058624997968,80.54942819519783 126.39478320156923,79.48651781368244 126.4068113375688,78.87711195136944 126.44289574539289,78.50863260551705 126.68345846439479,77.50239523805794 126.69548660033615,77.10556709757657 126.74359914410161,76.90715257418924 126.86388050351525,76.49615010029811 126.96010559116257,75.87255766433373 127.23675271798857,74.66788200722658 127.57354052452138,73.4065037946275 127.77801883564098,71.96086430910509 127.8381595153478,71.1813461654965 127.8381595153478,70.54355512459006 127.8742439232301,69.91993419910432 127.85018765134737,69.055363887368 127.76599069969961,68.23330810607877 127.75396256375825,67.8222782703524 127.60962493240368,66.84430551672995 127.60962493240368,65.59702526594629 127.62165306834504,65.38441948649415 127.71787815593416,64.95920688670594 127.76599069969961,64.17964684918115 127.8020751075237,63.95286487140402 128.19900359382154,62.280335593022755 128.47565072070574,60.834572641775594 128.57187580823665,60.22507953073364 128.76432598335668,59.431316785063245 128.76432598335668,58.87851487280568 128.9327198866522,58.15561652458564 128.99286056647543,57.53193629454472 129.1011137899477,56.08612063949113 129.12517006183043,55.97272265443462 129.25747955724364,55.50495492275513 129.2695076932432,55.36320679358323 129.1011137899477,54.48436494980706 129.07705751806498,53.32201662911393 128.99286056647543,52.47151128594123 128.99286056647543,52.23053376232565 129.0289449742413,51.98955579281028 129.19733887753682,51.35167078017548 129.44992973242188,50.557853956881445 129.70252058736514,50.07589138217736 129.7867175389547,49.87743568593578 130.05133652989753,48.99855682460475 130.18364602531074,48.62999295636837 130.2678429769585,48.45988620382559 130.38812433637213,48.26142804505071 131.2180657168501,47.19825418748951 131.72324742667843,46.47529100657266 132.20437286462402,46.021665000735084 132.5531888070982,45.73814794464852 132.69752643845277,45.58221330064407 133.19068001233973,44.8025372800912 133.3350176437525,44.618249538572854 133.73194612999214,44.15044102355023 133.8522274895222,43.98032841955137 134.16495902417228,43.413284801354166 135.18735057977028,42.208308914123336 135.7887573771295,41.27267288778967 136.05337636807235,40.90408715275407 136.5104455340188,40.35120659398672 137.02765537978848,39.59985232818872 138.27858151844703,35.97060841010534 138.3868347419775,35.800485119369114 138.54320050933165,35.68706946866587 138.71159441256896,35.60200766586058 138.89201645180583,35.55947674358322 139.25286053022137,35.51694580743788 139.83021105575608,35.51694580743788 140.9488276989432,35.23340587805433 141.33372804929968,35.10581270836701 141.68254399177385,34.949865331174806 142.01933179836487,34.836448939560796 142.87332945066737,34.62379293894628 143.24620166508248,34.58126169710886 143.42662370426115,34.524553353126976 144.14831186109222,34.24101126252208 144.7016061147442,34.09923998564773 144.89405628992245,34.08506284949544 145.4593786795158,34.05670857250516 146.49379837105516,34.25518838170683 146.7945017698221,34.09923998564773 146.97492380900076,34.04253143169626 147.5402461985359,34.0 148.3220750351902,34.0 148.50249707442708,34.0 149.26026963914046,34.11341712025751 149.78950762090972,34.21265701946686 150.18643610714935,34.22683414176572 150.5833645935054,34.283542615463375 151.37722156610107,34.32607395450759 151.5696717412211,34.368605279698386 151.9064595477539,34.55290752822475 152.09890972299036,34.60961585986661 152.67626024846686,34.70885538087168 153.04913246288197,34.70885538087168 153.66256739618257,34.55290752822475 153.91515825112583,34.51037626323523 154.1316646981868,34.53873044141801 154.8774091269588,34.69467831106158 155.47881592437625,34.72303244911018 156.80191087868297,35.06328162399586 157.53562717151362,35.09163568181975 157.96864006569376,35.162520799203776 158.59410313493572,35.20505185115326 158.76249703823123,35.29011391334643 158.846693989879,35.43188389344141 158.906834669644,35.81466206871846 158.99103162123356,35.942254543741 159.1473973885877,36.01313919805398 159.50824146706145,36.08402381380438 159.65257909841603,36.19743911866681 159.85705740947742,37.1472884187242 160.15776080824435,37.85612666497764 160.32615471153986,38.13966088296729 160.42237979912898,38.3381344681693 160.5787455664249,38.777610615987214 160.73511133372085,39.44391033348802 161.10798354819417,40.66308822346036 161.20420863572508,41.18761473383347 161.38463067496195,41.91060727133299 161.80561543320073,43.044705125445034 161.913868656673,43.56922204251168 162.31079714297084,44.53319356996508 162.47919104626635,45.32704711687984 162.6716412214446,45.86573069622682 162.8039507167996,46.39023625085247 162.87611953250598,46.88638820956112 163.11668225144967,47.65187609498389 163.22493547503836,48.07714519822912 163.52563887368888,49.04108335770434 163.59780768939527,49.42382153039216 163.6940327770426,49.77820772441919 163.92256736004492,50.37357435950253 164.0669049913995,50.98311357105558 164.18718635087134,51.38002129152301 164.36760839010822,52.315584703945206 164.57208670122782,52.75501368408732 164.72845246852376,53.49211703128822 164.7525087405229,54.01659187288897 164.8848182358779,54.7536880804837 164.93293077970156,54.952136346764746 165.02915586729068,55.15058431067155 165.30580299405847,55.51912972719583 165.55839384900173,56.11447012028657 165.76287216012133,57.177571197084035 165.99140674312366,57.99969674703607 166.25602573395008,59.13365450843412 166.50861658889335,59.68645533794188 166.95365761895664,60.99048902610957 167.0378545706044,61.330669580434915 167.32652983337175,62.26616152434144 167.69940204778686,63.04573301243363 167.77157086349325,63.229994682522374 167.83171154320007,63.41425609198632 167.9640210386715,64.08042978247977 168.0241617183783,64.25051613623509 168.16849934973288,64.59068817761727 168.3368932530284,64.95920688670594 168.55339970008936,65.51198299578391 168.818018690974,66.07893041477655 169.0224970020936,66.41909768187907 169.09466581779998,66.58918098238064 169.2510315850377,67.31203253220883 169.29914412886137,67.46794116419915 169.46753803215688,67.8222782703524 169.68404447921785,68.44590923644137 169.94866347010247,69.08371054595045 170.11705737333978,69.59394934549346 170.36964822828304,70.13253257721954 170.73049230669858,70.99709574105509 170.91091434593545,71.53567317257694 171.21161774464417,72.27267026070331 171.54840555117698,73.2364293934952 171.66868691070704,73.80334320050315 171.72882759041386,74.00176245016337 171.90924962965073,74.39860004314687 172.1979248924181,74.97968148089421 172.40240320347948,75.53241507780331 172.55876897089183,76.11349145929853 172.7031066021882,76.4678050543589 172.89555677742464,77.063049725155 173.1481476323097,77.62994688369508 173.28045712778112,78.0409457814676 173.36465407937067,78.60783868574072 173.36465407937067,78.97631775106129 173.40073848719476,79.37314019464247 173.3887103513116,79.79830575751839 173.48493543890072,80.6061165053543 173.48493543890072,80.80452539671387 173.47290730290115,81.21551428215753 173.40073848719476,82.16503537131939 173.37668221531203,83.1428931424598 173.40073848719476,83.55387465351669 173.47290730290115,83.96485486841993 173.5210198467248,84.56006529580918 173.5210198467248,84.75846816750709 173.40073848719476,85.33950341148011 173.3526259434293,86.27482299708936 173.43682289501885,86.89836565840233 173.4247947591357,87.46522003458813 173.54507611860754,88.06041447613097 173.54507611860754,88.65560619966709 173.5210198467248,89.20828179497039 173.56913239049027,89.973521057982 173.5571042545489,90.62538799762842 173.5931886624312,91.09302966343239 173.53304798260797,92.07082045206334 173.53304798260797,92.72267690290755" stroke="#4dd2ff" stroke-linecap="round" stroke-linejoin="round" stroke-width="0.5"><title>2022-09-07 15.8km</title></polyline><polyline fill="none" points="47.689668932405766,185.17312138612033 47.72476256894879,185.1455586727825 47.73646044777706,185.06287049678212 47.689668932405766,184.6769916290359 47.596085901896004,184.2635486816289 47.63117953838082,184.09817112515157 47.77155408420367,184.01548226598243 48.3330522676697,183.96035632990242 48.707384390057996,183.8363228861126 49.280580452410504,183.73985234594147 49.47944439237472,183.73985234594147 49.900568029959686,183.80875988215848 50.08773409121204,183.82254138488497 50.473764092312194,183.76741536489862 50.64923227473628,183.71228932098893 50.92998136638198,183.54691104532685 51.397896519396454,183.06455650911084 51.71373924758518,182.85783257459116 51.877509551122785,182.78892452151922 52.06467561231693,182.76136128981307 52.81333985697711,182.76136128981307 53.175974100478925,182.78892452151922 53.714076526346616,182.88539578534255 54.21708531572949,182.88539578534255 54.34576198278228,182.9956485683797 54.39255349809537,183.17480913634063 54.40425137692364,183.36775100325758 54.39255349809537,183.75363385617675 54.45104289217852,184.11195259640226 54.45104289217852,184.7321172534721 54.474438649835065,185.40740420760994 54.521230165148154,185.6003426767129 54.63820895337267,185.7932808521291 54.80197925691027,185.93109365479904 55.000843196874484,186.0 55.199707136896905,186.0 55.37517531920457,185.91731238129432 55.51554986508563,185.76571827361477 55.585737138055265,185.6003426767129 55.62083077454008,185.40740420760994 55.585737138055265,184.36001882328128 55.538945622742176,184.16707846657664 55.39857107680291,183.98791930096922 55.22310289455345,183.8776673808752 55.02423895453103,183.82254138488497 54.83707289333688,183.8501043858705 54.67330258979928,183.96035632990242 54.55632380157476,184.12573406621232 54.4978344074334,184.31867448586854 54.4978344074334,184.52539603822515 54.50953228631988,185.36606021173066 54.532928043976426,185.558998743727 54.59141743811779,185.73815568910504 54.720094105170574,185.87596855172887 54.88386440864997,185.97243746642198 55.08272834867239,185.97243746642198 55.26989440980833,185.91731238129432 55.433664713345934,185.77949956359225 55.538945622742176,185.6003426767129 55.585737138055265,185.39362287710537 55.6091328956536,185.1869027405337 55.59743501688354,184.3875817074295 55.55064350157045,184.19464139261981 55.45706047100248,184.0292637462553 55.328383803891484,183.89144887615112 55.152915621583816,183.80875988215848 54.96574956038967,183.7811968721653 54.77858349925373,183.86388588410045 54.63820895337267,184.0292637462553 54.54462592274649,184.2222043127549 54.4978344074334,184.4427074577252 54.48613652866334,184.64942880779563 54.532928043976426,185.43496686402068 54.57971955923131,185.614123984662 54.67330258979928,185.77949956359225 54.81367713568034,185.9035311062471 54.98914531810442,185.97243746642198 55.188009258010425,185.97243746642198 55.3634774403763,185.87596855172887 55.480456228600815,185.72437439461646 55.56234138045693,185.54521742976794 55.59743501688354,185.35227887681685 55.62083077454008,185.159340030179 55.585737138055265,184.37380026608298 55.55064350157045,184.19464139261981 55.45706047100248,184.04304522502935 55.30498804623494,183.93279335286934 55.12951986392727,183.8501043858705 54.94235380273312,183.80875988215848 54.76688562036725,183.86388588410045 54.626511074544396,184.01548226598243 54.532928043976426,184.19464139261981 54.4978344074334,184.3875817074295 54.4978344074334,184.5943031474162 54.54462592274649,184.98018226688146 54.55632380157476,185.5865613671922 54.614813195716124,185.73815568910504 54.720094105170574,185.86218727219966 54.8721665298217,185.94487492686312 55.0359368333593,185.97243746642198 55.21140501566697,185.94487492686312 55.3634774403763,185.86218727219966 55.49215410742909,185.71059309858538 55.574039259168785,185.54521742976794 55.6091328956536,185.36606021173066 55.62083077454008,184.4151445855823 55.574039259168785,184.2084228534659 55.480456228600815,184.04304522502935 55.31668592512142,183.91901186213363 55.12951986392727,183.8363228861126 54.93065592396306,183.8363228861126 54.74348986276891,183.90523036988452 54.60311531688785,184.04304522502935 54.532928043976426,184.23598577051598 54.50953228631988,184.42892602240318 54.4978344074334,185.2420281432569 54.4978344074334,185.44874818998505 54.54462592274649,185.62790529118502 54.64990683220094,185.7932808521291 54.81367713568034,185.91731238129432 54.98914531810442,185.97243746642198 55.17631137924036,185.94487492686312 55.351779561606236,185.84840599115705 55.480456228600815,185.69681180111365 55.538945622742176,185.53143611428095 55.56234138045693,185.36606021173066 55.6091328956536,184.37380026608298 55.585737138055265,184.19464139261981 55.50385198625736,184.04304522502935 55.351779561606236,183.91901186213363 55.17631137924036,183.8363228861126 54.97744743921794,183.82254138488497 54.79028137802379,183.90523036988452 54.63820895337267,184.04304522502935 54.54462592274649,184.2084228534659 54.50953228631988,184.3875817074295 54.46274077100679,185.17312138612033 54.46274077100679,185.36606021173066 54.48613652866334,185.558998743727 54.568021680403035,185.73815568910504 54.69669834745582,185.8897498297447 54.8721665298217,185.97243746642198 55.07103046978591,185.98621873394586 55.258196531038266,185.93109365479904 55.42196683451766,185.80706213912345 55.538945622742176,185.6554678996181 55.59743501688354,185.46252951443603 55.6091328956536,185.2558094902197 55.59743501688354,184.4427074577252 55.56234138045693,184.24976722685096 55.49215410742909,184.07060817810998 55.37517531920457,183.93279335286934 55.21140501566697,183.8363228861126 55.01254107570276,183.80875988215848 54.825375014566816,183.86388588410045 54.66160471102921,183.98791930096922 54.532928043976426,184.13951553449442 54.48613652866334,184.3324559331959 54.532928043976426,184.9250567502604 54.521230165148154,185.32471620241995 54.54462592274649,185.51765479730966 54.614813195716124,185.68303050209943 54.73179198394064,185.82084342464805 54.8721665298217,185.91731238129432 55.04763471218757,185.95865619737015 55.234800773323514,185.94487492686312 55.386873198032845,185.86218727219966 55.50385198625736,185.72437439461646 55.574039259168785,185.54521742976794 55.59743501688354,185.35227887681685 55.574039259168785,184.78724285395583 55.574039259168785,184.42892602240318 55.55064350157045,184.23598577051598 55.480456228600815,184.07060817810998 55.3634774403763,183.93279335286934 55.199707136896905,183.8501043858705 55.01254107570276,183.82254138488497 54.825375014566816,183.8501043858705 54.64990683220094,183.9465748421644 54.54462592274649,184.11195259640226 54.4978344074334,184.3048930370569 54.48613652866334,184.4840517547418 54.521230165148154,185.338497540346 54.55632380157476,185.51765479730966 54.63820895337267,185.69681180111365 54.76688562036725,185.8346247086447 54.90726016624831,185.93109365479904 55.08272834867239,185.95865619737015 55.246498652151786,185.91731238129432 55.39857107680291,185.80706213912345 55.51554986508563,185.68303050209943 55.574039259168785,185.51765479730966 55.6091328956536,185.13177731382893 55.59743501688354,184.53917746305524 55.59743501688354,184.34623737898073 55.55064350157045,184.16707846657664 55.46875834977254,184.00170078419615 55.340081682719756,183.89144887615112 55.17631137924036,183.8363228861126 54.98914531810442,183.82254138488497 54.825375014566816,183.89144887615112 54.67330258979928,184.00170078419615 54.568021680403035,184.16707846657664 54.50953228631988,184.34623737898073 54.4978344074334,184.53917746305524 54.568021680403035,185.32471620241995 54.60311531688785,185.51765479730966 54.66160471102921,185.69681180111365 54.76688562036725,185.8346247086447 54.90726016624831,185.93109365479904 55.08272834867239,185.95865619737015 55.246498652151786,185.93109365479904 55.41026895568939,185.84840599115705 55.51554986508563,185.71059309858538 55.574039259168785,185.54521742976794 55.585737138055265,185.338497540346 55.585737138055265,184.9250567502604 55.538945622742176,184.19464139261981 55.46875834977254,184.00170078419615 55.340081682719756,183.86388588410045 55.188009258010425,183.80875988215848 55.000843196874484,183.80875988215848 54.83707289333688,183.86388588410045 54.68500046868576,183.96035632990242 54.55632380157476,184.07060817810998 54.31066834629746,183.67094477229693 54.43934501335025,183.29884322735597 54.45104289217852,183.07833809277508 54.43934501335025,182.89917738847726 54.474438649835065,182.74757967167534 54.60311531688785,182.6511083029618 54.9540516816196,182.58220013751998 55.49215410742909,182.56841849992634 55.84309047210263,182.51329193462152 56.24081835208926,182.6097634082107 56.60345259559108,182.6235450412787 56.790618656843435,182.6648899315478 57.09476350620389,182.09984193055425 57.16495077917352,181.9068981338496 57.70305320498301,179.3710380833072 57.63286593207158,179.16430812542967 57.656261689728126,178.544116228848 57.72644896263955,178.130653278713 57.72644896263955,177.93770344044606 57.70305320498301,177.52423851219646 57.72644896263955,177.12455446625245 57.71475108381128,176.8075627750659 57.71475108381128,176.44922338693868 57.644563810899854,175.42932881429442 57.656261689728126,174.4507736046362 57.597772295586765,173.30681920377538 57.62116805324331,172.87955647798663 57.550980780331884,172.31446485429478 57.597772295586765,171.9147643796896 57.656261689728126,171.10157676435483 57.63286593207158,170.3297328454355 57.597772295586765,169.97137514236965 57.597772295586765,169.7921959108353 57.63286593207158,169.40627055174264 57.63286593207158,169.21330743152066 57.60947017441504,168.86872970036347 57.60947017441504,168.5103678660962 57.51588714384707,167.91769030096475 57.4223041132791,167.5455425062537 57.18834653683007,167.02177709196985 57.05966986977728,166.63584329624427 56.20572471560445,164.4856192041916 55.74950744153466,163.43806091642182 55.31668592512142,162.18373631100985 55.08272834867239,161.67373264620255 54.91895804513479,161.12237502385688 54.521230165148154,160.07478893178632 54.35745986161055,159.50964020669926 54.228783194557764,159.1788202711905 54.07671076984843,158.6550202734652 53.9246383451391,158.31041383086995 53.73747228394495,157.99337507595192 53.5970977381221,157.66255118155095 53.49181682872586,157.304157654522 53.30465076753171,156.7941343490238 53.1876719793072,156.22897099093825 52.90692288754508,155.51217481288768 52.743152584007476,154.98835965669423 52.322028946422506,154.31291060063813 52.263539552281145,154.13370922625472 52.216748037026264,153.73395140077628 52.1582586428849,153.55474920746929 52.02958197577391,153.1825592268724 51.81902015703963,152.70008910617616 51.643551974673755,152.20383220801887 51.351105004083365,151.4732282370387 50.918283487670124,150.0947187038546 50.49715985002695,148.5783408920397 50.286598031176254,148.08206784774666 50.22810863703489,147.88907224987634 50.02924469707068,147.18601437126927 49.93566166650271,146.66216478767456 49.77189136296511,146.49673815327697 49.86547439353308,146.40023918348015 49.818682878278196,146.24859779667167 49.71340196888195,145.68338739206956 49.6081210594275,145.36631703656167 49.33906984649366,144.77353119941836 49.16360166418599,144.11181349992694 49.05832075478975,143.8912401652342 49.01152923947666,143.7671674956655 48.847758935939055,143.02272892625479 48.68398863245966,142.47129012810183 48.6254992383183,141.9198489292612 48.54361408652039,141.5476247628685 48.35644802538445,140.99617954276619 48.28626075241482,140.65152506099548 48.169281964190304,140.2655109280313 48.0055116606527,139.56241073433193 47.79494984180201,139.05231599402032 47.61948165955255,138.2802768037218 47.11647287016967,136.47423817383242 46.882515293662436,135.74354347155895 46.75383862660965,135.17828618720523 46.51988105016062,134.33728897302353 46.35611074662302,133.8547470664489 46.13385104894405,132.86208364837512 45.95838286657818,132.31060060953314 45.81800832081353,131.96592249072273 45.64254013844766,131.26277621932968 45.36179104668554,130.35281642555492 45.16292710666312,129.85647196380887 45.08104195492342,129.553149390631 44.999156803125516,129.41527525351557 44.95236528781243,128.7672647983709 44.718407711421605,128.7534773058578 44.566335286712274,128.6431773116783 44.41426286200294,128.31227675259288 44.26219043729361,127.78834909894795 44.16860740672564,127.25063162138395 44.133513770240825,126.89215203441563 44.285586194950156,124.65852559207997 44.35577346791979,124.12079482314584 44.40256498317467,123.41760498726217 44.379169225518126,123.03153831866803 44.29728407372022,122.43864792845852 44.905573772557545,122.56274149563978 44.25049255846534,121.85954300661979 43.96974346670322,121.01845733157825 43.86446255730698,120.57722982506675 43.560317707946524,120.1222123484331 42.95202800916741,119.36384625339997 42.43732134089805,118.5778984160861 42.33204043150181,118.44001232746814 42.27355103736045,118.30212608876172 42.308644673845265,118.150451052672 42.41392558324151,118.02635316071974 43.47843255614862,117.29555199628521 43.513526192633435,117.0473544147244 43.64220285968622,116.92325544152118 44.086722254927736,116.60611306832288 44.484450134972576,116.39928065777349 44.98745892435545,116.09592584443453 45.12783347023651,115.98561482297373 45.22141650080448,115.86151480894478 45.244812258461025,115.7512035832624 45.198020743147936,115.64089226142096 45.02255256084027,115.3651135363325 44.92896953021409,115.18585704288853 44.87048013607273,115.0203892851423 44.82368862081785,114.70324214498396 44.87048013607273,114.52398471430934 45.32669741020072,114.12410183888278 45.490467713738326,114.0" stroke="#4dd2ff" stroke-linecap="round" stroke-linejoin="round" stroke-width="0.5"><title>2022-09-06 11.1km</title></polyline><polyline fill="none" points="173.12662785925204,114.0365013651026 172.0771212464897,114.12775473935471 171.55236794019584,114.07300272148859 171.1775441499194,114.0 169.49833356955787,114.09125339628372 168.9136084567872,114.07300272148859 168.3588692471385,114.10950406889606 168.17895382782444,114.09125339628372 167.59422871493734,114.14600540754327 166.72463752160547,114.14600540754327 166.48475029575638,114.20075739893946 166.1998842151952,114.18250673732837 165.8850322313956,114.23725871545321 165.6001661507762,114.25550937037042 163.7410401510424,114.14600540754327 162.856456006004,114.16425607351994 162.28672384482343,114.12775473935471 161.95687890937552,114.12775473935471 161.38714674825314,114.18250673732837 160.92236524826149,114.14600540754327 159.79789387749042,114.20075739893946 157.33904981333762,114.10950406889606 156.49944452318596,114.16425607351994 155.80976874905173,114.12775473935471 154.62532557186205,114.16425607351994 154.4753960557282,114.05475204440881 153.90566389454762,114.23725871545321 151.44681983039482,114.18250673732837 150.93705947563285,114.21900805828045 150.5022638789378,114.20075739893946 149.09292642754735,114.20075739893946 148.82305329857627,114.20075739893946 148.5831660727854,114.14600540754327 148.07340571802342,114.10950406889606 147.83351849229075,114.12775473935471 147.3537440407672,114.25550937037042 146.46915989578702,116.02581239136634 145.97439249255694,115.98931150815042 145.1797660572338,116.02581239136634 144.64001979923341,115.98931150815042 143.89037221868057,115.98931150815042 143.29065415426157,116.02581239136634 142.720921993081,116.02581239136634 141.67141538037686,115.98931150815042 141.40154225134756,116.0075619508716 140.99673255789094,115.971061063261 140.45698629989056,116.0075619508716 140.20210612245137,115.98931150815042 140.14213431609096,115.80680695959018 140.12714136444265,115.49654871963139 139.85726823541336,115.42354668800544 137.63831139705144,115.40529617453285 135.98908671998652,115.44179719922249 134.6846999298432,115.42354668800544 133.4852638010052,115.47829821505002 132.42076423665276,115.46004770825675 132.16588405921357,115.47829821505002 132.01595454319613,115.62430218991358 131.83603912382387,116.75582819794363 131.83603912382387,117.0295832134143 131.76107436581515,117.55884149957274 131.70110255933832,118.54435197469138 131.6261378012714,119.237855481726 131.50619418843416,119.98610568558797 131.44622238195734,120.71610230328224 131.2962928658817,121.42784560010477 131.14636334974784,122.81482287766994 131.0414126885007,123.32581128785387 130.9964338336722,123.80029897416534 130.84650431753835,124.51202770193049 130.81651841429994,125.00476100563537 130.7565466078231,125.26025171390211 130.7265607046429,126.22746261380962 130.66658889816608,126.93917987684836 130.50166643044213,127.705640862172 130.44169462408172,128.4538490158302 130.30675805959618,129.42103941646928 130.27677215635777,129.8955079092848 130.20180739823263,130.36997490817157 130.1118496886338,131.30065583593387 129.88695541449124,132.83352953961003 129.87196246284293,133.5452156017127 129.82698360801442,133.76419525232632 129.7670118015958,134.74959974222293 129.61708228546195,135.698501679537 129.57210343063343,136.41017421150173 129.422173914616,137.12184338257066 129.37719505972927,138.07073038283852 129.33221620484255,138.3261989390594 129.24225849524373,139.07435436239757 129.24225849524373,139.32982121726673 129.1822866887669,139.82250607160677 128.94239946303423,141.55601405198104 128.92740651138593,142.08518619998358 128.8674347049673,142.34064795123413 128.79246994684217,143.27125495462678 128.67252633400494,144.07412696775282 128.59756157599622,145.05946404759015 128.5225968179293,145.51563644006092 128.37266730179545,146.31849649746437 128.37266730179545,146.57395107336924 128.32768844696693,147.4862853101513 128.11778712441446,148.3256279306661 128.10279417282436,148.56283260670898 128.04282236640574,148.81828337881598 127.83292104385328,151.06258226608043 127.74296333419625,151.55522876855684 127.74296333419625,151.77418225278961 127.54805496323388,152.81420695960696 127.42811135028023,154.6023028389609 127.2931747858529,155.58757109633007 127.14324526977725,156.2991497215553 127.03829460841371,157.50335205056763 126.9933157535852,157.74054228440218 126.93334394722478,158.47035604764824 126.76842147944262,158.7987710883899 126.78341443103272,159.20016627761652 126.82839328591945,159.45559902337845 126.6934567214339,159.67454103237833 126.6934567214339,160.7874913283158 126.57351310848026,161.55378019843192 126.55852015694836,161.7727191602171 126.49854835047154,161.99165780391195 126.49854835047154,162.21059612976387 126.42358359246282,162.86740919938893 126.3935976892244,163.5971981428156 126.22867522144224,164.16278214404883 126.21368226991035,164.6006521715899 126.15371046343353,164.8195867084578 126.10873160860501,165.45814395831258 126.0637527537765,165.6588328210928 125.89883028605254,166.80822752506356 125.77888667321531,168.01234591152752 125.7489007699769,168.66913370526163 125.65894306031987,169.1252346564288 125.61396420549136,169.58133422787068 125.55399239901453,169.80026153202925 125.50901354418602,170.21987130977504 125.4640346893575,170.384066122293 125.34409107646206,170.54826075602614 125.28411927004345,170.78543046681443 125.23914041515673,171.25976876920322 125.23914041515673,171.4969373607746 125.08921089908108,172.7010183014063 125.02923909260426,173.37602916787728 124.89430252817692,174.3429313605593 124.8343307217001,174.56185175088467 124.72938006039476,175.29158408963121 124.69939415721456,175.784151421758 124.63942235079594,176.0030697195616 124.5644575926708,176.65982270579843 124.5644575926708,176.8969828034169 124.44451397983357,177.5719748857082 124.38454217341496,178.2287210385257 124.36954922182485,178.9766784508538 124.29458446369972,179.46923374506878 124.2046267541009,179.6881466927298 124.09967609279556,180.3813689302042 124.03970428637695,180.60028055368457 124.00971838308033,181.03810284714564 123.76983115740586,182.64344038069248 123.6049086896819,183.13598369776446 123.66488049604231,185.78109621524345 124.71438710886287,185.83582219116215 125.23914041515673,185.8175802013866 125.80887257639552,185.8723061641649 126.61849196336698,185.89054814731935 127.65300562448101,186.0 127.83292104385328,185.98175803004415 127.9378717050422,185.85406417876948 128.17775893083308,185.8175802013866 129.37719505972927,185.8723061641649 129.88695541449124,185.85406417876948 130.3667298660148,185.8175802013866 131.11637744650943,185.68988621108292 131.37125762389041,185.6716442036559 132.64565851079533,185.5074660373939 133.36532018805156,185.36152973950084 134.26489728473825,185.27031948164222 136.12402328447206,185.16086709935917 137.33845236484194,185.05141463768086 138.58286734856665,184.99668837699573 139.977211848367,184.88723579613725 140.51695810636738,184.88723579613725 140.77183828369016,184.85075158486143 141.4765070094145,184.83250947593478 142.21116163831903,184.83250947593478 143.21568939625286,184.7595410180511 143.6804708961863,184.70481465150078 145.16477310558548,184.2852451812505 145.7944770732429,183.95688565114688 146.57411055697594,183.39137589545862 146.7540259763482,183.28192214938463 148.07340571802342,182.6251980047382 148.268314089044,182.47925891750492 148.6131519760238,182.15089545483352 148.9729828146519,181.91374362041824 149.67765154037625,181.6218639275903 150.11244713707129,181.29349859792273 150.54724273376632,180.69149363628821 150.7271581531386,180.54555267762044 151.59674934658688,180.16245698898274 152.3014180721948,179.56044751184527 153.2459740236518,178.53885017195717 153.80071323324228,178.082777696196 154.28048768482404,177.62670384102967 154.4753960557282,177.46251691546058 154.83522689441452,177.1158994854777 154.98515641049016,176.9152258724207 155.62985332979588,176.31320343064726 156.43947271670913,175.71117858520302 156.79930355539545,175.4010436358367 157.51896523265168,174.92671836173395 157.8937890229281,174.63482514370116 158.08869739389047,174.50712168312748 159.33311237755697,173.63143789683818 159.7529150226619,173.4490031345922 160.20270357094705,173.33954217126302 160.42759784514783,173.23008112846583 160.56253440963337,173.04764588054968 160.78742868383415,172.66453114146134 161.312181990128,172.26317179917532 161.49209740944207,172.11722268258745 161.64202692563413,171.8618113885459 162.7964841996436,170.93138087261468 163.0963432317949,170.47528538531333 163.27625865116715,170.27460293384502 163.48615997366142,170.12865189222794 163.7560331026325,170.09216410975205 164.01091328001348,170.21987130977504 164.20582165103406,170.42055383414845 164.41572297358653,170.5847484281112 164.59563839284237,170.493529231273 164.77555381215643,170.31109067212674 165.5701802475378,169.1252346564288 165.98998289264273,168.0488341973687 166.07994060235796,167.86639267991995 166.2448630700237,167.82990434995736 166.40978553774767,167.72043930699874 166.5447221022332,167.55624159354193 166.63467981194844,167.08189163914358 166.61968686024193,166.84471610230685 166.43977144092787,166.06020974520652 166.42477848939598,165.78654377644125 166.34981373132905,165.22096586694533 166.1848912635469,164.7101194797433 166.15490536036668,164.45469563704683 166.15490536036668,164.1992713615764 166.2298701183754,163.670176842832 166.2598560216138,162.66671662066074 166.2148771668435,161.95516805208172 166.09493355394807,161.24361612500797 166.03496174747124,159.87523759464966 165.95999698946252,159.41910865763202 165.72010976361344,158.45211074661347 165.64514500560472,158.21492163240327 165.42025073140394,157.30265233042883 165.07541284436593,155.53283413987083 164.89549742505187,154.857743375891 164.86551152181346,154.6205486059771 164.58064544125227,153.67176579363877 164.47569477994693,153.1243883776915 164.20582165103406,152.04787366086384 164.055892134842,151.57347490436223 163.711054247804,149.98605282368953 163.60610358661506,149.18321230224683 163.33623045758577,147.9059572046972 163.05136437702458,146.37323680018017 162.94641371571925,145.6068707529048 162.91642781248083,145.11420480761444 162.88644190924242,144.8769947040273 162.66154763515806,144.20185621190467 162.61656878027134,143.96464467239275 162.5266110706143,143.47197335888632 162.4666392641957,143.234760670588 162.4816322157858,142.9610532586521 162.43665336095728,142.742086971135 162.09181547391927,141.9757024597493 161.8519282481866,141.2640562095039 161.2522101837676,138.83713475221884 161.08728771598544,137.92474815632158 160.84740049019456,136.82987694971962 160.71246392576722,135.86273410060676 160.45758374838624,134.5488697205874 160.3376401354326,133.56346391809348 160.26267537742388,133.34448397581582 160.0827599580516,132.39556721542613 160.0077952000429,132.19483405802748 159.7079361678334,130.60720784739533 159.58799255499616,130.16923905251315 159.46804894204251,129.53053227814962 159.078232200176,127.06692364513583 159.0632392485859,126.61069540394237 159.1232110550045,126.13621656768373 159.46804894204251,125.27850103360834 159.54301370016765,125.04125970472523 159.99280224839458,124.00104331465263 160.367626038671,123.16156520214281 160.47257669997634,122.979069341367 160.6374991676421,122.57757766958093 160.74244982900564,122.37683143249888 161.0123229579185,121.75634137238376 161.2372172321193,121.39134602564445 161.92689300619531,120.62485291949997 162.2267520384048,120.36935435091436 162.75150534475688,120.00435564418149 163.1263291350333,119.78535599565657 163.50115292530973,119.6211060503847 163.93594852200476,119.51160598738352 164.71558200579602,119.58460603823187 166.16989831195679,119.94960576186713 168.79366484383354,120.24160490410577 169.19847453734837,120.40585417290276 170.2030022951658,120.67960255636717 171.31248071434675,120.8256014908402 171.95717763359426,120.8256014908402 172.61686750454828,120.8803510548023 173.08164900442353,120.8803510548023 173.3215362301562,120.93510059884284 173.69636002043262,120.97160028385406 174.5059794074623,121.09934911165328 175.150676326768,121.31834685018111 175.58547192334663,121.22709783120081 176.0352604717482,121.26359744540241 176.24516179424245,121.24534763941483 176.3651054071379,121.09934911165328 176.3950913103763,120.91685075307032 176.32012655230938,120.31460460122616" stroke="#4dd2ff" stroke-linecap="round" stroke-linejoin="round" stroke-width="0.5"><title>2017-07-27 14.4km</title></polyline><polyline fill="none" points="86.0,230.01986184292764 85.95300261094235,228.98999558099604 85.8433420364745,228.2080555849243 85.67101827671286,226.20550861117954 85.59268929500831,225.74778001074446 85.56135770236142,225.32819429082156 85.59268929500831,225.0421124768036 85.53002610959811,224.29829732634244 85.53002610959811,223.80241860618116 85.48302872059867,223.573550977555 85.45169712789357,223.32561067093047 85.23237597907428,220.73175019690825 85.10704960837029,218.78632678289432 84.93472584849223,217.2604876679252 84.93472584849223,216.85995244857622 84.85639686678769,216.1923914840445 84.84073107049335,215.06706801857217 84.77806788508315,214.81911430860055 84.52741514361696,214.76189416614943 83.00783289817628,214.6093070179777 81.95822454302106,214.53301338847086 79.95300261088414,214.55208679933276 79.71801566577051,214.51393997532432 77.72845952998614,214.62838041959913 77.03916449082317,214.6093070179777 76.2872062663082,214.68560061060998 75.56657963444013,214.70467400296184 74.1253263707622,214.9717012532492 73.62402088771341,215.00984796629928 72.65274151437916,215.18150806060294 72.43342036550166,215.21965472280863 72.21409921674058,215.2005813928845 71.74412532633869,215.27687469878583 71.02349869447062,215.2005813928845 69.2689295039163,215.27687469878583 68.0939947780571,215.41038789505546 65.50913838116685,215.58204755239422 64.81984334200388,215.7155604896834 64.13054830284091,215.75370702240616 63.660574412497226,215.75370702240616 63.409921670972835,215.7918535459321 63.1749347258592,215.77278028531873 62.297650130523834,215.98258602451824 61.38903394254157,216.11609862203477 60.90339425590355,216.07795217719104 59.50913838116685,216.09702540074068 58.318537859013304,216.287757509519 57.03394255874446,216.5929284026206 55.686684073123615,216.82180618407438 54.68407310702605,216.8980987038667 54.18276762397727,216.76458676990296 52.83550913835643,216.95531806950748 52.61618798947893,216.8790255773638 52.16187989554601,216.82180618407438 51.45691905997228,216.93624494993128 51.002610966039356,216.95531806950748 50.736292428162415,216.8790255773638 50.485639686638024,216.85995244857622 50.28198433422949,216.8027330483019 50.062663185351994,216.78365991024475 49.436031331599224,216.91717182804132 48.95039164490299,216.93624494993128 48.496083550853655,216.85995244857622 47.164490861585364,216.85995244857622 46.569190600537695,216.78365991024475 46.11488250648836,216.8027330483019 45.456919060030486,216.74551362721832 45.237597911211196,216.76458676990296 44.62663185375277,216.74551362721832 43.92167101823725,216.82180618407438 43.45169712789357,216.72644048224902 42.95039164490299,216.72644048224902 42.01044386421563,216.76458676990296 41.79112271539634,216.76458676990296 41.57180156657705,216.70736733496597 40.72584856400499,216.6882941853837 40.47519582242239,216.65014787917607 38.783289817220066,216.6882941853837 37.49869451695122,216.57385523915582 36.80939947778825,216.55478207333363 36.15143603133038,216.47848938703828 35.91644908610033,216.3640502882481 35.50913838116685,216.2496111062501 34.50652741512749,216.135171840986 34.2558746736031,216.07795217719104 34.02088772848947,216.07795217719104 32.89295039162971,215.98258602451824 32.65796344639966,215.90629306081973 31.968668407353107,215.92536630526592 30.590078328968957,215.77278028531873 30.355091383797117,215.7918535459321 30.135770234977826,215.69648721988779 29.509138381225057,215.6392673964874 29.211488250643015,215.6583406732825 28.584856396832038,215.58204755239422 28.067885117488913,215.58204755239422 27.51958224538248,215.543900978053 27.049608355097007,215.41038789505546 26.767624020867515,215.41038789505546 25.122715404664632,215.25780137568654 22.89817232376663,214.83818768474157 21.378590078325942,214.9144811663573 20.516971279343124,214.89540779942763 19.34203655354213,214.70467400296184 18.355091383855324,214.6093070179777 15.394255874678493,214.24691194812476 14.297650130582042,214.22783850025735 14.109660574409645,214.36135258665308 14.01566579635255,214.57116020786634 14.0,214.78096754928993 14.20365535246674,215.41038789505546 14.40731070493348,215.8300000601157 14.62663185375277,216.72644048224902 15.049608355155215,217.88989809564373 15.253263707563747,218.59559770267515 15.347258485620841,218.8244725711993 15.660574412555434,219.79718704878178 15.84856396872783,220.48380541280494 16.067885117488913,221.41836448319373 16.099216710194014,221.85703315325372 16.318537858955096,223.44004470716754 16.39686684071785,225.72870795681956 16.381201044423506,226.186436612712 16.224543080898002,227.75033280884963 15.95822454302106,229.90543259104015 15.879895561374724,230.36314909935754 15.879895561374724,230.57293538737576 15.785900783259422,231.50743454610347 15.112271540449001,236.50405018491438 14.955613577039912,237.7817852046137 14.92428198439302,238.50646612845594 14.814621409925167,238.96415762444667 14.67362924281042,240.20373207630473 14.391644908639137,242.20610095461598 14.297650130582042,243.96053655918513 14.313315926876385,244.18937454423576 14.20365535246674,244.93309569825942 14.172323759761639,245.3907685080485 14.187989556172397,245.63867405775818 14.375979112286586,245.7721614997572 14.84595300257206,245.71495260986558 15.770234986965079,245.67681333841756 15.942558746726718,245.60053476780013 16.036553524783812,245.20007166564756 16.271540469955653,245.12379286401847 16.4751958224806,245.10472315781226 17.13315926893847,244.9903048722481 17.38381201046286,244.9712351498456 18.840731070551556,245.04751402541297 19.31070496083703,245.12379286401847 19.843342036532704,245.16193226947507 21.300261096621398,245.12379286401847 21.53524804173503,245.14286256794003 22.64751958224224,245.02844431000995 22.94516971282428,245.0856534493505 23.180156657937914,245.0856534493505 24.24543080944568,245.02844431000995 24.699738903378602,244.9712351498456 26.501305482990574,244.8568167672347 27.409921671031043,244.7614680515253 29.007832898176275,244.89495623737457 29.82245430810144,244.89495623737457 30.073107049567625,244.93309569825942 30.496083550911862,244.93309569825942 30.997389033960644,244.9712351498456 31.796344647475053,244.91402596898843 32.89295039162971,244.95216542518756 33.69190600520233,244.91402596898843 34.19321148825111,244.9712351498456 34.91383812011918,244.9712351498456 35.74412532633869,245.02844431000995 36.71540469973115,244.9903048722481 36.8250652741408,244.87588650349062 36.99738903390244,244.93309569825942 37.09138381201774,245.02844431000995 37.624020887713414,245.00937459230772 38.0313315927051,245.04751402541297 39.06527415144956,245.02844431000995 39.61357702349778,244.95216542518756 40.66318537859479,244.89495623737457 40.83550913835643,244.83774702869414 41.05483028717572,244.81867728786892 41.68146214092849,244.9712351498456 42.48041775455931,245.06658373856044 43.76501305482816,244.91402596898843 44.25065274152439,244.87588650349062 44.986945169686805,244.91402596898843 46.24020887725055,244.93309569825942 47.21148825058481,244.87588650349062 47.916449086216744,244.87588650349062 48.15143603127217,244.81867728786892 48.41775456914911,244.83774702869414 48.966057441197336,244.78053779927723 50.1879895561724,244.89495623737457 51.190600522153545,244.8568167672347 52.44386422971729,244.72332854899287 53.885117493453436,244.79960754475906 54.15143603133038,244.79960754475906 54.38642297650222,244.64704951638123 54.60574412532151,244.64704951638123 55.686684073123615,244.72332854899287 55.96866840723669,244.79960754475906 56.297650130523834,244.79960754475906 56.68929503910476,244.8568167672347" stroke="#4dd2ff" stroke-linecap="round" stroke-linejoin="round" stroke-width="0.5"><title>2017-07-21 10.2km</title></polyline></svg>