<?xml version="1.0" encoding="utf-8" ?>
<svg baseProfile="full" height="200mm" version="1.1" viewBox="0,0,200,200" width="200mm" xmlns="http://www.w3.org/2000/svg" xmlns:ev="http://www.w3.org/2001/xml-events" xmlns:xlink="http://www.w3.org/1999/xlink"><defs /><rect fill="#1a1a1a" height="200" width="200" x="0" y="0" /><text alignment-baseline="middle" fill="#e1ed5e" style="dominant-baseline: central; font-size:9.0px; font-family:Arial;" text-anchor="middle" x="100.0" y="100.0">2023</text><line stroke="#e1ed5e" stroke-width="0.3" x1="100.0" x2="100.0" y1="15.0" y2="10.0" /><path d="M 100.0 14.0 a86.0,86.0 0 0,1 42.46469731375804,11.215312516191453" fill="none" id="id73" stroke="none" /><text fill="#e1ed5e" style="font-size:6.75px; font-family:Arial;" text-anchor="middle"><textPath startOffset="22.20632615414155" xlink:href="#id73">January</textPath></text><path d="M 100.0 79.0 l 0.0 -37.690850566854664 a58.690850566854664,58.690850566854664 0 0,0 1.0102665138961413,0.008695682837625507 l -0.648786034623613 37.685266260625596" fill="#43ff2d" stroke="none" /><path d="M 100.72285384407766 79.0124445844662 l 0.6897647388696392 -20.026836405884087 a41.03871133139634,41.03871133139634 0 0,0 0.7057860392505529,0.030392631510500145 l -1.0343916105095237 20.011996047849394" fill="#fff417" stroke="none" /><path d="M 101.08401301168833 79.027996857942 l 1.1578326941721275 -22.400165531534057 a43.43006893408534,43.43006893408534 0 0,0 0.7462484329966559,0.04501574339443142 l -1.5432431760083953 22.376916518759323" fill="#edff1a" stroke="none" /><path d="M 101.44485096284872 79.0497635885617 l 1.3851735887209138 -20.08491872225167 a41.13262690138437,41.13262690138437 0 0,0 0.705933441550353,0.05479402157456851 l -1.730697219633608 20.058099438488636" fill="#fff517" stroke="none" /><path d="M 101.80526077348638 79.07773832637324 l 3.4865403550148053 -40.407630141103176 a61.55776790292257,61.55776790292257 0 0,0 1.0549092333653574,0.10017634280682947 l -4.181574715470407 40.34162825378117" fill="#31ff3b" stroke="none" /><path d="M 102.16513564639614 79.11191278185805 l 0.6346895384567479 -6.12315004733945 a27.15595624679542,27.15595624679542 0 0,0 0.4645392229467613,0.05219639435695136 l -0.7399954649132344 6.111317699511898" fill="#ff3905" stroke="none" /><path d="M 102.52436894288641 79.15227682838746 l 5.183875204179863 -42.81148978538647 a64.1241952942517,64.1241952942517 0 0,0 1.094646645679796,0.14211655117832614 l -5.9200365783675055 42.71591491104401" fill="#34ff5a" stroke="none" /><path d="M 102.88285421437855 79.19881850522331 l 3.8902847248894754 -28.070277791077036 a49.33857460263203,49.33857460263203 0 0,0 0.8402383209207677,0.12382928691401131 l -4.372892026238898 27.999154020002056" fill="#a7ff21" stroke="none" /><path d="M 103.2404852339499 79.25152402106235 l 3.0792578784560902 -19.71615468410074 a40.955164359368766,40.955164359368766 0 0,0 0.6955957611794716,0.11477926068908308 l -3.418182845774437 19.66022916047203" fill="#fff316" stroke="none" /><path d="M 103.59715602781102 79.31037775812273 l 5.646569738067065 -32.477155269273936 a53.96436506580071,53.96436506580071 0 0,0 0.9138091192372814,0.16699277561971812 l -6.204773978407247 32.37514701230348" fill="#74ff27" stroke="none" /><path d="M 103.95276090670814 79.375362276772 l 4.507216335740195 -23.517664300691003 a44.9456788013445,44.9456788013445 0 0,0 0.75858372935704,0.1521647597238131 l -4.91136647456436 23.436595584889982" fill="#dbff1b" stroke="none" /><path d="M 104.307194497241 79.44645832069477 l 4.3675176317804985 -20.8413982088346 a42.294109269070816,42.294109269070816 0 0,0 0.7112605911341939,0.15545401645859971 l -4.72562094706822 20.763130694280132" fill="#fbff18" stroke="none" /><path d="M 105.01212808612495 79.60689891045804 l 0.9551397737189065 -3.886225895545939 a25.001880020509315,25.001880020509315 0 0,0 0.417044587492756,0.10631395123699651 l -1.0218932498966875 3.8692089481400744" fill="#ff1902" stroke="none" /><path d="M 105.36241919743992 79.69619591428918 l 5.095973388934227 -19.294956530871907 a40.956560132171134,40.956560132171134 0 0,0 0.6800780461059089,0.18589102009776873 l -5.427349324263847 19.204378969947847" fill="#fff316" stroke="none" /><path d="M 105.71112130821622 79.79150937346287 l 7.72892286045539 -27.34837114281588 a49.419529425169486,49.419529425169486 0 0,0 0.816621911716131,0.2383943292771892 l -8.198534989894949 27.211278484619985" fill="#a6ff21" stroke="none" /><path d="M 106.0581310904928 79.89281104454417 l 8.174950856630907 -27.13300176580898 a49.337777018173526,49.337777018173526 0 0,0 0.8110534430766888,0.251998252769789 l -8.640789672418315 26.98826337815667" fill="#a7ff21" stroke="none" /><path d="M 106.40334571778207 80.00007090966166 l 2.8650834639761915 -8.94867599578433 a30.396143109439983,30.396143109439983 0 0,0 0.49692943176421545,0.16382982073527577 l -3.0186957179828244 8.898032450789817" fill="#ff6709" stroke="none" /><path d="M 106.74666289553966 80.11325718540242 l 9.889058323460828 -29.149397650687046 a51.78117700677947,51.78117700677947 0 0,0 0.8416117887237554,0.2936218276050575 l -10.389352116247856 28.97485496990978" fill="#8cff24" stroke="none" /><path d="M 107.4271985657038 80.35727306442388 l 7.47388389442725 -19.766195718038293 a42.13200022788128,42.13200022788128 0 0,0 0.6761520651920884,0.26233649664193437 l -7.813019124619006 19.634616517505812" fill="#fdff18" stroke="none" /><path d="M 108.09893153111575 80.62456947434976 l 9.303951158269545 -22.25825204084174 a45.12453711616247,45.12453711616247 0 0,0 0.7140769812330742,0.3057304972070553 l -9.685711897292933 22.094802015671895" fill="#d8ff1c" stroke="none" /><path d="M 109.08828744355905 81.06846463323043 l 9.584217749282045 -19.96459271454321 a43.14592947074574,43.14592947074574 0 0,0 0.6667663726094469,0.32717936330489233 l -9.926455388901925 19.796658191103486" fill="#f0ff19" stroke="none" /><path d="M 109.41281617654863 81.2277094730956 l 21.667852744962097 -43.21291515667902 a69.34099584116674,69.34099584116674 0 0,0 1.062368485335577,0.5441864008047187 l -22.40848171788643 42.8335362305618" fill="#3aff96" stroke="none" /><path d="M 109.73455568895987 81.39251694778311 l 9.623916831787449 -18.395998242274597 a41.76132285079474,41.76132285079474 0 0,0 0.6340859359288731,0.3387067471866075 l -9.939147814244635 18.227612768586237" fill="#fffd17" stroke="none" /><path d="M 110.05341064243156 81.56283822128135 l 13.553366027121285 -24.855803764103097 a49.31085854269925,49.31085854269925 0 0,0 0.7417196362292927,0.41276617451879016 l -13.979209752422612 24.618822192024126" fill="#a7ff21" stroke="none" /><path d="M 110.36928655335952 81.73862282372117 l 4.079267366250703 -7.184008233802241 a29.2613798211132,29.2613798211132 0 0,0 0.43585977241034835,0.2524781129817337 l -4.202323871126381 7.112725963430457" fill="#ff5708" stroke="none" /><line stroke="#e1ed5e" stroke-width="0.3" x1="143.23703022742887" x2="145.7803849466894" y1="26.81831364943548" y2="22.513508569990506" /><path d="M 143.74570117128098 25.957352633546492 a86.0,86.0 0 0,1 28.547481713284135,27.462654790039103" fill="none" id="id74" stroke="none" /><text fill="#e1ed5e" style="font-size:6.75px; font-family:Arial;" text-anchor="middle"><textPath startOffset="19.985693538727396" xlink:href="#id74">February</textPath></text><path d="M 110.68208982089419 81.91981866633111 l 19.9990735165352 -33.849825431823895 a60.31632769327181,60.31632769327181 0 0,0 0.8893439562040273,0.5358197826754817 l -20.57877953895687 33.500559039689804" fill="#32ff2f" stroke="none" /><path d="M 110.99172775467656 82.1063720568725 l 10.52259791687797 -17.12992318606452 a41.103714464763854,41.103714464763854 0 0,0 0.5996852799220388,0.3755228672719474 l -10.815902349172273 16.94625597746963" fill="#fff417" stroke="none" /><path d="M 111.2981086023043 82.29822771554956 l 11.947343806743662 -18.718988010779217 a43.20674528570615,43.20674528570615 0 0,0 0.6234794538146936,0.4055283799703773 l -12.267790286342636 18.51056070664931" fill="#f0ff19" stroke="none" /><path d="M 111.60114157652 82.49532879139004 l 15.882475913049413 -23.96466908043666 a49.74992878710192,49.74992878710192 0 0,0 0.7097545294392658,0.4792294265533424 l -16.29263513689522 23.68772774158465" fill="#a3ff22" stroke="none" /><path d="M 111.90073688211348 82.69761687909136 l 24.071313294739173 -34.99708370789838 a63.47615792172279,63.47615792172279 0 0,0 0.8949197018806035,0.6269484417178756 l -24.67016413620343 34.577550423416575" fill="#33ff52" stroke="none" /><path d="M 112.19680574252982 82.90503203632743 l 7.075717705018011 -9.917282445968086 a33.182703811314305,33.182703811314305 0 0,0 0.46211605455542165,0.3357469665085573 l -7.245379075927222 9.794016244642853" fill="#ff8d0d" stroke="none" /><path d="M 112.48926042617603 83.11751280151076 l 16.747571945987982 -22.638703921276903 a49.1601150800433,49.1601150800433 0 0,0 0.6759605862401439,0.5091194994234686 l -17.134778685986507 22.347067832347587" fill="#a9ff21" stroke="none" /><path d="M 112.77801427241765 83.33499621200491 l 13.685668469914338 -17.848760537439553 a43.491682333504244,43.491682333504244 0 0,0 0.59017683744745,0.4606423828576125 l -13.990877862521218 17.610539765358716" fill="#ecff1a" stroke="none" /><path d="M 113.34407831869373 83.78471172551755 l 15.9972335247691 -19.439315852557062 a46.175354640232435,46.175354640232435 0 0,0 0.609388167465727,0.5103450651870419 l -16.329479229193947 19.1610696299762" fill="#ccff1d" stroke="none" /><path d="M 113.6212207817346 84.01681056812373 l 6.552200630694251 -7.688375774400233 a31.101606562980688,31.101606562980688 0 0,0 0.4044781725904059,0.35075948547630126 l -6.683572601931421 7.57445129550426" fill="#ff700a" stroke="none" /><path d="M 113.89432698308785 84.25364557470407 l 14.461350828710735 -16.388959025838314 a42.85700450065516,42.85700450065516 0 0,0 0.5489553959631163,0.4928575746708048 l -14.741317212269841 16.13760244239821" fill="#f4ff19" stroke="none" /><path d="M 114.16331599549186 84.49514656593476 l 15.598098448215064 -17.075537280017898 a44.12735714692646,44.12735714692646 0 0,0 0.5564083943559641,0.5171209629764303 l -15.889714726365876 16.80451173096683" fill="#e4ff1a" stroke="none" /><path d="M 114.42810811169701 84.74124197986012 l 19.43899808683461 -20.558133170661694 a49.29331168461232,49.29331168461232 0 0,0 0.6115111272227278,0.5882732198886331 l -19.789992457669754 20.22047686401076" fill="#a8ff21" stroke="none" /><path d="M 114.68862486808459 84.99185889309783 l 14.943156290863733 -15.268209257836453 a42.363897909189305,42.363897909189305 0 0,0 0.5167673337952722,0.5145481706358374 l -15.203759424826327 15.008725236550498" fill="#faff18" stroke="none" /><path d="M 114.94478906791727 85.2469230424477 l 7.329357756005572 -7.235336580019881 a31.299008716458726,31.299008716458726 0 0,0 0.37519423831431165,0.3866706430875454 l -7.452816258022993 7.108101741382221" fill="#ff730a" stroke="none" /><path d="M 115.19652480421416 85.50635884689758 l 17.215311512428897 -16.419053080532247 a44.78975103970831,44.78975103970831 0 0,0 0.5273090522773013,0.5624965314090011 l -17.49538788667666 16.120287132245192" fill="#dcff1b" stroke="none" /><path d="M 115.4437574822437 85.77008943001954 l 20.243261673301593 -18.652183808699967 a48.5262348316527,48.5262348316527 0 0,0 0.560723784707627,0.6191652079735556 l -20.561329098625254 18.300965813456862" fill="#b0ff20" stroke="none" /><path d="M 115.68641384162765 86.03803664274999 l 20.908516005562667 -18.609985511758673 a48.9910271748419,48.9910271748419 0 0,0 0.5552506228233866,0.63474744666253 l -21.2257584919639 18.247322508893195" fill="#abff21" stroke="none" /><path d="M 115.9244219780498 86.31012108654704 l 1.7362667119955366 -1.492630695257984 a23.289665584230615,23.289665584230615 0 0,0 0.25872532363025524,0.3062491770102995 l -1.761702649112909 1.4625225686185779" fill="#ff0000" stroke="none" /><path d="M 116.15771136456269 86.58626213691792 l 13.68721604464062 -11.362792907716317 a38.78912436620521,38.78912436620521 0 0,0 0.4220654004149334,0.5174022753340105 l -13.880779937131962 11.125506462774204" fill="#ffd714" stroke="none" /><path d="M 116.38621287248628 86.86637796730983 l 32.84741914215575 -26.327351604640075 a63.0961089272489,63.0961089272489 0 0,0 0.6719612996179987,0.8533226117764897 l -33.29573452236771 25.758036598910547" fill="#32ff4e" stroke="none" /><path d="M 117.45458315368197 88.32363383020206 l 40.07238706326328 -26.80670518045769 a69.21198655500484,69.21198655500484 0 0,0 0.6538995717178583,0.9959339091972649 l -40.52788327033906 26.112953207282754" fill="#3aff95" stroke="none" /><path d="M 117.65298651832404 88.62581576622439 l 45.12022764289686 -29.071895644824142 a74.67504130348088,74.67504130348088 0 0,0 0.6869122490012355,1.0865302155865426 l -45.61396748814405 28.290917781523394" fill="#41ffd0" stroke="none" /><line stroke="#e1ed5e" stroke-width="0.3" x1="172.23445277983987" x2="176.4835382374775" y1="55.19839476539836" y2="52.563006222186495" /><path d="M 173.08426987136738 54.67131705675599 a86.0,86.0 0 0,1 12.851231095245387,41.99856678651699" fill="none" id="id75" stroke="none" /><text fill="#e1ed5e" style="font-size:6.75px; font-family:Arial;" text-anchor="middle"><textPath startOffset="22.20632615414155" xlink:href="#id75">March</textPath></text><path d="M 117.84615892207809 88.93136811851018 l 14.893319280458106 -9.237207251636976 a38.52532330655728,38.52532330655728 0 0,0 0.34468093405798317,0.5665648278419624 l -15.050116012802315 8.979474650587932" fill="#ffd413" stroke="none" /><path d="M 118.3937258080291 89.86733742301442 l 10.963441613714831 -6.039497147759103 a33.5168916994246,33.5168916994246 0 0,0 0.2740275640077651,0.507731458532068 l -11.065777276941061 5.849884705894576" fill="#ff920d" stroke="none" /><path d="M 118.73160827565052 90.50648371742162 l 18.304927857742033 -9.277266965634416 a41.52164872101635,41.52164872101635 0 0,0 0.31762081489034305,0.6403041813340946 l -18.461908685585787 8.96080319580137" fill="#fffa17" stroke="none" /><path d="M 118.89224826269711 90.83032412892265 l 11.715497199308267 -5.686316974686768 a34.02256024611177,34.02256024611177 0 0,0 0.2511866281278492,0.5290630994140211 l -11.811642021277873 5.483811459632206" fill="#ff980e" stroke="none" /><path d="M 119.04729006885535 91.15688171328212 l 24.91694007345761 -11.568230841033657 a48.47140090013103,48.47140090013103 0 0,0 0.34483404704858633,0.7597961131864839 l -25.112376437469543 11.13761271900511" fill="#b1ff20" stroke="none" /><path d="M 119.34039704204932 91.81776055985345 l 30.95513936639593 -13.096027017867247 a54.611405457756504,54.611405457756504 0 0,0 0.3588185524683407,0.8689075860343676 l -31.175979605750467 12.561244861379576" fill="#6dff28" stroke="none" /><path d="M 119.47837535516314 92.15188598940014 l 6.226836262154924 -2.508880746965151 a27.713268387170285,27.713268387170285 0 0,0 0.1744701349830227,0.44400746316445916 l -6.269099947019647 2.4013242789049074" fill="#ff4106" stroke="none" /><path d="M 119.61058180528143 92.48833698450437 l 28.074462585006327 -10.753679027662157 a51.063550390246675,51.063550390246675 0 0,0 0.30734278400682014,0.8235258599196814 l -28.25540995751477 10.268830030713143" fill="#94ff23" stroke="none" /><path d="M 119.7369772167798 92.82701384747503 l 26.54216582340854 -9.646187752979204 a49.24067111035151,49.24067111035151 0 0,0 0.282657676248109,0.7991113138454392 l -26.704276580466455 9.18787881270715" fill="#a8ff21" stroke="none" /><path d="M 119.85752413597 93.16781622104841 l 20.264976894832024 -6.972372057748316 a42.43089500370307,42.43089500370307 0 0,0 0.2316781547052607,0.6926881940166006 l -20.381992343309054 6.622510760809401" fill="#f9ff18" stroke="none" /><path d="M 120.08093135843002 93.85539295169968 l 28.022125742554785 -8.574550068056292 a50.30464877798667,50.30464877798667 0 0,0 0.24623910677352578,0.8301958560232031 l -28.16557074644001 8.090924825286558" fill="#9cff22" stroke="none" /><path d="M 120.18372546131832 94.20196356495316 l 26.869088637533476 -7.718493555388802 a48.95573406255341,48.95573406255341 0 0,0 0.22569346256619507,0.8119394669911975 l -26.997968870666035 7.254842784978653" fill="#acff21" stroke="none" /><path d="M 120.28053869075195 94.5502522615342 l 29.049746722030115 -7.806192622170331 a51.080299663875124,51.080299663875124 0 0,0 0.22087040850685744,0.851103782686941 l -29.179813462407274 7.3049924139345395" fill="#94ff23" stroke="none" /><path d="M 120.37134235888165 94.90015583598534 l 46.439496043023766 -11.625851095253884 a68.87261436791431,68.87261436791431 0 0,0 0.27800660279450234,1.1525168487196031 l -46.63273544607909 10.824749014874875" fill="#3aff91" stroke="none" /><path d="M 120.45610955862082 95.25157060432595 l 22.924796321473046 -5.321479943719184 a44.5343246168746,44.5343246168746 0 0,0 0.16690958659149346,0.7482229490086572 l -23.01300029506658 4.926078825160563" fill="#dfff1b" stroke="none" /><path d="M 120.53481517161879 95.60439243477599 l 42.964632799161194 -9.196852437711867 a64.93793083803338,64.93793083803338 0 0,0 0.224563726632439,1.0950524832440152 l -43.11657582170863 8.45592429830444" fill="#35ff64" stroke="none" /><path d="M 120.67395015179393 96.31383870115 l 27.782767550501333 -4.95366206108013 a49.220930895003704,49.220930895003704 0 0,0 0.14154097099957222,0.835382823014446 l -27.86392038302113 4.4746934497498465" fill="#a9ff21" stroke="none" /><path d="M 120.73433829027371 96.67025291283417 l 17.95861680339997 -2.8839913361835574 a39.18871417991227,39.18871417991227 0 0,0 0.10122651371199907,0.6669562491482686 l -18.00559921055127 2.574435974643207" fill="#ffdc14" stroke="none" /><path d="M 120.78858239683441 97.02765380044208 l 19.52430781649938 -2.7915805430873326 a40.72286788583148,40.72286788583148 0 0,0 0.09324373418047299,0.6947741248579685 l -19.56946754973769 2.4550880761647" fill="#fff016" stroke="none" /><path d="M 120.83666639777658 97.38593545837742 l 62.50999919332973 -7.84219362486773 a84.0,84.0 0 0,0 0.16763858798564435,1.436225046700589 l -62.63572813431897 6.7650248398422885" fill="#4dd2ff" stroke="none" /><line stroke="#e1ed5e" stroke-width="0.3" x1="184.98032266829074" x2="189.97916517819016" y1="98.17113171792111" y2="98.06355123074" /><path d="M 185.9800911702706 98.14961562048488 a86.0,86.0 0 0,1 -9.607161424134198,41.387399972396054" fill="none" id="id76" stroke="none" /><text fill="#e1ed5e" style="font-size:6.75px; font-family:Arial;" text-anchor="middle"><textPath startOffset="21.466115282336823" xlink:href="#id76">April</textPath></text><line stroke="#e1ed5e" stroke-width="0.3" x1="174.80103733775053" x2="179.2010983576182" y1="140.37084112569926" y2="142.7455964860345" /><path d="M 175.68104954172406 140.8457921977663 a86.0,86.0 0 0,1 -30.038265399797805,32.042727171017184" fill="none" id="id77" stroke="none" /><text fill="#e1ed5e" style="font-size:6.75px; font-family:Arial;" text-anchor="middle"><textPath startOffset="22.206326154141568" xlink:href="#id77">May</textPath></text><line stroke="#e1ed5e" stroke-width="0.3" x1="143.8653032363475" x2="146.44561519142675" y1="172.8068346515853" y2="177.08958963109032" /><path d="M 144.38136562736335 173.6633856474863 a86.0,86.0 0 0,1 -40.68145358897372,12.25698825130547" fill="none" id="id78" stroke="none" /><text fill="#e1ed5e" style="font-size:6.75px; font-family:Arial;" text-anchor="middle"><textPath startOffset="21.466115282336833" xlink:href="#id78">June</textPath></text><line stroke="#e1ed5e" stroke-width="0.3" x1="102.19456741930631" x2="102.32365962044197" y1="184.97166512339345" y2="189.96999836594603" /><path d="M 102.22038585953345 185.97133177190398 a86.0,86.0 0 0,1 -42.740103519485714,-10.115201625700543" fill="none" id="id79" stroke="none" /><text fill="#e1ed5e" style="font-size:6.75px; font-family:Arial;" text-anchor="middle"><textPath startOffset="22.20632615414155" xlink:href="#id79">July</textPath></text><line stroke="#e1ed5e" stroke-width="0.3" x1="58.666819895761336" x2="56.23545636021788" y1="174.27360380694188" y2="178.64263932499728" /><path d="M 58.180547188652646 175.14741091055294 a86.0,86.0 0 0,1 -31.652253787137756,-30.449443065178592" fill="none" id="id80" stroke="none" /><text fill="#e1ed5e" style="font-size:6.75px; font-family:Arial;" text-anchor="middle"><textPath startOffset="22.20632615414155" xlink:href="#id80">August</textPath></text><line stroke="#e1ed5e" stroke-width="0.3" x1="26.63291911575756" x2="22.317208475507996" y1="142.92168965132927" y2="145.44649492493687" /><path d="M 25.769776987707644 143.4266507060508 a86.0,86.0 0 0,1 -11.730757126820373,-40.83630448921669" fill="none" id="id81" stroke="none" /><text fill="#e1ed5e" style="font-size:6.75px; font-family:Arial;" text-anchor="middle"><textPath startOffset="21.46611528233685" xlink:href="#id81">September</textPath></text><line stroke="#e1ed5e" stroke-width="0.3" x1="15.007084014347285" x2="10.007500721073583" y1="101.09737516637583" y2="101.16192664675087" /><path d="M 14.007167355692545 101.11028546245083 a86.0,86.0 0 0,1 10.666146001902534,-42.60595125391555" fill="none" id="id82" stroke="none" /><text fill="#e1ed5e" style="font-size:6.75px; font-family:Arial;" text-anchor="middle"><textPath startOffset="22.20632615414155" xlink:href="#id82">October</textPath></text><line stroke="#e1ed5e" stroke-width="0.3" x1="26.266209847984243" x2="21.928928074336255" y1="57.711370442889674" y2="55.22380399835377" /><path d="M 25.398753493254645 57.213857153982495 a86.0,86.0 0 0,1 29.58750427330803,-30.492523968695096" fill="none" id="id83" stroke="none" /><text fill="#e1ed5e" style="font-size:6.75px; font-family:Arial;" text-anchor="middle"><textPath startOffset="21.46611528233685" xlink:href="#id83">November</textPath></text><line stroke="#e1ed5e" stroke-width="0.3" x1="56.762969772571076" x2="54.21961505331055" y1="26.818313649435495" y2="22.513508569990535" /><path d="M 56.25429882871897 25.957352633546506 a86.0,86.0 0 0,1 42.265352541879196,-11.944610805530505" fill="none" id="id84" stroke="none" /><text fill="#e1ed5e" style="font-size:6.75px; font-family:Arial;" text-anchor="middle"><textPath startOffset="22.20632615414155" xlink:href="#id84">December</textPath></text></svg>