<?xml version="1.0" encoding="utf-8" ?>
<svg baseProfile="full" height="200mm" version="1.1" viewBox="0,0,200,200" width="200mm" xmlns="http://www.w3.org/2000/svg" xmlns:ev="http://www.w3.org/2001/xml-events" xmlns:xlink="http://www.w3.org/1999/xlink"><defs /><rect fill="#1a1a1a" height="200" width="200" x="0" y="0" /><text alignment-baseline="middle" fill="#e1ed5e" style="dominant-baseline: central; font-size:9.0px; font-family:Arial;" text-anchor="middle" x="100.0" y="100.0">2023</text><line stroke="#e1ed5e" stroke-width="0.3" x1="100.0" x2="100.0" y1="15.0" y2="10.0" /><path d="M 100.0 14.0 a86.0,86.0 0 0,1 42.46469731375804,11.215312516191453" fill="none" id="id73" stroke="none" /><text fill="#e1ed5e" style="font-size:6.75px; font-family:Arial;" text-anchor="middle"><textPath startOffset="22.20632615414155" xlink:href="#id73">January</textPath></text><path d="M 100.0 79.0 l 0.0 -55.062443936857875 a76.06244393685787,76.06244393685787 0 0,0 1.309289937568343,0.011269471850236188 l -0.9478094582958148 55.0542858416162" fill="#42ffd9" stroke="none" /><path d="M 100.72285384407766 79.0124445844662 l 1.0076751172347023 -29.257141726627804 a50.27448976760961,50.27448976760961 0 0,0 0.8646234703105217,0.03723250541535412 l -1.5111394199345554 29.235461494688256" fill="#b5ff20" stroke="none" /><path d="M 101.08401301168833 79.027996857942 l 1.6914741071717374 -32.72433071173747 a53.76801649759101,53.76801649759101 0 0,0 0.923882900521366,0.05573113957421093 l -2.2545190565327156 32.69036630278296" fill="#8bff24" stroke="none" /><path d="M 101.44485096284872 79.0497635885617 l 2.0235956982842493 -29.34199399821664 a50.411690725653564,50.411690725653564 0 0,0 0.8651841861122391,0.06715494431839872 l -2.5283700737588295 29.302813791709777" fill="#b3ff20" stroke="none" /><path d="M 101.80526077348638 79.07773832637324 l 5.093475736003163 -59.031378591981074 a80.2507143715842,80.2507143715842 0 0,0 1.3752483635900465,0.13059640313889773 l -6.1088492266834535 58.934956644326995" fill="#48f8ff" stroke="none" /><path d="M 102.16513564639614 79.11191278185805 l 0.9272159317974578 -8.94529046513723 a29.993216937773383,29.993216937773383 0 0,0 0.5130743901382988,0.05764988590679278 l -1.0810570254454819 8.928004625759836" fill="#ff3104" stroke="none" /><path d="M 102.52436894288641 79.15227682838746 l 7.57310682865922 -62.54316951483763 a84.0,84.0 0 0,0 1.4339410859686157,0.1861667073434532 l -8.648562643135682 62.40354448433004" fill="#4dd2ff" stroke="none" /><path d="M 102.88285421437855 79.19881850522331 l 5.683304604195277 -41.00777971093129 a62.39973367117638,62.39973367117638 0 0,0 1.062670493990626,0.15661000720750026 l -6.388344078614558 40.90387521956282" fill="#30ff35" stroke="none" /><path d="M 103.2404852339499 79.25152402106235 l 4.4984780589886695 -28.803267785588492 a50.152436261409136,50.152436261409136 0 0,0 0.8518052026393457,0.14055515698410506 l -4.993612467766891 28.721566365664764" fill="#b6ff1f" stroke="none" /><path d="M 103.59715602781102 79.31037775812273 l 8.24905580430954 -47.44577302841847 a69.15753627343092,69.15753627343092 0 0,0 1.1710836814921497,0.2140080574141785 l -9.06453460690459 47.29674948965356" fill="#39ff8a" stroke="none" /><path d="M 103.95276090670814 79.375362276772 l 6.584578035928765 -34.35688111590171 a55.982166141098794,55.982166141098794 0 0,0 0.9448552452951223,0.18952907346955147 l -7.1749996906910125 34.23844808635495" fill="#71ff27" stroke="none" /><path d="M 104.307194497241 79.44645832069477 l 6.380492642812245 -30.447132478587935 a52.10849662927583,52.10849662927583 0 0,0 0.8763092722881011,0.19152726544271056 l -6.903644639253874 30.332791715049357" fill="#9eff22" stroke="none" /><path d="M 105.01212808612495 79.60689891045804 l 1.395360663166092 -5.677375073292775 a26.84633381728733,26.84633381728733 0 0,0 0.4478110527423987,0.11415700827305521 l -1.4928806045935157 5.652515068850851" fill="#ff0000" stroke="none" /><path d="M 105.36241919743992 79.69619591428918 l 7.444691345826706 -28.1879407407044 a50.15447534146499,50.15447534146499 0 0,0 0.8328081626879137,0.22763793037320887 l -7.92879739773833 28.055616269504895" fill="#b6ff1f" stroke="none" /><path d="M 105.71112130821622 79.79150937346287 l 11.29115887000898 -39.95314858030668 a62.518000314415964,62.518000314415964 0 0,0 1.0330646513081998,0.30157990021482656 l -11.977213739040605 39.75287035117315" fill="#30ff36" stroke="none" /><path d="M 106.0581310904928 79.89281104454417 l 11.942759753627168 -39.638516141165425 a62.398568482573026,62.398568482573026 0 0,0 1.025757074385532,0.3187077161411707 l -12.623302200723417 39.42706829014173" fill="#30ff35" stroke="none" /><path d="M 106.40334571778207 80.00007090966166 l 4.1855913368094795 -13.073092353089326 a34.72679563886551,34.72679563886551 0 0,0 0.5677288319666491,0.18717126984637072 l -4.410002991018546 12.99910735898372" fill="#ff780b" stroke="none" /><path d="M 106.74666289553966 80.11325718540242 l 14.446893910182188 -42.584262487979025 a65.96812376892277,65.96812376892277 0 0,0 1.0721956095483163,0.3740679950587402 l -15.177771523793778 42.329273639748074" fill="#35ff63" stroke="none" /><line stroke="#e1ed5e" stroke-width="0.3" x1="143.23703022742887" x2="145.7803849466894" y1="26.81831364943548" y2="22.513508569990506" /><path d="M 143.74570117128098 25.957352633546492 a86.0,86.0 0 0,1 28.547481713284135,27.462654790039103" fill="none" id="id74" stroke="none" /><text fill="#e1ed5e" style="font-size:6.75px; font-family:Arial;" text-anchor="middle"><textPath startOffset="19.985693538727396" xlink:href="#id74">February</textPath></text><line stroke="#e1ed5e" stroke-width="0.3" x1="172.23445277983987" x2="176.4835382374775" y1="55.19839476539836" y2="52.563006222186495" /><path d="M 173.08426987136738 54.67131705675599 a86.0,86.0 0 0,1 12.851231095245387,41.99856678651699" fill="none" id="id75" stroke="none" /><text fill="#e1ed5e" style="font-size:6.75px; font-family:Arial;" text-anchor="middle"><textPath startOffset="22.20632615414155" xlink:href="#id75">March</textPath></text><line stroke="#e1ed5e" stroke-width="0.3" x1="184.98032266829074" x2="189.97916517819016" y1="98.17113171792111" y2="98.06355123074" /><path d="M 185.9800911702706 98.14961562048488 a86.0,86.0 0 0,1 -9.607161424134198,41.387399972396054" fill="none" id="id76" stroke="none" /><text fill="#e1ed5e" style="font-size:6.75px; font-family:Arial;" text-anchor="middle"><textPath startOffset="21.466115282336823" xlink:href="#id76">April</textPath></text><line stroke="#e1ed5e" stroke-width="0.3" x1="174.80103733775053" x2="179.2010983576182" y1="140.37084112569926" y2="142.7455964860345" /><path d="M 175.68104954172406 140.8457921977663 a86.0,86.0 0 0,1 -30.038265399797805,32.042727171017184" fill="none" id="id77" stroke="none" /><text fill="#e1ed5e" style="font-size:6.75px; font-family:Arial;" text-anchor="middle"><textPath startOffset="22.206326154141568" xlink:href="#id77">May</textPath></text><line stroke="#e1ed5e" stroke-width="0.3" x1="143.8653032363475" x2="146.44561519142675" y1="172.8068346515853" y2="177.08958963109032" /><path d="M 144.38136562736335 173.6633856474863 a86.0,86.0 0 0,1 -40.68145358897372,12.25698825130547" fill="none" id="id78" stroke="none" /><text fill="#e1ed5e" style="font-size:6.75px; font-family:Arial;" text-anchor="middle"><textPath startOffset="21.466115282336833" xlink:href="#id78">June</textPath></text><line stroke="#e1ed5e" stroke-width="0.3" x1="102.19456741930631" x2="102.32365962044197" y1="184.97166512339345" y2="189.96999836594603" /><path d="M 102.22038585953345 185.97133177190398 a86.0,86.0 0 0,1 -42.740103519485714,-10.115201625700543" fill="none" id="id79" stroke="none" /><text fill="#e1ed5e" style="font-size:6.75px; font-family:Arial;" text-anchor="middle"><textPath startOffset="22.20632615414155" xlink:href="#id79">July</textPath></text><line stroke="#e1ed5e" stroke-width="0.3" x1="58.666819895761336" x2="56.23545636021788" y1="174.27360380694188" y2="178.64263932499728" /><path d="M 58.180547188652646 175.14741091055294 a86.0,86.0 0 0,1 -31.652253787137756,-30.449443065178592" fill="none" id="id80" stroke="none" /><text fill="#e1ed5e" style="font-size:6.75px; font-family:Arial;" text-anchor="middle"><textPath startOffset="22.20632615414155" xlink:href="#id80">August</textPath></text><line stroke="#e1ed5e" stroke-width="0.3" x1="26.63291911575756" x2="22.317208475507996" y1="142.92168965132927" y2="145.44649492493687" /><path d="M 25.769776987707644 143.4266507060508 a86.0,86.0 0 0,1 -11.730757126820373,-40.83630448921669" fill="none" id="id81" stroke="none" /><text fill="#e1ed5e" style="font-size:6.75px; font-family:Arial;" text-anchor="middle"><textPath startOffset="21.46611528233685" xlink:href="#id81">September</textPath></text><line stroke="#e1ed5e" stroke-width="0.3" x1="15.007084014347285" x2="10.007500721073583" y1="101.09737516637583" y2="101.16192664675087" /><path d="M 14.007167355692545 101.11028546245083 a86.0,86.0 0 0,1 10.666146001902534,-42.60595125391555" fill="none" id="id82" stroke="none" /><text fill="#e1ed5e" style="font-size:6.75px; font-family:Arial;" text-anchor="middle"><textPath startOffset="22.20632615414155" xlink:href="#id82">October</textPath></text><line stroke="#e1ed5e" stroke-width="0.3" x1="26.266209847984243" x2="21.928928074336255" y1="57.711370442889674" y2="55.22380399835377" /><path d="M 25.398753493254645 57.213857153982495 a86.0,86.0 0 0,1 29.58750427330803,-30.492523968695096" fill="none" id="id83" stroke="none" /><text fill="#e1ed5e" style="font-size:6.75px; font-family:Arial;" text-anchor="middle"><textPath startOffset="21.46611528233685" xlink:href="#id83">November</textPath></text><line stroke="#e1ed5e" stroke-width="0.3" x1="56.762969772571076" x2="54.21961505331055" y1="26.818313649435495" y2="22.513508569990535" /><path d="M 56.25429882871897 25.957352633546506 a86.0,86.0 0 0,1 42.265352541879196,-11.944610805530505" fill="none" id="id84" stroke="none" /><text fill="#e1ed5e" style="font-size:6.75px; font-family:Arial;" text-anchor="middle"><textPath startOffset="22.20632615414155" xlink:href="#id84">December</textPath></text></svg>