<?xml version="1.0" encoding="utf-8" ?>
<svg baseProfile="full" height="200mm" version="1.1" viewBox="0,0,200,200" width="200mm" xmlns="http://www.w3.org/2000/svg" xmlns:ev="http://www.w3.org/2001/xml-events" xmlns:xlink="http://www.w3.org/1999/xlink"><defs /><rect fill="#1a1a1a" height="200" width="200" x="0" y="0" /><text alignment-baseline="middle" fill="#e1ed5e" style="dominant-baseline: central; font-size:9.0px; font-family:Arial;" text-anchor="middle" x="100.0" y="100.0">2021</text><line stroke="#e1ed5e" stroke-width="0.3" x1="100.0" x2="100.0" y1="15.0" y2="10.0" /><path d="M 100.0 14.0 a86.0,86.0 0 0,1 42.46469731375804,11.215312516191453" fill="none" id="id49" stroke="none" /><text fill="#e1ed5e" style="font-size:6.75px; font-family:Arial;" text-anchor="middle"><textPath startOffset="22.20632615414155" xlink:href="#id49">January</textPath></text><line stroke="#e1ed5e" stroke-width="0.3" x1="143.23703022742887" x2="145.7803849466894" y1="26.81831364943548" y2="22.513508569990506" /><path d="M 143.74570117128098 25.957352633546492 a86.0,86.0 0 0,1 28.547481713284135,27.462654790039103" fill="none" id="id50" stroke="none" /><text fill="#e1ed5e" style="font-size:6.75px; font-family:Arial;" text-anchor="middle"><textPath startOffset="19.985693538727396" xlink:href="#id50">February</textPath></text><path d="M 114.16331599549186 84.49514656593476 l 4.874681805012445 -5.336407586223441 a28.22770839384258,28.22770839384258 0 0,0 0.35592736386797824,0.3307956943498588 l -4.96581705267527 5.251707305798941" fill="#ff1b02" stroke="none" /><line stroke="#e1ed5e" stroke-width="0.3" x1="172.23445277983987" x2="176.4835382374775" y1="55.19839476539836" y2="52.563006222186495" /><path d="M 173.08426987136738 54.67131705675599 a86.0,86.0 0 0,1 12.851231095245387,41.99856678651699" fill="none" id="id51" stroke="none" /><text fill="#e1ed5e" style="font-size:6.75px; font-family:Arial;" text-anchor="middle"><textPath startOffset="22.20632615414155" xlink:href="#id51">March</textPath></text><line stroke="#e1ed5e" stroke-width="0.3" x1="184.98032266829074" x2="189.97916517819016" y1="98.17113171792111" y2="98.06355123074" /><path d="M 185.9800911702706 98.14961562048488 a86.0,86.0 0 0,1 -9.607161424134198,41.387399972396054" fill="none" id="id52" stroke="none" /><text fill="#e1ed5e" style="font-size:6.75px; font-family:Arial;" text-anchor="middle"><textPath startOffset="21.466115282336823" xlink:href="#id52">April</textPath></text><path d="M 120.95626037817324 101.35467743843564 l 7.8517501852580525 0.5075613986587211 a28.868138251524833,28.868138251524833 0 0,0 -0.0363235979789979,0.49560663519046944 l -7.841850028614717 -0.6426411703459608" fill="#ff2503" stroke="none" /><line stroke="#e1ed5e" stroke-width="0.3" x1="174.80103733775053" x2="179.2010983576182" y1="140.37084112569926" y2="142.7455964860345" /><path d="M 175.68104954172406 140.8457921977663 a86.0,86.0 0 0,1 -30.038265399797805,32.042727171017184" fill="none" id="id53" stroke="none" /><text fill="#e1ed5e" style="font-size:6.75px; font-family:Arial;" text-anchor="middle"><textPath startOffset="22.206326154141568" xlink:href="#id53">May</textPath></text><line stroke="#e1ed5e" stroke-width="0.3" x1="143.8653032363475" x2="146.44561519142675" y1="172.8068346515853" y2="177.08958963109032" /><path d="M 144.38136562736335 173.6633856474863 a86.0,86.0 0 0,1 -40.68145358897372,12.25698825130547" fill="none" id="id54" stroke="none" /><text fill="#e1ed5e" style="font-size:6.75px; font-family:Arial;" text-anchor="middle"><textPath startOffset="21.466115282336833" xlink:href="#id54">June</textPath></text><line stroke="#e1ed5e" stroke-width="0.3" x1="102.19456741930631" x2="102.32365962044197" y1="184.97166512339345" y2="189.96999836594603" /><path d="M 102.22038585953345 185.97133177190398 a86.0,86.0 0 0,1 -42.740103519485714,-10.115201625700543" fill="none" id="id55" stroke="none" /><text fill="#e1ed5e" style="font-size:6.75px; font-family:Arial;" text-anchor="middle"><textPath startOffset="22.20632615414155" xlink:href="#id55">July</textPath></text><line stroke="#e1ed5e" stroke-width="0.3" x1="58.666819895761336" x2="56.23545636021788" y1="174.27360380694188" y2="178.64263932499728" /><path d="M 58.180547188652646 175.14741091055294 a86.0,86.0 0 0,1 -31.652253787137756,-30.449443065178592" fill="none" id="id56" stroke="none" /><text fill="#e1ed5e" style="font-size:6.75px; font-family:Arial;" text-anchor="middle"><textPath startOffset="22.20632615414155" xlink:href="#id56">August</textPath></text><path d="M 86.51685102203217 116.09983520530335 l -3.641977504940484 4.348779187026462 a26.67237873947139,26.67237873947139 0 0,0 -0.3494520101447957,-0.29781058424485424 l 3.7162949916623362 -4.285444212558656" fill="#ff0300" stroke="none" /><path d="M 85.70375840098266 115.38237550388516 l -7.100369774707998 7.639808920024287 a31.429857682253846,31.429857682253846 0 0,0 -0.3931189211106977,-0.3717184771560356 l 7.23082453020951 -7.516455806122323" fill="#ff4c07" stroke="none" /><path d="M 84.67929136418377 114.36230785411682 l -10.706251808821916 10.036512546327355 a35.6749927388905,35.6749927388905 0 0,0 -0.4161294102913063,-0.45162628831453727 l 10.877427627108954 -9.850735003211476" fill="#ff8a0c" stroke="none" /><path d="M 84.19399662182784 113.82643327865904 l -8.304693613451484 7.264600000317802 a32.033691548068546,32.033691548068546 0 0,0 -0.3594752075905483,-0.4181508786533961 l 8.428511330612814 -7.120572022502876" fill="#ff5507" stroke="none" /><path d="M 83.95833913139862 113.55231037782056 l -5.227633893282241 4.416407854753027 a27.843450479233226,27.843450479233226 0 0,0 -0.3061506710676754,-0.3687782054242464 l 5.302880564243453 -4.32576839221502" fill="#ff1502" stroke="none" /><path d="M 82.85270091963577 112.12312394758628 l -7.93367628086559 5.609101495354329 a30.716235840836482,30.716235840836482 0 0,0 -0.3015150948392373,-0.43435498217432955 l 8.029052282866962 -5.471705250992989" fill="#ff4106" stroke="none" /><path d="M 82.6465618267979 111.8261652097733 l -11.884811853735274 8.09936031502917 a35.382224803950045,35.382224803950045 0 0,0 -0.3386532052025423,-0.5062405927075282 l 12.022468164348547 -7.893582808115818" fill="#ff860c" stroke="none" /><path d="M 82.05923443525364 110.91462005526583 l -13.647070872515458 8.302465850926868 a36.97415045018879,36.97415045018879 0 0,0 -0.32611046515170444,-0.5465798974331672 l 13.787962213365395 -8.06632385960759" fill="#ff9d0e" stroke="none" /><line stroke="#e1ed5e" stroke-width="0.3" x1="26.63291911575756" x2="22.317208475507996" y1="142.92168965132927" y2="145.44649492493687" /><path d="M 25.769776987707644 143.4266507060508 a86.0,86.0 0 0,1 -11.730757126820373,-40.83630448921669" fill="none" id="id57" stroke="none" /><text fill="#e1ed5e" style="font-size:6.75px; font-family:Arial;" text-anchor="middle"><textPath startOffset="21.46611528233685" xlink:href="#id57">September</textPath></text><path d="M 81.69416730710424 110.29060199501025 l -15.95047867519235 8.966542545753917 a39.29799593377868,39.29799593377868 0 0,0 -0.32640464533949426,-0.5925192419293724 l 16.102459729983362 -8.690652785426723" fill="#ffbd11" stroke="none" /><path d="M 81.51974371655577 109.97397251340807 l -16.118562189713344 8.69934343821215 a39.31629392971246,39.31629392971246 0 0,0 -0.31630424977705035,-0.5983284382093612 l 16.26591894771528 -8.420599984916661" fill="#ffbe11" stroke="none" /><path d="M 81.18737489456691 109.33194174019688 l -24.58809554877981 12.196845144027291 a48.44699390066802,48.44699390066802 0 0,0 -0.3641523911441438,-0.750261784132368 l 24.794401196538672 -11.771794403929638" fill="#c8ff1d" stroke="none" /><path d="M 80.87730276802145 108.67885076344099 l -11.330323076745925 5.142275793615924 a33.4426372349695,33.4426372349695 0 0,0 -0.23339603032773523,-0.526246433636523 l 11.41716019180494 -4.9464810234867045" fill="#ff6a09" stroke="none" /><path d="M 80.73074385275274 108.34839909993369 l -16.789941458536678 7.274236799245154 a39.29799593377868,39.29799593377868 0 0,0 -0.263575436589593,-0.6230144731725061 l 16.912667876318576 -6.984147800406489" fill="#ffbd11" stroke="none" /><path d="M 80.45479744820244 107.68017299344265 l -8.651434414446554 3.3995305379049086 a30.29538193435957,30.29538193435957 0 0,0 -0.1865412469529597,-0.48700033213468047 l 8.708669940993023 -3.2501066389370705" fill="#ff3b05" stroke="none" /><path d="M 79.23777060512086 103.15116336523772 l -10.474583926490002 1.5897678668074138 a31.594539645657857,31.594539645657857 0 0,0 -0.0769792668411319,-0.5383928129949245 l 10.500397244347733 -1.4092295818320886" fill="#ff4e07" stroke="none" /><path d="M 79.18660465613746 102.79330883721812 l -18.135401112863093 2.4339025592954893 a39.29799593377868,39.29799593377868 0 0,0 -0.08420716698302572,-0.6712139730253344 l 18.17460978909297 -2.1213708319827465" fill="#ffbd11" stroke="none" /><path d="M 79.10278846688536 102.07522291339032 l -38.4380019283227 3.817132358553837 a59.627069416206794,59.627069416206794 0 0,0 -0.09263605773898097,-1.0222311779114774 l 38.49801258233875 -3.1549197920937933" fill="#47ff2c" stroke="none" /><path d="M 79.04373962182676 101.35467743843564 l -18.27814403591467 1.181555721063674 a39.31629392971246,39.31629392971246 0 0,0 -0.03784408428085132,-0.6757315470525034 l 18.295774471083057 -0.8667524576757332" fill="#ffbe11" stroke="none" /><path d="M 79.0095281055655 100.63252640178507 l -12.821075339528253 0.3863499921446455 a33.82689514957886,33.82689514957886 0 0,0 -0.012528736668297607,-0.5821611622503473 l 12.825826138881558 -0.1655990141041693" fill="#ff700a" stroke="none" /><line stroke="#e1ed5e" stroke-width="0.3" x1="15.007084014347285" x2="10.007500721073583" y1="101.09737516637583" y2="101.16192664675087" /><path d="M 14.007167355692545 101.11028546245083 a86.0,86.0 0 0,1 10.666146001902534,-42.60595125391555" fill="none" id="id58" stroke="none" /><text fill="#e1ed5e" style="font-size:6.75px; font-family:Arial;" text-anchor="middle"><textPath startOffset="22.20632615414155" xlink:href="#id58">October</textPath></text><path d="M 79.00175016825051 100.2711162175752 l -19.394259211432875 0.2504064977894713 a40.3958756898054,40.3958756898054 0 0,0 -0.002992570157310933,-0.6953679134060581 l 19.395696078879688 0.08347089382026208" fill="#ffcd13" stroke="none" /><path d="M 79.00019446554 99.90962569577889 l -18.31612431599865 -0.0788248723717758 a39.31629392971246,39.31629392971246 0 0,0 0.008737564948941491,-0.6767340344299151 l 18.312053743931994 0.3940951648621628" fill="#ffbe11" stroke="none" /><path d="M 79.00486145842228 99.54816195383935 l -20.123135982342852 -0.4330716097386405 a41.12779552715655,41.12779552715655 0 0,0 0.021324381145973088,-0.7076523949791643 l 20.112699906741234 0.7793941521427993" fill="#ffd614" stroke="none" /><path d="M 79.05617556472873 98.46500227214037 l -18.26729735089155 -1.3388318840437052 a39.31629392971246,39.31629392971246 0 0,0 0.05527780345614924,-0.674529215706843 l 18.241545063615902 1.6530750169583266" fill="#ffbe11" stroke="none" /><path d="M 79.16333360222342 97.38593545837743 l -9.077838976667111 -1.1388605322201113 a30.14899796688934,30.14899796688934 0 0,0 0.06903259269739391,-0.5143729988888727 l 9.056890384911885 1.2949518731736434" fill="#ff3905" stroke="none" /><path d="M 79.32604984820605 96.31383870115002 l -11.204644491213328 -1.9977859377444287 a32.38135347081034,32.38135347081034 0 0,0 0.10256296594903998,-0.5478954652196345 l 11.168595801354426 2.1903594804266358" fill="#ff5a08" stroke="none" /><path d="M 79.3925641242962 95.95851677861259 l -17.97389774462344 -3.524999742615856 a39.31629392971246,39.31629392971246 0 0,0 0.1359608070089878,-0.6629931804736299 l 17.91055764169946 3.833868579252888" fill="#ffbe11" stroke="none" /><path d="M 79.71946130924805 94.55025226153421 l -60.84161607225587 -16.349243215397365 a84.0,84.0 0 0,0 0.38725291773455695,-1.3931547863242297 l 60.551176383954946 17.394109305140535" fill="#4dd2ff" stroke="none" /><path d="M 80.95270993114464 91.15688171328213 l -16.613131593602276 -7.7130073235590375 a39.31629392971246,39.31629392971246 0 0,0 0.2902699629672,-0.611382570078748 l 16.477903436793326 7.997832309278318" fill="#ffbe11" stroke="none" /><line stroke="#e1ed5e" stroke-width="0.3" x1="26.266209847984243" x2="21.928928074336255" y1="57.711370442889674" y2="55.22380399835377" /><path d="M 25.398753493254645 57.213857153982495 a86.0,86.0 0 0,1 29.58750427330803,-30.492523968695096" fill="none" id="id59" stroke="none" /><text fill="#e1ed5e" style="font-size:6.75px; font-family:Arial;" text-anchor="middle"><textPath startOffset="21.46611528233685" xlink:href="#id59">November</textPath></text><path d="M 81.78341655067845 89.55222093294921 l -15.888585564424217 -9.112599633561867 a39.31629392971246,39.31629392971246 0 0,0 0.3417528139309614,-0.5841663398102855 l 15.729373076022933 9.384745385726044" fill="#ffbe11" stroke="none" /><path d="M 82.15384107792192 88.93136811851018 l -15.581049584596778 -9.66375470106256 a39.33459192564624,39.33459192564624 0 0,0 0.3618265558552967,-0.5723227185277444 l 15.412395432495519 9.93052506730452" fill="#ffbe11" stroke="none" /><path d="M 82.7489923806493 88.02491185347247 l -11.153279976960404 -7.742244035483666 a34.57711298286378,34.57711298286378 0 0,0 0.34360986300662627,-0.48601178321786354 l 11.0183574941499 7.933082319033315" fill="#ff7b0b" stroke="none" /><path d="M 83.17141714833178 87.43820079747577 l -14.927241367701052 -11.1425311543738 a39.627359860586694,39.627359860586694 0 0,0 0.4127360489003673,-0.5431122599770506 l 14.733229378576576 11.397828190231875" fill="#ffc212" stroke="none" /><path d="M 83.39014120810768 87.1503855733568 l -15.123992829678317 -11.700128152055317 a40.12140575079872,40.12140575079872 0 0,0 0.4272851750952247,-0.5426087808820367 l 14.92035357398912 11.958729326890401" fill="#ffc912" stroke="none" /><path d="M 83.84228863543731 86.58626213691792 l -14.430718108054098 -11.980030185587388 a39.755445832123144,39.755445832123144 0 0,0 0.4416439794629463,-0.5227671700021558 l 14.222363515104027 12.22665630521866" fill="#ffc412" stroke="none" /><path d="M 84.31358615837235 86.03803664274999 l -14.009794528900677 -12.469659402713853 a39.755445832123144,39.755445832123144 0 0,0 0.4593767500623348,-0.5072552810273115 l 13.793074138222298 12.708967471010721" fill="#ffc412" stroke="none" /><path d="M 84.5562425177563 85.77008943001954 l -30.963769358097085 -28.530082098337243 a63.10368864362474,63.10368864362474 0 0,0 0.7429187589002727,-0.792493933482339 l 30.468083277226356 29.05884544869763" fill="#31ff40" stroke="none" /><path d="M 84.80347519578584 85.50635884689758 l -3.9723707010725375 -3.788636955501648 a26.489398780133605,26.489398780133605 0 0,0 0.3175394431418464,-0.32725230866273974 l 3.9065669942275774 3.856453459714511" fill="#ff0000" stroke="none" /><path d="M 85.05521093208273 85.24692304244772 l -13.412546680181348 -13.240490211686488 a39.846935811792044,39.846935811792044 0 0,0 0.4860646870481927,-0.483977370811159 l 13.182646192965839 13.46940343314776" fill="#ffc512" stroke="none" /><path d="M 85.31137513191541 84.99185889309783 l -12.798685624238678 -13.077090711793938 a39.29799593377868,39.29799593377868 0 0,0 0.487513639676192,-0.4689877351119499 l 12.571688740950057 13.295461533668197" fill="#ffbd11" stroke="none" /><path d="M 85.57189188830299 84.74124197986013 l -12.936267714437607 -13.681029918144572 a39.82863781585826,39.82863781585826 0 0,0 0.5022052044204441,-0.4667450052084044 l 12.698854626222307 13.901679509427627" fill="#ffc512" stroke="none" /><path d="M 86.10567301691215 84.25364557470407 l -12.118694141798661 -13.734040760721378 a39.31629392971246,39.31629392971246 0 0,0 0.5113106517347946,-0.443403558645582 l 11.880489691417093 13.94060931278664" fill="#ffbe11" stroke="none" /><path d="M 86.37877921826538 84.01681056812374 l -17.814800226590467 -20.90395062786488 a48.4652918966018,48.4652918966018 0 0,0 0.6396090651533282,-0.5356541978939201 l 17.45233362447803 21.207505983152615" fill="#c8ff1d" stroke="none" /><path d="M 86.93701828274178 83.55741782278169 l -11.404973291338434 -14.35562068681912 a39.33459192564624,39.33459192564624 0 0,0 0.5337656264237188,-0.41661253787378966 l 11.15617510975529 14.54981161391613" fill="#ffbe11" stroke="none" /><path d="M 87.22198572758235 83.33499621200491 l -11.562562726028814 -15.079819721608686 a40.00246877722916,40.00246877722916 0 0,0 0.5500412723135636,-0.41427968275511307 l 11.30127529995686 15.276615993869655" fill="#ffc712" stroke="none" /><path d="M 87.80319425747018 82.90503203632743 l -7.26388329220372 -10.18101417644804 a33.50668022073773,33.50668022073773 0 0,0 0.47239450615659667,-0.330942540306791 l 7.087557646463463 10.304541559518773" fill="#ff6b09" stroke="none" /><path d="M 88.39885842347998 82.49532879139004 l -21.354119878360635 -32.220695261273775 a59.65451641010746,59.65451641010746 0 0,0 0.8608231206264244,-0.5599033030083264 l 20.79632973194992 32.58349748844164" fill="#47ff2c" stroke="none" /><path d="M 89.00827224532344 82.1063720568725 l -9.687597406786525 -15.770611093064296 a39.50842288701713,39.50842288701713 0 0,0 0.5825384014159722,-0.3509728687864635 l 9.414696939152904 15.93503057130938" fill="#ffc011" stroke="none" /><line stroke="#e1ed5e" stroke-width="0.3" x1="56.76296977257108" x2="54.21961505331056" y1="26.818313649435495" y2="22.513508569990535" /><path d="M 56.25429882871898 25.957352633546506 a86.0,86.0 0 0,1 42.26535254187918,-11.944610805530505" fill="none" id="id60" stroke="none" /><text fill="#e1ed5e" style="font-size:6.75px; font-family:Arial;" text-anchor="middle"><textPath startOffset="22.20632615414155" xlink:href="#id60">December</textPath></text><path d="M 89.3179101791058 81.91981866633112 l -8.176778310475362 -13.839767035981504 a37.07478942782457,37.07478942782457 0 0,0 0.5522435845801734,-0.3198951290457735 l 7.937337993429865 13.978466322417324" fill="#ff9e0e" stroke="none" /><path d="M 89.63071344664047 81.73862282372117 l -10.946027295435723 -19.277076778154346 a43.168022073772875,43.168022073772875 0 0,0 0.649320871214812,-0.36134636182625435 l 10.612582335148867 19.462638537540784" fill="#fff216" stroke="none" /><path d="M 90.26544431104013 81.39251694778311 l -6.026490110664531 -11.519561465524346 a34.000726110949756,34.000726110949756 0 0,0 0.5209227162173793,-0.26683684799460927 l 5.827306906858388 11.62159083883146" fill="#ff720a" stroke="none" /><path d="M 90.58718382345135 81.22770947309562 l -18.433317766592857 -36.76217510242604 a62.12474586116759,62.12474586116759 0 0,0 0.9600602410297143,-0.47109739077743035 l 17.797786258552716 37.0740276533383" fill="#30ff33" stroke="none" /><path d="M 91.23893434514133 80.91482961587045 l -7.797933691348939 -16.987076573385128 a39.69140284635492,39.69140284635492 0 0,0 0.6233778286603152,-0.27969146069232875 l 7.5043737442218506 17.118788364593986" fill="#ffc312" stroke="none" /><path d="M 91.56875222667455 80.76684994638697 l -2.9385702375807545 -6.703392409043168 a28.319198373511473,28.319198373511473 0 0,0 0.44813950408934033,-0.1918699482047005 l 2.822746975701106 6.752981885210655" fill="#ff1d02" stroke="none" /><path d="M 92.23578459929587 80.48803036053334 l -6.958026900631022 -17.48596640214184 a39.81948881789137,39.81948881789137 0 0,0 0.6390399091779276,-0.247937556680376 l 6.656003826453417 17.60314666271277" fill="#ffc512" stroke="none" /><path d="M 92.57280143429618 80.3572730644239 l -6.7595488543807445 -17.876992405642678 a40.11225675283183,40.11225675283183 0 0,0 0.6479422116052003,-0.23864258474345654 l 6.450824317002976 17.990698258192456" fill="#ffc912" stroke="none" /><path d="M 92.91201910852362 80.23233633223022 l -15.45542159243652 -43.103611671734434 a66.79073482428115,66.79073482428115 0 0,0 1.0855657027316277,-0.3787325580417416 l 14.711173885641607 43.36326508294839" fill="#36ff6e" stroke="none" /><path d="M 94.28887869178378 79.79150937346287 l -4.988729983868807 -17.652348405260057 a39.343740923613126,39.343740923613126 0 0,0 0.6532974050428051,-0.17857085925064708 l 4.6841346896022795 17.735605805337002" fill="#ffbe11" stroke="none" /><path d="M 94.63758080256005 79.69619591428918 l -2.4787366113057456 -9.38527569050502 a30.707086842869593,30.707086842869593 0 0,0 0.5122104559730963,-0.13057385006908462 l 2.31681726664765 9.426552536742967" fill="#ff4106" stroke="none" /><path d="M 95.692805502759 79.44645832069477 l -4.148942942230552 -19.798379604825953 a41.22843450479233,41.22843450479233 0 0,0 0.6958448606467881,-0.1395799328771695 l 3.8075316721166277 19.866863493780336" fill="#ffd814" stroke="none" /><path d="M 96.40284397218896 79.31037775812273 l -3.5558874646107617 -20.45225945403116 a41.75907638687191,41.75907638687191 0 0,0 0.7092496631339295,-0.11703227150271384 l 3.2033085953379468 20.5104379884735" fill="#ffdf14" stroke="none" /><path d="M 96.75951476605007 79.25152402106235 l -3.0593079445118256 -19.588417417814938 a40.825878594249204,40.825878594249204 0 0,0 0.6952666945979784,-0.10246423766150285 l 2.7216722694851985 19.63817613963741" fill="#ffd213" stroke="none" /><path d="M 97.47563105711357 79.15227682838746 l -2.6559763275068486 -21.93461434480582 a43.09483009003776,43.09483009003776 0 0,0 0.7371951369015648,-0.08283246318718744 l 2.278014487095566 21.977082761463606" fill="#fff116" stroke="none" /><path d="M 97.83486435360386 79.11191278185805 l -5.173875553506906 -49.9148235803842 a71.18225384838803,71.18225384838803 0 0,0 1.2198430741485322,-0.11583879835480262 l 4.313907352268137 49.996487923254186" fill="#3cffa3" stroke="none" /><path d="M 98.55514903715128 79.0497635885617 l -1.5138831973502003 -21.951198912071938 a43.00334011036887,43.00334011036887 0 0,0 0.7389160542132553,-0.0445734342823554 l 1.135805094297322 21.974005615734598" fill="#fff016" stroke="none" /><path d="M 98.91598698831166 79.02799685794201 l -1.1235261203049185 -21.736448798267197 a42.765466163229746,42.765466163229746 0 0,0 0.7354828648568847,-0.03167143929004495 l 0.7492024230587095 21.752567964081436" fill="#ffec16" stroke="none" /><path d="M 99.27714615592234 79.0124445844662 l -0.6352002048379221 -18.442593351640287 a39.4535288992158,39.4535288992158 0 0,0 0.6789264043688426,-0.017534665996847706 l 0.3176471652742005 18.45079480977949" fill="#ffc011" stroke="none" /></svg>