<?xml version="1.0" encoding="utf-8" ?>
<svg baseProfile="full" height="200mm" version="1.1" viewBox="0,0,200,200" width="200mm" xmlns="http://www.w3.org/2000/svg" xmlns:ev="http://www.w3.org/2001/xml-events" xmlns:xlink="http://www.w3.org/1999/xlink"><defs /><rect fill="#1a1a1a" height="200" width="200" x="0" y="0" /><text alignment-baseline="middle" fill="#e1ed5e" style="dominant-baseline: central; font-size:9.0px; font-family:Arial;" text-anchor="middle" x="100.0" y="100.0">2017</text><line stroke="#e1ed5e" stroke-width="0.3" x1="100.0" x2="100.0" y1="15.0" y2="10.0" /><path d="M 100.0 14.0 a86.0,86.0 0 0,1 42.46469731375804,11.215312516191453" fill="none" id="id1" stroke="none" /><text fill="#e1ed5e" style="font-size:6.75px; font-family:Arial;" text-anchor="middle"><textPath startOffset="22.20632615414155" xlink:href="#id1">January</textPath></text><line stroke="#e1ed5e" stroke-width="0.3" x1="143.23703022742887" x2="145.7803849466894" y1="26.81831364943548" y2="22.513508569990506" /><path d="M 143.74570117128098 25.957352633546492 a86.0,86.0 0 0,1 28.547481713284135,27.462654790039103" fill="none" id="id2" stroke="none" /><text fill="#e1ed5e" style="font-size:6.75px; font-family:Arial;" text-anchor="middle"><textPath startOffset="19.985693538727396" xlink:href="#id2">February</textPath></text><line stroke="#e1ed5e" stroke-width="0.3" x1="172.23445277983987" x2="176.4835382374775" y1="55.19839476539836" y2="52.563006222186495" /><path d="M 173.08426987136738 54.67131705675599 a86.0,86.0 0 0,1 12.851231095245387,41.99856678651699" fill="none" id="id3" stroke="none" /><text fill="#e1ed5e" style="font-size:6.75px; font-family:Arial;" text-anchor="middle"><textPath startOffset="22.20632615414155" xlink:href="#id3">March</textPath></text><line stroke="#e1ed5e" stroke-width="0.3" x1="184.98032266829074" x2="189.97916517819016" y1="98.17113171792111" y2="98.06355123074" /><path d="M 185.9800911702706 98.14961562048488 a86.0,86.0 0 0,1 -9.607161424134198,41.387399972396054" fill="none" id="id4" stroke="none" /><text fill="#e1ed5e" style="font-size:6.75px; font-family:Arial;" text-anchor="middle"><textPath startOffset="21.466115282336823" xlink:href="#id4">April</textPath></text><line stroke="#e1ed5e" stroke-width="0.3" x1="174.80103733775053" x2="179.2010983576182" y1="140.37084112569926" y2="142.7455964860345" /><path d="M 175.68104954172406 140.8457921977663 a86.0,86.0 0 0,1 -30.038265399797805,32.042727171017184" fill="none" id="id5" stroke="none" /><text fill="#e1ed5e" style="font-size:6.75px; font-family:Arial;" text-anchor="middle"><textPath startOffset="22.206326154141568" xlink:href="#id5">May</textPath></text><line stroke="#e1ed5e" stroke-width="0.3" x1="143.8653032363475" x2="146.44561519142675" y1="172.8068346515853" y2="177.08958963109032" /><path d="M 144.38136562736335 173.6633856474863 a86.0,86.0 0 0,1 -40.68145358897372,12.25698825130547" fill="none" id="id6" stroke="none" /><text fill="#e1ed5e" style="font-size:6.75px; font-family:Arial;" text-anchor="middle"><textPath startOffset="21.466115282336833" xlink:href="#id6">June</textPath></text><line stroke="#e1ed5e" stroke-width="0.3" x1="102.19456741930631" x2="102.32365962044197" y1="184.97166512339345" y2="189.96999836594603" /><path d="M 102.22038585953345 185.97133177190398 a86.0,86.0 0 0,1 -42.740103519485714,-10.115201625700543" fill="none" id="id7" stroke="none" /><text fill="#e1ed5e" style="font-size:6.75px; font-family:Arial;" text-anchor="middle"><textPath startOffset="22.20632615414155" xlink:href="#id7">July</textPath></text><path d="M 93.42475214034765 119.94407469862007 l -17.120244907207766 51.929212491477784 a75.67856888825663,75.67856888825663 0 0,0 -1.2336697475450213,-0.4185277593574647 l 18.011584387690014 -51.6268217452222" fill="#41ffd0" stroke="none" /><path d="M 91.40352486487194 119.15986991738527 l -25.789425405384158 57.479609752155824 a84.0,84.0 0 0,0 -1.3141280169303222,-0.6032517186637025 l 26.7750214180819 -57.02717096315804" fill="#4dd2ff" stroke="none" /><line stroke="#e1ed5e" stroke-width="0.3" x1="58.666819895761336" x2="56.23545636021788" y1="174.27360380694188" y2="178.64263932499728" /><path d="M 58.180547188652646 175.14741091055294 a86.0,86.0 0 0,1 -31.652253787137756,-30.449443065178592" fill="none" id="id8" stroke="none" /><text fill="#e1ed5e" style="font-size:6.75px; font-family:Arial;" text-anchor="middle"><textPath startOffset="22.20632615414155" xlink:href="#id8">August</textPath></text><path d="M 85.44109423537348 115.13401014063109 l -15.617245738411873 16.234156549602208 a43.52656661213457,43.52656661213457 0 0,0 -0.5354805027220539,-0.5240803756196258 l 15.894376193509721 -15.962926071060012" fill="#ffd313" stroke="none" /><line stroke="#e1ed5e" stroke-width="0.3" x1="26.63291911575756" x2="22.317208475507996" y1="142.92168965132927" y2="145.44649492493687" /><path d="M 25.769776987707644 143.4266507060508 a86.0,86.0 0 0,1 -11.730757126820373,-40.83630448921669" fill="none" id="id9" stroke="none" /><text fill="#e1ed5e" style="font-size:6.75px; font-family:Arial;" text-anchor="middle"><textPath startOffset="21.46611528233685" xlink:href="#id9">September</textPath></text><path d="M 81.18737489456691 109.33194174019688 l -20.19222653396296 10.016288559610992 a43.540009958034,43.540009958034 0 0,0 -0.327268989468494,-0.6742710521778159 l 20.361648780046174 -9.667228551467892" fill="#ffd313" stroke="none" /><path d="M 80.73074385275274 108.34839909993369 l -25.61238990138769 11.096559782378607 a48.91286720250373,48.91286720250373 0 0,0 -0.32806330250207894,-0.7754447387819875 l 25.799604185082078 -10.654040517930461" fill="#e0ff1b" stroke="none" /><path d="M 80.32549172779594 107.34259656027581 l -21.150901061675235 7.893591607654073 a43.57585888043246,43.57585888043246 0 0,0 -0.2562172084568311,-0.7049997167608325 l 21.28364253113729 -7.528344093887123" fill="#ffd313" stroke="none" /><path d="M 80.0844068197444 106.66101706037122 l -42.531173600113405 14.225078328514524 a65.847001920478,65.847001920478 0 0,0 -0.35026763627930024,-1.0780129377820964 l 42.769733487408956 -13.490866490754623" fill="#33ff53" stroke="none" /><path d="M 79.86692584326677 105.97154293290107 l -9.851014803625283 2.9218467768281173 a31.275197382459634,31.275197382459634 0 0,0 -0.14864261817190078,-0.5174444539358966 l 9.899850058683288 -2.7518448473876247" fill="#ff1402" stroke="none" /><path d="M 79.67330655649465 105.27499134158121 l -22.112273243116206 5.738368132736541 a43.84472579842094,43.84472579842094 0 0,0 -0.1832890882350863,-0.7321487965124374 l 22.207773645646355 -5.356891496826712" fill="#ffd714" stroke="none" /><path d="M 79.35854240842038 103.8639653848113 l -26.044442436662 4.875373921414581 a47.496834767764426,47.496834767764426 0 0,0 -0.14351634017344603,-0.8049158520652445 l 26.124505219174633 -4.426339318616122" fill="#f3ff19" stroke="none" /><path d="M 79.04373962182676 101.35467743843564 l -37.42881414723166 2.4195142242776124 a58.50693505939256,58.50693505939256 0 0,0 -0.056316126473168325,-1.005562269212408 l 37.46491662459236 -1.7748802387297666" fill="#66ff29" stroke="none" /><line stroke="#e1ed5e" stroke-width="0.3" x1="15.007084014347285" x2="10.007500721073583" y1="101.09737516637583" y2="101.16192664675087" /><path d="M 14.007167355692545 101.11028546245083 a86.0,86.0 0 0,1 10.666146001902534,-42.60595125391555" fill="none" id="id10" stroke="none" /><text fill="#e1ed5e" style="font-size:6.75px; font-family:Arial;" text-anchor="middle"><textPath startOffset="22.20632615414155" xlink:href="#id10">October</textPath></text><path d="M 80.95270993114464 91.15688171328213 l -12.311168991798041 -5.715727709752138 a34.57329824311829,34.57329824311829 0 0,0 0.25525269545051704,-0.5376272741720066 l 12.210958102505773 5.926797399564677" fill="#ff4a06" stroke="none" /><line stroke="#e1ed5e" stroke-width="0.3" x1="26.266209847984243" x2="21.928928074336255" y1="57.711370442889674" y2="55.22380399835377" /><path d="M 25.398753493254645 57.213857153982495 a86.0,86.0 0 0,1 29.58750427330803,-30.492523968695096" fill="none" id="id11" stroke="none" /><text fill="#e1ed5e" style="font-size:6.75px; font-family:Arial;" text-anchor="middle"><textPath startOffset="21.46611528233685" xlink:href="#id11">November</textPath></text><path d="M 83.17141714833178 87.43820079747577 l -7.2645756687370655 -5.422687201089662 a30.065296251511487,30.065296251511487 0 0,0 0.3131430311664512,-0.4120595228015324 l 7.170156697346505 5.546931499772219" fill="#ff0000" stroke="none" /><path d="M 83.84228863543731 86.58626213691792 l -10.426257735209669 -8.655624859085327 a34.55089266661925,34.55089266661925 0 0,0 0.3838265025556106,-0.45432951391485316 l 10.275720619166933 8.833813322629297" fill="#ff4a06" stroke="none" /><path d="M 88.39885842347998 82.49532879139004 l -7.458760844310726 -11.254336941078698 a34.50160039832136,34.50160039832136 0 0,0 0.49786298018596875,-0.32382393127271214 l 7.26393083834047 11.381059796510945" fill="#ff4906" stroke="none" /><line stroke="#e1ed5e" stroke-width="0.3" x1="56.76296977257108" x2="54.21961505331056" y1="26.818313649435495" y2="22.513508569990535" /><path d="M 56.25429882871898 25.957352633546506 a86.0,86.0 0 0,1 42.26535254187918,-11.944610805530505" fill="none" id="id12" stroke="none" /><text fill="#e1ed5e" style="font-size:6.75px; font-family:Arial;" text-anchor="middle"><textPath startOffset="22.20632615414155" xlink:href="#id12">December</textPath></text><path d="M 91.56875222667455 80.76684994638697 l -5.411734825129016 -12.345113171904396 a34.47919482182232,34.47919482182232 0 0,0 0.5456188789335169,-0.23360552927199707 l 5.1984321884051905 12.43643822913918" fill="#ff4906" stroke="none" /><path d="M 92.57280143429618 80.3572730644239 l -4.819569849556576 -12.746326042624712 a34.62707162671598,34.62707162671598 0 0,0 0.5593387953581564,-0.20600919878468132 l 4.599448728425851 12.827398509215715" fill="#ff4b07" stroke="none" /><path d="M 96.04723909329186 79.375362276772 l -2.543892217362206 -13.273470525625367 a34.51504374422078,34.51504374422078 0 0,0 0.5844627595615225,-0.1068068335179272 l 2.3150343366977904 13.31529284049403" fill="#ff4906" stroke="none" /></svg>