<?xml version="1.0" encoding="utf-8" ?>
<svg baseProfile="full" height="200mm" version="1.1" viewBox="0,0,200,200" width="200mm" xmlns="http://www.w3.org/2000/svg" xmlns:ev="http://www.w3.org/2001/xml-events" xmlns:xlink="http://www.w3.org/1999/xlink"><defs /><rect fill="#1a1a1a" height="200" width="200" x="0" y="0" /><text alignment-baseline="middle" fill="#e1ed5e" style="dominant-baseline: central; font-size:9.0px; font-family:Arial;" text-anchor="middle" x="100.0" y="100.0">2023</text><line stroke="#e1ed5e" stroke-width="0.3" x1="100.0" x2="100.0" y1="15.0" y2="10.0" /><path d="M 100.0 14.0 a86.0,86.0 0 0,1 42.46469731375804,11.215312516191453" fill="none" id="id73" stroke="none" /><text fill="#e1ed5e" style="font-size:6.75px; font-family:Arial;" text-anchor="middle"><textPath startOffset="22.20632615414155" xlink:href="#id73">January</textPath></text><path d="M 100.0 79.0 l 0.0 -44.23887766170856 a65.23887766170856,65.23887766170856 0 0,0 1.1229800363979168,0.009665843710727321 l -0.7614995571253885 44.23232319460639" fill="#35ff66" stroke="none" /><path d="M 100.72285384407766 79.0124445844662 l 0.8095974869043865 -23.506096370509468 a44.52003432545285,44.52003432545285 0 0,0 0.7656580256656638,0.032970845189603755 l -1.2140963449593818 23.488677798795667" fill="#e3ff1b" stroke="none" /><path d="M 101.08401301168833 79.027996857942 l 1.3589828337610164 -26.2917436897273 a47.32684220693345,47.32684220693345 0 0,0 0.8132057512781355,0.04905479168567502 l -1.8113506338787637 26.264455628661324" fill="#c1ff1e" stroke="none" /><path d="M 101.44485096284872 79.0497635885617 l 1.625819635536234 -23.57426932095898 a44.63026583651574,44.63026583651574 0 0,0 0.7659612218498577,0.059453332630269376 l -2.0313710467484327 23.542790726140247" fill="#e1ff1b" stroke="none" /><path d="M 101.80526077348638 79.07773832637324 l 4.092256606269031 -47.42764303610159 a68.60386421385797,68.60386421385797 0 0,0 1.1756574721466801,0.11164284303158323 l -4.908039205505956 47.35017464855483" fill="#39ff8d" stroke="none" /><path d="M 102.16513564639614 79.11191278185805 l 0.7449540783153904 -7.186924194455505 a28.22542981113571,28.22542981113571 0 0,0 0.48283400932900733,0.05425202677185583 l -0.868554791154123 7.173036214213049" fill="#ff4306" stroke="none" /><path d="M 102.52436894288641 79.15227682838746 l 6.084469241799205 -50.24912493741176 a71.61615673804182,71.61615673804182 0 0,0 1.2225398757838843,0.15872076300611793 l -6.948523846090935 50.1369458512415" fill="#3dffaf" stroke="none" /><path d="M 102.88285421437855 79.19881850522331 l 4.566143438666394 -32.94692389408872 a54.26183187957859,54.26183187957859 0 0,0 0.9240816313763124,0.13618561140876043 l -5.132594050471362 32.86344379851899" fill="#73ff27" stroke="none" /><path d="M 103.2404852339499 79.25152402106235 l 3.61421699232401 -23.141439949256156 a44.42197274767077,44.42197274767077 0 0,0 0.7544771564185232,0.12449519541878926 l -4.012023354881408 23.07579849089774" fill="#e4ff1a" stroke="none" /><path d="M 103.59715602781102 79.31037775812273 l 6.627547643361671 -38.11940768514264 a59.691260383077996,59.691260383077996 0 0,0 1.01078587713046,0.18471465826485972 l -7.282728641595032 37.99967754552704" fill="#3aff2e" stroke="none" /><path d="M 103.95276090670814 79.375362276772 l 5.290254506673617 -27.603385390361105 a49.10575880054088,49.10575880054088 0 0,0 0.8287966860722388,0.16624881831167945 l -5.76461760221298 27.508232615972215" fill="#acff20" stroke="none" /><path d="M 104.307194497241 79.44645832069477 l 5.126285963087416 -24.462171900954456 a45.99353240114716,45.99353240114716 0 0,0 0.7734738385402655,0.16905142267898976 l -5.546602525781211 24.370306980179596" fill="#d1ff1c" stroke="none" /><path d="M 105.01212808612495 79.60689891045804 l 1.1210760957605217 -4.561379469372042 a25.69712617204333,25.69712617204333 0 0,0 0.4286416611621993,0.10927030353495426 l -1.199426645607746 4.54140616966822" fill="#ff1e03" stroke="none" /><path d="M 105.36241919743992 79.69619591428918 l 5.981296254392191 -22.647067089748074 a44.423611007920115,44.423611007920115 0 0,0 0.7376479488936447,0.20162704924533367 l -6.370242092509547 22.54075349967645" fill="#e4ff1a" stroke="none" /><path d="M 105.71112130821622 79.79150937346287 l 9.071667732039773 -32.099600487604384 a54.35685097404045,54.35685097404045 0 0,0 0.8982075724638997,0.2622114208755856 l -9.6228655222271 31.93869073781009" fill="#72ff27" stroke="none" /><path d="M 106.0581310904928 79.89281104454417 l 9.595184120228103 -31.846815013724285 a54.260895730864675,54.260895730864675 0 0,0 0.8919835664815728,0.27714363605934095 l -10.141953059420393 31.676931242782423" fill="#73ff27" stroke="none" /><path d="M 106.40334571778207 80.00007090966166 l 3.3628340816720423 -10.503328438013739 a32.02853396139501,32.02853396139501 0 0,0 0.5236164708256676,0.1726281179298511 l -3.5431333747401275 10.443886595824651" fill="#ff790b" stroke="none" /><path d="M 106.74666289553966 80.11325718540242 l 11.607083278343547 -34.21351912167398 a57.12878731592791,57.12878731592791 0 0,0 0.9285277712841898,0.3239451072803386 l -12.194293053691009 34.00865316122143" fill="#54ff2b" stroke="none" /><path d="M 107.4271985657038 80.35727306442388 l 8.77232087604153 -23.20017460621228 a45.803260175044954,45.803260175044954 0 0,0 0.7350699893757356,0.285195735880318 l -9.170374030416934 23.04573616644141" fill="#d3ff1c" stroke="none" /><path d="M 108.09893153111575 80.62456947434976 l 10.920325513246862 -26.125175584766456 a49.315690149635195,49.315690149635195 0 0,0 0.780400230119235,0.3341266511109925 l -11.368409501156412 25.93332940569267" fill="#aaff21" stroke="none" /><path d="M 109.08828744355905 81.06846463323043 l 11.249282786590262 -23.433039089895484 a46.993339227603016,46.993339227603016 0 0,0 0.726223278022999,0.3563546085728172 l -11.650977331623693 23.235929321187836" fill="#c5ff1e" stroke="none" /><path d="M 109.41281617654863 81.2277094730956 l 25.432206287731088 -50.72028989187246 a77.73927143854853,77.73927143854853 0 0,0 1.1910378708497136,0.6100958576111065 l -26.30150464616956 50.275001508948854" fill="#45ffef" stroke="none" /><path d="M 109.73455568895987 81.39251694778311 l 11.29587878609214 -21.591932881999295 a45.368185060255286,45.368185060255286 0 0,0 0.6888509779277461,0.367960335988894 l -11.665874810548198 21.394293819508647" fill="#d9ff1c" stroke="none" /><path d="M 110.05341064243156 81.56283822128135 l 15.907990734108052 -29.173999667457053 a54.22930071177021,54.22930071177021 0 0,0 0.8157014172055691,0.4539369555337132 l -16.407816240385657 28.895847314363163" fill="#73ff27" stroke="none" /><path d="M 110.36928655335952 81.73862282372117 l 4.7879580123793595 -8.432085150536999 a30.696628378679584,30.696628378679584 0 0,0 0.45723836472135737,0.26486197354092217 l -4.932393109566045 8.348419019606027" fill="#ff6609" stroke="none" /><line stroke="#e1ed5e" stroke-width="0.3" x1="143.23703022742887" x2="145.7803849466894" y1="26.81831364943548" y2="22.513508569990506" /><path d="M 143.74570117128098 25.957352633546492 a86.0,86.0 0 0,1 28.547481713284135,27.462654790039103" fill="none" id="id74" stroke="none" /><text fill="#e1ed5e" style="font-size:6.75px; font-family:Arial;" text-anchor="middle"><textPath startOffset="19.985693538727396" xlink:href="#id74">February</textPath></text><path d="M 110.68208982089419 81.91981866633111 l 23.473510237615958 -39.73055167573031 a67.1467487406571,67.1467487406571 0 0,0 0.9900562162028816,0.596497792447623 l -24.15392852003648 39.32060727382407" fill="#37ff7c" stroke="none" /><path d="M 110.99172775467656 82.1063720568725 l 12.350687631801057 -20.105902753205307 a44.596330445636504,44.596330445636504 0 0,0 0.6506410249057503,0.40743135010605847 l -12.69494780907907 19.8903270617763" fill="#e2ff1b" stroke="none" /><path d="M 111.2981086023043 82.29822771554956 l 14.022954459767474 -21.971035625502385 a47.06472056703865,47.06472056703865 0 0,0 0.6791505835267373,0.4417384313283098 l -14.399072069078493 21.72639827001455" fill="#c4ff1e" stroke="none" /><path d="M 111.60114157652 82.49532879139004 l 18.64173661021893 -28.128048258615856 a54.74465057877766,54.74465057877766 0 0,0 0.7810114437979038,0.5273424132123065 l -19.12315274842338 27.80299393310488" fill="#6eff28" stroke="none" /><path d="M 111.90073688211348 82.69761687909136 l 28.25321975989279 -41.07712299896476 a70.85553590798996,70.85553590798996 0 0,0 0.9989579890699185,0.6998339105429212 l -28.95610888854636 40.5847042456579" fill="#3cffa6" stroke="none" /><path d="M 112.19680574252982 82.90503203632743 l 8.304981320754495 -11.640210774378506 a35.29920353061801,35.29920353061801 0 0,0 0.49159130483381497,0.3571619893594118 l -8.504117941942098 11.495529550202418" fill="#ffa50f" stroke="none" /><path d="M 112.48926042617603 83.11751280151076 l 19.657125676563172 -26.57172332623714 a54.05236860484123,54.05236860484123 0 0,0 0.743229968243692,0.5597854033079969 l -20.111601798565246 26.229421333423296" fill="#75ff27" stroke="none" /><path d="M 112.77801427241765 83.33499621200491 l 16.06327806493348 -20.949623634211687 a47.399159695082986,47.399159695082986 0 0,0 0.6432008298046626,0.5020284499450473 l -16.421511449897576 20.670016795043416" fill="#c0ff1e" stroke="none" /><path d="M 113.34407831869373 83.78471172551755 l 18.77643104850475 -22.816505939636293 a50.549066080211595,50.549066080211595 0 0,0 0.667109175137437,0.5586847491447836 l -19.166397760601306 22.48992003309769" fill="#9cff22" stroke="none" /><path d="M 113.6212207817346 84.01681056812373 l 7.6905136858640475 -9.024076405429852 a32.85655749884839,32.85655749884839 0 0,0 0.4273014099073647,0.37055157197365274 l -7.844708894418176 8.890359840036528" fill="#ff840c" stroke="none" /><path d="M 113.89432698308785 84.25364557470407 l 16.973719629903535 -19.23621097541391 a46.65421935598913,46.65421935598913 0 0,0 0.5975939232879791,0.5365257247412383 l -17.302324540787502 18.941186241903377" fill="#c9ff1d" stroke="none" /><path d="M 114.16331599549186 84.49514656593476 l 18.30795428142169 -20.042068390012833 a48.14527022006925,48.14527022006925 0 0,0 0.6070708565162418,0.5642062001598203 l -18.65023302173278 19.723957603778373" fill="#b8ff1f" stroke="none" /><path d="M 114.42810811169701 84.74124197986012 l 22.81613296851175 -24.129695260573442 a54.20870544006419,54.20870544006419 0 0,0 0.6724893385340658,0.6469342108571666 l -23.228105550658235 23.733377962953973" fill="#73ff27" stroke="none" /><path d="M 114.68862486808459 84.99185889309783 l 17.53922909908154 -17.92075348028315 a46.075445413614275,46.075445413614275 0 0,0 0.5620418860148909,0.5596282995400198 l -17.845106785263752 17.61618933009301" fill="#d0ff1d" stroke="none" /><path d="M 114.94478906791727 85.2469230424477 l 8.602686228364508 -8.492330764386237 a33.08825430554111,33.08825430554111 0 0,0 0.39664266954210303,0.4087751368381168 l -8.74759316160972 8.342991431998005" fill="#ff870c" stroke="none" /><path d="M 115.19652480421416 85.50635884689758 l 20.20612558359942 -19.271533266737322 a48.92274172697148,48.92274172697148 0 0,0 0.5759666882717399,0.6144011049323099 l -20.53485959384162 18.920862744926957" fill="#afff20" stroke="none" /><path d="M 115.4437574822437 85.77008943001954 l 23.760121174518673 -21.89262553714872 a53.308364414461266,53.308364414461266 0 0,0 0.6159816015965166,0.680182269527336 l -24.133446416731225 21.480390480351836" fill="#7dff26" stroke="none" /><path d="M 115.68641384162765 86.03803664274999 l 24.540950064718885 -21.843096134977042 a53.85390507749231,53.85390507749231 0 0,0 0.6103651231690191,0.697752848062321 l -24.91330705146575 21.417427730711772" fill="#77ff27" stroke="none" /><path d="M 115.9244219780498 86.31012108654704 l 2.0379081263720455 -1.7519452527213002 a23.68744892045708,23.68744892045708 0 0,0 0.26314430603374667,0.3114798583572335 l -2.0677630458929093 1.71660644473496" fill="#ff0000" stroke="none" /><path d="M 116.15771136456269 86.58626213691792 l 16.06509449963736 -13.33684960089083 a41.87962687786974,41.87962687786974 0 0,0 0.45569323299383774,0.5586260218760657 l -16.292286224707606 13.058339409406663" fill="#fffb17" stroke="none" /><path d="M 116.38621287248628 86.86637796730983 l 38.55399745769007 -30.901199343553387 a70.40946104581184,70.40946104581184 0 0,0 0.749847078594003,0.9522296416513247 l -39.08019861687804 30.232977307949024" fill="#3cffa1" stroke="none" /><path d="M 117.45458315368197 88.32363383020206 l 47.03415821725444 -31.46383096046752 a77.58784938407359,77.58784938407359 0 0,0 0.7330328749115597,1.1164593589851426 l -47.568787727523926 30.649553537504705" fill="#45ffee" stroke="none" /><path d="M 117.65298651832404 88.62581576622439 l 52.95895955497212 -34.12255270132683 a84.0,84.0 0 0,0 0.7726896150161773,1.2222094091431752 l -53.538476766234254 33.20589564446945" fill="#4dd2ff" stroke="none" /><line stroke="#e1ed5e" stroke-width="0.3" x1="172.23445277983987" x2="176.4835382374775" y1="55.19839476539836" y2="52.563006222186495" /><path d="M 173.08426987136738 54.67131705675599 a86.0,86.0 0 0,1 12.851231095245387,41.99856678651699" fill="none" id="id75" stroke="none" /><text fill="#e1ed5e" style="font-size:6.75px; font-family:Arial;" text-anchor="middle"><textPath startOffset="22.20632615414155" xlink:href="#id75">March</textPath></text><path d="M 117.84615892207809 88.93136811851018 l 17.480733910641867 -10.84198619546083 a41.56999569074402,41.56999569074402 0 0,0 0.37192121217145485,0.6113406827116431 l -17.664770921099546 10.539477739542106" fill="#fff717" stroke="none" /><path d="M 118.3937258080291 89.86733742301442 l 12.868119052928275 -7.088738286339213 a35.69144984174629,35.69144984174629 0 0,0 0.2918063269037259,0.5406728060521525 l -12.988233479050466 6.866184496954602" fill="#ffaa0f" stroke="none" /><path d="M 118.73160827565052 90.50648371742162 l 21.48504085013086 -10.889005478922003 a45.086872371725335,45.086872371725335 0 0,0 0.3448930758935857,0.6952833953407077 l -21.669293938977855 10.517562495082345" fill="#dcff1b" stroke="none" /><path d="M 118.89224826269711 90.83032412892265 l 13.750829168128758 -6.674200162786541 a36.284968126365214,36.284968126365214 0 0,0 0.2678898568907605,0.564244359043134 l -13.863677218861275 6.436513388102866" fill="#ffb210" stroke="none" /><path d="M 119.04729006885535 91.15688171328212 l 29.245757180740693 -13.57797824252176 a53.244004190379954,53.244004190379954 0 0,0 0.3787871838874576,0.8346073495520984 l -29.475146681591497 13.072548884127599" fill="#7eff26" stroke="none" /><path d="M 119.34039704204932 91.81776055985345 l 36.33297213609172 -15.371198271851746 a60.45071102723746,60.45071102723746 0 0,0 0.3971851016222938,0.9618152280180459 l -36.59217892460021 14.743508473380396" fill="#33ff2f" stroke="none" /><path d="M 119.47837535516314 92.15188598940014 l 7.308623803337804 -2.944748307972968 a28.87956372498031,28.87956372498031 0 0,0 0.18181260004975539,0.46269323587834443 l -7.35822995326926 2.818506067198839" fill="#ff4c07" stroke="none" /><path d="M 119.61058180528143 92.48833698450437 l 32.95183571178169 -12.621914437144188 a56.28648751058739,56.28648751058739 0 0,0 0.33877875003327734,0.9077586198915881 l -33.164219050316596 12.052832680223267" fill="#5dff2a" stroke="none" /><path d="M 119.7369772167798 92.82701384747503 l 31.153333211618726 -11.32201883183794 a54.146919624946136,54.146919624946136 0 0,0 0.3108211592583866,0.8787332728509033 l -31.34360745168692 10.784087932560421" fill="#74ff27" stroke="none" /><path d="M 119.85752413597 93.16781622104841 l 23.78560897896547 -8.183681446178177 a46.154081905582714,46.154081905582714 0 0,0 0.252007234989214,0.7534695565314425 l -23.922953507726454 7.773038786724421" fill="#cfff1d" stroke="none" /><path d="M 120.08093135843002 93.85539295169968 l 32.89040639576487 -10.06420565627984 a55.395742009302054,55.395742009302054 0 0,0 0.2711597906513234,0.9142160133235633 l -33.0587720835279 9.496560256209747" fill="#67ff28" stroke="none" /><path d="M 120.18372546131832 94.20196356495316 l 31.53705228830131 -9.059426545014317 a53.8124804969018,53.8124804969018 0 0,0 0.24808381051141262,0.892489461526619 l -31.688322869379085 8.515225780068747" fill="#78ff26" stroke="none" /><path d="M 120.28053869075195 94.5502522615342 l 34.09655584874624 -9.162361560490083 a56.30614663357951,56.30614663357951 0 0,0 0.24346688821798226,0.9381772366980968 l -34.24921906883453 8.574087898243137" fill="#5dff2a" stroke="none" /><path d="M 120.37134235888165 94.90015583598534 l 54.50742430114839 -13.645608856820685 a77.18951810630489,77.18951810630489 0 0,0 0.31157806186134485,1.291692220173772 l -54.734235163270554 12.705331404987506" fill="#44ffea" stroke="none" /><path d="M 120.45610955862082 95.25157060432595 l 26.907518525917567 -6.24598003676929 a48.62294010134181,48.62294010134181 0 0,0 0.18223325268758647,0.8169159394484706 l -27.01104616560719 5.781885927770856" fill="#b2ff20" stroke="none" /><line stroke="#e1ed5e" stroke-width="0.3" x1="184.98032266829074" x2="189.97916517819016" y1="98.17113171792111" y2="98.06355123074" /><path d="M 185.9800911702706 98.14961562048488 a86.0,86.0 0 0,1 -9.607161424134198,41.387399972396054" fill="none" id="id76" stroke="none" /><text fill="#e1ed5e" style="font-size:6.75px; font-family:Arial;" text-anchor="middle"><textPath startOffset="21.466115282336823" xlink:href="#id76">April</textPath></text><line stroke="#e1ed5e" stroke-width="0.3" x1="174.80103733775053" x2="179.2010983576182" y1="140.37084112569926" y2="142.7455964860345" /><path d="M 175.68104954172406 140.8457921977663 a86.0,86.0 0 0,1 -30.038265399797805,32.042727171017184" fill="none" id="id77" stroke="none" /><text fill="#e1ed5e" style="font-size:6.75px; font-family:Arial;" text-anchor="middle"><textPath startOffset="22.206326154141568" xlink:href="#id77">May</textPath></text><line stroke="#e1ed5e" stroke-width="0.3" x1="143.8653032363475" x2="146.44561519142675" y1="172.8068346515853" y2="177.08958963109032" /><path d="M 144.38136562736335 173.6633856474863 a86.0,86.0 0 0,1 -40.68145358897372,12.25698825130547" fill="none" id="id78" stroke="none" /><text fill="#e1ed5e" style="font-size:6.75px; font-family:Arial;" text-anchor="middle"><textPath startOffset="21.466115282336833" xlink:href="#id78">June</textPath></text><line stroke="#e1ed5e" stroke-width="0.3" x1="102.19456741930631" x2="102.32365962044197" y1="184.97166512339345" y2="189.96999836594603" /><path d="M 102.22038585953345 185.97133177190398 a86.0,86.0 0 0,1 -42.740103519485714,-10.115201625700543" fill="none" id="id79" stroke="none" /><text fill="#e1ed5e" style="font-size:6.75px; font-family:Arial;" text-anchor="middle"><textPath startOffset="22.20632615414155" xlink:href="#id79">July</textPath></text><line stroke="#e1ed5e" stroke-width="0.3" x1="58.666819895761336" x2="56.23545636021788" y1="174.27360380694188" y2="178.64263932499728" /><path d="M 58.180547188652646 175.14741091055294 a86.0,86.0 0 0,1 -31.652253787137756,-30.449443065178592" fill="none" id="id80" stroke="none" /><text fill="#e1ed5e" style="font-size:6.75px; font-family:Arial;" text-anchor="middle"><textPath startOffset="22.20632615414155" xlink:href="#id80">August</textPath></text><line stroke="#e1ed5e" stroke-width="0.3" x1="26.63291911575756" x2="22.317208475507996" y1="142.92168965132927" y2="145.44649492493687" /><path d="M 25.769776987707644 143.4266507060508 a86.0,86.0 0 0,1 -11.730757126820373,-40.83630448921669" fill="none" id="id81" stroke="none" /><text fill="#e1ed5e" style="font-size:6.75px; font-family:Arial;" text-anchor="middle"><textPath startOffset="21.46611528233685" xlink:href="#id81">September</textPath></text><line stroke="#e1ed5e" stroke-width="0.3" x1="15.007084014347285" x2="10.007500721073583" y1="101.09737516637583" y2="101.16192664675087" /><path d="M 14.007167355692545 101.11028546245083 a86.0,86.0 0 0,1 10.666146001902534,-42.60595125391555" fill="none" id="id82" stroke="none" /><text fill="#e1ed5e" style="font-size:6.75px; font-family:Arial;" text-anchor="middle"><textPath startOffset="22.20632615414155" xlink:href="#id82">October</textPath></text><line stroke="#e1ed5e" stroke-width="0.3" x1="26.266209847984243" x2="21.928928074336255" y1="57.711370442889674" y2="55.22380399835377" /><path d="M 25.398753493254645 57.213857153982495 a86.0,86.0 0 0,1 29.58750427330803,-30.492523968695096" fill="none" id="id83" stroke="none" /><text fill="#e1ed5e" style="font-size:6.75px; font-family:Arial;" text-anchor="middle"><textPath startOffset="21.46611528233685" xlink:href="#id83">November</textPath></text><line stroke="#e1ed5e" stroke-width="0.3" x1="56.762969772571076" x2="54.21961505331055" y1="26.818313649435495" y2="22.513508569990535" /><path d="M 56.25429882871897 25.957352633546506 a86.0,86.0 0 0,1 42.265352541879196,-11.944610805530505" fill="none" id="id84" stroke="none" /><text fill="#e1ed5e" style="font-size:6.75px; font-family:Arial;" text-anchor="middle"><textPath startOffset="22.20632615414155" xlink:href="#id84">December</textPath></text></svg>